<svg height="512" viewBox="0 0 60 51" width="512" xmlns="http://www.w3.org/2000/svg"><g id="017---Body-Armor" fill="none"><g id="Layer_3" transform="translate(1)"><circle id="Oval" cx="9" cy="16" fill="#e8edfc" r="3"/><path id="Shape" d="m19 14-3.71 6.5c-.179341.3106342-.5113152.501424-.87.5h-6.82l1.21-2h.19c1.6568542 0 3-1.3431458 3-3s-1.3431458-3-3-3c-1.35059804-1.496796-2.41490811-3.22884205-3.14-5.11 2.59880105-3.23168566 6.1449328-5.56779614 10.14-6.68.1766732-.04840895.3655944.00577172.4897579.14045755s.1628313.32738137.1002421.49954245c-1.33 4.01.14 8.53 2.41 12.15z" fill="#e8edfc"/><g fill="#cad9fc"><path id="Shape" d="m34.81 28.12c-1.7397711 1.1222101-3.742605 1.7702871-5.81 1.88-2.067395-.1097129-4.0702289-.7577899-5.81-1.88.3370171-.7224007.579031-1.4854167.72-2.27h.09c.6248621.0888831 1.2550162-.1224039 1.7-.57l3.3-3.28 3.29 3.29c.4449838.4475961 1.0751379.6588831 1.7.57h.1c.1445415.7804796.3864304 1.5397418.72 2.26z"/><path id="Shape" d="m23.91 25.84c-.1561058.8519218-.4251446 1.6792162-.8 2.46-.8206227 1.6976274-1.9892729 3.2035848-3.43 4.42-1.4368856-1.2731003-2.7009554-2.7287977-3.76-4.33l4.55-3z"/><path id="Shape" d="m20.47 25.35-4.55 3c-1.5168729-2.1392276-2.2577529-4.7323078-2.1-7.35h.6c.3586848.001424.690659-.1893658.87-.5l.95-1.67 1.4 4.92c.2183381.7613248.8653715 1.3220872 1.65 1.43z"/><path id="Shape" d="m25 42-1.37 1.37c-.3610476.3581075-.9333558.388229-1.33.07l-2.3-1.84v-6.6h4.56c.2950686 2.3216315.4420325 4.6596936.44 7z"/><path id="Shape" d="m20 35v-1c0-1-.22-1.19-.32-1.28 1.4407271-1.2164152 2.6093773-2.7223726 3.43-4.42.7022817 2.180271 1.1879627 4.4244522 1.45 6.7z"/></g><path id="Shape" d="m8.81 19-1.36 2.25c-.25547217.4300736-.78943383.605213-1.25.41l-4.92-2.11c-.7914933-.3370534-1.27877795-1.1424825-1.21-2 .47-4.95 3.07-9.62 4.29-11.55.10753552-.16419154.30118901-.2502817.49512873-.22011329.19393973.0301684.35229195.17101499.40487127.36011329.71018193 2.54075182 1.98912603 4.8866226 3.74 6.86-1.65685425-.0524671-3.04253295 1.2481458-3.095 2.905s1.24814575 3.0425329 2.905 3.095z" fill="#e8edfc"/><path id="Shape" d="m41.76 18.83-1.4 4.92c-.2183381.7613248-.8653715 1.3220872-1.65 1.43l-4.62.66h-.09c-.6248621.0888831-1.2550162-.1224039-1.7-.57l-3.3-3.27v-8l5.21-1.74c.5043495-.1681427 1.0548907-.1285613 1.53.11l3.26 1.63z" fill="#e8edfc"/><path id="Shape" d="m39 14c-4.36-2.18-3.63-2.13-5.8-1.4l2.8 1.4 2.76 4.83-1.4 4.92c-.2183381.7613248-.8653715 1.3220872-1.65 1.43l-3 .43c.4132467.2413276.8993271.3264804 1.37.24l4.62-.66c.7846285-.1079128 1.4316619-.6686752 1.65-1.43l1.4-4.92z" fill="#cad9fc"/><path id="Shape" d="m49.19 19 1.21 2h-6.82c-.3586848.001424-.690659-.1893658-.87-.5-1.27-2.23-.43-.77-3.71-6.5 2.27-3.62 3.75-8.14 2.37-12.15-.0725029-.18077813-.0310508-.38733345.1055874-.52614053s.3425152-.18350669.5244126-.11385947c4.0096087 1.10462975 7.5706952 3.44137414 10.18 6.68-.7371332 1.88419787-1.8151291 3.6164491-3.18 5.11-1.6568542 0-2.9999999 1.3431458-2.9999999 3s1.3431457 3 2.9999999 3z" fill="#e8edfc"/><path id="Shape" d="m42.08 28.39-4.55-3 1.18-.17c.7846285-.1079128 1.4316619-.6686752 1.65-1.43l1.4-4.92c1.24 2.19 1.01 2.13 2.42 2.13.1670222 2.6311432-.5742955 5.2398752-2.1 7.39z" fill="#cad9fc"/><path id="Shape" d="m42.08 28.39c-1.0590446 1.6012023-2.3231144 3.0568997-3.76 4.33-2.143481-1.74825-3.6339608-4.1689583-4.23-6.87l3.44-.49z" fill="#cad9fc"/><path id="Shape" d="m38 35v6.6l-2.3 1.84c-.3966442.318229-.9689524.2881075-1.33-.07l-1.37-1.37c-.0020325-2.3403064.1449314-4.6783685.44-7z" fill="#cad9fc"/><path id="Shape" d="m38.32 32.72c-.32.28-.32.7-.32 2.28h-4.56c.2663264-2.2674185.7485139-4.5042327 1.44-6.68.8415819 1.6815134 2.0112232 3.1775663 3.44 4.4z" fill="#cad9fc"/><path id="Shape" d="m29 14v8l-3.29 3.29c-.4449838.4475961-1.0751379.6588831-1.7.57h-.1l-4.62-.66c-.7846285-.1079128-1.4316619-.6686752-1.65-1.43l-1.4-4.92 2.76-4.85 3.26-1.63c.4751093-.2385613 1.0256505-.2781427 1.53-.11z" fill="#e8edfc"/><path id="Shape" d="m23.79 12.26c-.5043495-.1681427-1.0548907-.1285613-1.53.11l-.46.23 4.2 1.4v8c-3.65 3.65-3.37 3.41-3.72 3.61l1.63.23h.09c.6248621.0888831 1.2550162-.1224039 1.7-.57l3.3-3.27v-8z" fill="#cad9fc"/><path id="Shape" d="m41.89 5c-.0655803 3.21754905-1.0700917 6.3457852-2.89 9l-3.26-1.63c-.4751093-.2385613-1.0256505-.2781427-1.53-.11l-5.21 1.74-5.21-1.74c-.5043495-.1681427-1.0548907-.1285613-1.53.11l-3.26 1.63c-1.8199083-2.6542148-2.8244197-5.78245095-2.89-9 1.6215758-1.60253543 3.4758051-2.95106584 5.5-4 .2297807-.08201613.4854652.01019794.61.22l5.27 7.89c.3200908.52151763.888086.83934806 1.5.83934806s1.1799092-.31783043 1.5-.83934806l5.27-7.89c.1262276-.21960816.3945055-.31329249.63-.22 2.0241949 1.04893416 3.8784242 2.39746457 5.5 4z" fill="#cad9fc"/><path id="Shape" d="m41.44 45.47-4.59 3.82c-.2187274.1802524-.5036709.2592209-.7839792.21727-.2803082-.0419509-.529648-.2008802-.6860208-.43727l-.79-1.19c-.1516949-.2318141-.3927587-.3903111-.665712-.4376989-.2729533-.0473877-.5533341.0205807-.774288.1876989-2.4 1.81-2.88 2.37-4.15 2.37s-1.68-.51-4.15-2.37c-.2209539-.1671182-.5013347-.2350866-.774288-.1876989-.2729533.0473878-.5140171.2058848-.665712.4376989l-.79 1.19c-.1563728.2363898-.4057126.3953191-.6860208.43727-.2803083.0419509-.5652518-.0370176-.7839792-.21727l-4.59-3.82c-.3335759-.2769536-.450685-.7373134-.29-1.14l1.23-3.08c.1177392-.2929551.3669139-.5131003.6721458-.5938391.3052318-.0807387.6306658-.0125868.8778542.1838391l3.25 2.6c.3966442.318229.9689524.2881075 1.33-.07l1.37-1.37 3.11 1.55c.5606326.2785851 1.2193674.2785851 1.78 0l3.11-1.55 1.37 1.37c.3610476.3581075.9333558.388229 1.33.07l3.3-2.6c.2471884-.1964259.5726224-.2645778.8778542-.1838391.3052319.0807388.5544066.300884.6721458.5938391l1.23 3.08c.1495936.4134242.0116148.876059-.34 1.14z" fill="#e8edfc"/><path id="Shape" d="m41.73 44.33-1.23-3.08c-.1212504-.2764884-.3609232-.4833985-.6521468-.5629996s-.6028212-.0233716-.8478532.1529996l-1.22 1 1 2.51c.160685.4026866.0435759.8630464-.29 1.14l-3.51 2.92.45.68c.1563728.2363898.4057126.3953191.6860208.43727.2803083.0419509.5652518-.0370176.7839792-.21727l4.59-3.82c.3250484-.2925865.4222621-.7624527.24-1.16z" fill="#cad9fc"/><path id="Shape" d="m34.88 28.31c-1.3536172 4.4336794-1.9883236 9.0555574-1.88 13.69l-3.11 1.55c-.5606326.2785851-1.2193674.2785851-1.78 0l-3.11-1.55c.060034-4.6355719-.5770841-9.253835-1.89-13.7.030801-.0580759.057532-.1182206.08-.18 1.7397711 1.1222101 3.742605 1.7702871 5.81 1.88 2.067395-.1097129 4.0702289-.7577899 5.81-1.88.02.06.04.12.07.19z" fill="#e8edfc"/><path id="Shape" d="m34.81 28.12c-1.0251685.6498687-2.1404723 1.1451849-3.31 1.47-1.0315766 4.0549521-1.5357373 8.2260414-1.5 12.41l-2.5 1.25.61.3c.5606326.2785851 1.2193674.2785851 1.78 0l3.11-1.55c-.0020325-2.3403064.1449314-4.6783685.44-7 .257818-2.2720946.7401752-4.5130459 1.44-6.69-.03-.07-.05-.13-.07-.19z" fill="#cad9fc"/><circle id="Oval" cx="49" cy="16" fill="#e8edfc" r="3"/><path id="Shape" d="m57.93 17.51c.0687779.8575175-.4185067 1.6629466-1.21 2l-4.92 2.15c-.4605662.195213-.9945278.0200736-1.25-.41-.22-.36 0 .06-1.36-2.26 1.59547-.1278699 2.8095679-1.4857407 2.7588236-3.0855219-.0507444-1.5997813-1.3484571-2.8779786-2.9488236-2.9044781 1.7539773-1.9826686 3.0330304-4.3389992 3.74-6.89.0525793-.1890983.2109315-.32994489.4048713-.36011329.1939397-.03016841.3875932.05592175.4951287.22011329 1.22 1.96 3.82 6.63 4.29 11.54z" fill="#e8edfc"/><path id="Shape" d="m53.64 6c-.1075355-.16419154-.301189-.2502817-.4951287-.22011329-.1939398.0301684-.352292.17101499-.4048713.36011329-.1975747.73589426-.4448082 1.45754862-.74 2.16 1.5665552 2.855639 2.5841156 5.9795496 3 9.21.0687779.8575175-.4185067 1.6629466-1.21 2l-3.4 1.49.16.27c.2554722.4300736.7894338.605213 1.25.41l4.92-2.11c.7914933-.3370534 1.2787779-1.1424825 1.21-2-.47-4.97-3.07-9.64-4.29-11.57z" fill="#cad9fc"/></g><g id="Layer_3_copy" fill="#fff" transform="translate(1 5)"><path id="Shape" d="m17.5 36.25-1.23 3.08c-.160685.4026866-.0435759.8630464.29 1.14l4.59 3.82c.2187274.1802524.5036709.2592209.7839792.21727.2803082-.0419509.529648-.2008802.6860208-.43727l.45-.68-3.51-2.92c-.3335759-.2769536-.450685-.7373134-.29-1.14l1.23-3.08c.1177392-.2929551.3669139-.5131003.6721458-.5938391.3052318-.0807387.6306658-.0125868.8778542.1838391l.95.76c0-8.5.08-8.52-.32-8.88-3.34-3-6.31-7.26-5.86-11.72h-3c-.45 4.46 2.52 8.7 5.86 11.72.4.36.32.38.32 8.88l-.95-.76c-.2471884-.1964259-.5726224-.2645778-.8778542-.1838391-.3052319.0807388-.5544066.300884-.6721458.5938391z"/><path id="Shape" d="m7.45 16.25.15-.25h.06l-3.38-1.45c-.7914933-.3370534-1.27877795-1.1424825-1.21-2 .52215738-3.84327781 1.83289901-7.53718605 3.85-10.85-.35.37-.71.76-1 1.18-.2404338-.57655428-.44417355-1.16773358-.61-1.77-.05257932-.18909829-.21093154-.32994489-.40487127-.36011329-.19393972-.0301684-.38759321.05592175-.49512873.22011329-1.22 2-3.82 6.63-4.29 11.54-.06877795.8575175.4185067 1.6629466 1.21 2l4.87 2.15c.46056617.195213.99452783.0200736 1.25-.41z"/></g><path id="Shape" d="m7.59 22.74c.59465434-.0069283 1.1553827-.2781303 1.53-.74h4.67c.08 4.45 2.86 8.41 6.16 11.41.07.27.05.21.05 6.31-.987966-.2981693-2.0405821.2043142-2.43 1.16l-1.23 3.12c-.32137.8053732-.0871518 1.7260928.58 2.28l4.58 3.81c.436619.3649554 1.0080301.5266374 1.5711388.4445572.5631088-.0820803 1.0645899-.40015 1.3788612-.8745572l.8-1.19 2.35 1.73c1.4222222 1.0666667 3.3777778 1.0666667 4.8 0l2.36-1.77c.83 1.25 1.11 1.92 2.17 2.07.5587929.0800603 1.1253969-.079751 1.56-.44 5.33-4.44 4.52-3.73 4.6-3.83.6415518-.548568.8696268-1.4408617.57-2.23l-1.23-3.08c-.3742244-.9714847-1.4311336-1.4934152-2.43-1.2 0-6 0-6 0-6.31 3.27-3 6.08-6.94 6.16-11.41h4.67c.5598617.6852935 1.5035133.9212064 2.32.58l4.91-2.11c1.1852746-.507198 1.9139599-1.7149638 1.81-3-.5783659-4.2765745-2.0908017-8.37346609-4.43-12-.3253978-.52664518-.9409043-.79929066-1.5495883-.68640744s-1.0854953.588104-1.2004117 1.19640744c-2.6046089-2.72667439-5.8971618-4.6994422-9.53-5.71-.5337698-.13909912-1.1007141.02806565-1.4736312.43450335-.372917.4064377-.4907851.98564152-.3063688 1.50549665 0 .08.06.2.09.3-1.1354818-.96311002-2.4013206-1.76099249-3.76-2.37-.6287528-.22674291-1.3313243-.00076964-1.71.55l-5.29 7.94c-.1443473.23105562-.3975613.37143101-.67.37143101s-.5256527-.14037539-.67-.37143101l-5.3-7.89c-.3662085-.63858629-1.1483033-.90783204-1.83-.63-1.3586794.60900751-2.6245182 1.40688998-3.76 2.37 0-.11.07-.22.1-.3.1788083-.52134248.057306-1.09875275-.3164438-1.50382243-.3737499-.40506968-.9395391-.57254517-1.4735562-.43617757-3.6383092 1.02468621-6.93142068 3.0150663-9.53 5.76-.12403933-.60132479-.59983239-1.06767149-1.2035234-1.17962873s-1.21506494.15276939-1.5464766.66962873c-2.33919826 3.62653391-3.85163406 7.7234255-4.43 12-.10395995 1.2850362.62472537 2.492802 1.81 3 5.38 2.28 5.11 2.25 5.7 2.25zm.41-6.74c0-1.1045695.8954305-2 2-2s2 .8954305 2 2-.8954305 2-2 2-2-.8954305-2-2zm7.79 6c.4324699-.0810812.8261317-.302516 1.12-.63l.77 2.7c.2145842.7104292.6848758 1.3161077 1.32 1.7l-1.75 1.23c-.8926359-1.5202953-1.3942775-3.2382459-1.46-5zm19.8 12c.2-1.28.42-2.35.63-3.2.5620971.7890397 1.1946955 1.5253976 1.89 2.2-.075397.327927-.1123127.6635249-.11 1zm2.41 2v5.12l-1.93 1.54-1.07-1.06c0-1.91.14-3.78.34-5.6zm-3.09-11.14c-.3294419.0688711-.6714304-.032598-.91-.27l-3-3v-6.87l4.53-1.51c.52-.17.53-.06 3.75 1.55l2.4 4.2-1.29 4.52c-.24.85-1.11.72-2.06.89zm-2.33 1.14c.4688635.4622575 1.0767793.7574305 1.73.84.07.28.16.56.26.84-1.4069412.7726212-2.9677809 1.2234546-4.57 1.32-1.6010532-.0957502-3.1613577-.5430148-4.57-1.31.1-.29.2-.57.27-.85.6479972-.0902141 1.2504338-.3844273 1.72-.84l2.58-2.59zm1.78 4c-.8971487 3.723642-1.3536123 7.5398114-1.36 11.37l-2.57 1.29c-.2830476.1426286-.6169524.1426286-.9 0l-2.53-1.29c-.0085861-3.8294661-.4616172-7.6449952-1.35-11.37 1.3771597.5949798 2.8512689.9338554 4.35 1 1.5017878-.0673715 2.9789591-.4061723 4.36-1zm-5.36-8.41-3 3c-.2385696.237402-.5805581.3388711-.91.27l-4.66-.67c-.3890924-.0549963-.7099091-.3327766-.82-.71l-1.29-4.48 2.4-4.2c3.28-1.67 3.28-1.8 3.75-1.59l4.53 1.51zm-7 14.41h2.65c.2 1.82.32 3.69.34 5.6l-1.06 1.06-1.93-1.54zm-.11-3c.6969064-.6614885 1.3328093-1.3844097 1.9-2.16.2.85.42 1.92.62 3.19h-2.41c.0046809-.3464981-.03225-.6923052-.11-1.03zm-3.57-4.32 3.39-2.25 2 .28c-.6112848 1.7745974-1.6401873 3.3762556-3 4.67-.8717543-.8414244-1.6712356-1.7546395-2.39-2.73zm22.25 13 1.23 3.07-4.58 3.81-.79-1.2c-.3050115-.4590433-.7859331-.7718751-1.3292096-.8646296s-1.1007501.0427903-1.5407904.3746296l-2.36 1.73c-.7173939.5141394-1.6826061.5141394-2.4 0l-2.36-1.77c-.4406781-.3275463-.9966376-.4595131-1.5375096-.364955-.540872.094558-1.0190811.4073235-1.3224904.864955l-.79 1.19-4.59-3.82 1.23-3.08 3.25 2.6c.7932884.6364579 1.9379049.576215 2.66-.14l.86-.86 2.46 1.23c.8436856.4211982 1.8363144.4211982 2.68 0l2.46-1.23.86.85c.7208199.7251336 1.8724965.7898345 2.67.15zm-1.26-10.33c-1.3770001-1.2794545-2.4088572-2.8857121-3-4.67l2-.28 3.39 2.25c-.7200936.9649809-1.51954 1.8681212-2.39 2.7zm3.44-4.35-1.75-1.23c.6490162-.4007371 1.1210159-1.0336458 1.32-1.77l.77-2.7c.2938683.327484.6875301.5489188 1.12.63-.0541495 1.7856392-.5561927 3.5290355-1.46 5.07zm7.25-9c-1.1045695 0-2-.8954305-2-2s.8954305-2 2-2 2 .8954305 2 2-.8954305 2-2 2zm4.37-10.54c1.8583923 3.1089271 3.0692986 6.5613705 3.56 10.15.033601.4300031-.2122871.8330984-.61 1l-4.91 2.11-.69-1.14c1.3631848-.6746328 2.225803-2.0640128 2.225803-3.585s-.8626182-2.9103672-2.225803-3.585c1.1247336-1.5089376 2.0179101-3.17732382 2.65-4.95zm-10.79-5c3.257155 1.0898943 6.1640287 3.03011167 8.42 5.62-.6216277 1.4456034-1.4503103 2.7930547-2.46 4-1.9528994.3196747-3.3785264 2.0192955-3.3535108 3.9980279.0250156 1.9787325 1.493154 3.6417696 3.4535108 3.9119721h-5.06l-3.42-6c2.08-3.47 3.37-7.61 2.42-11.56zm-21-.3 5 7.53c.5039463.8200601 1.3974719 1.3197242 2.36 1.3197242s1.8560537-.4996641 2.36-1.3197242l5-7.57c1.6197742.90529074 3.1240425 2.00327231 4.48 3.27-.1335798 2.58187176-.9141751 5.0887176-2.27 7.29l-2.42-1.21c-.7105799-.3581258-1.534329-.4192775-2.29-.17l-4.8 1.7-4.9-1.64c-.755671-.2492775-1.5794201-.1881258-2.29.17l-2.42 1.21c-1.3558249-2.2012824-2.1364202-4.70812824-2.27-7.29 1.3531609-1.28426201 2.8575472-2.39911973 4.48-3.32zm-6.18.3c-1 4 .35 8.11 2.42 11.59l-3.42 6h-5.03c1.9603568-.2702025 3.4284952-1.9332396 3.4535108-3.9119721.0250156-1.9787324-1.4006114-3.6783532-3.3535108-3.9980279-1.00968972-1.2069453-1.8383723-2.5543966-2.46-4 2.2420644-2.62138835 5.1463478-4.59326208 8.41-5.71zm-14.33 15.15c.49070141-3.5886295 1.70160766-7.0410729 3.56-10.15.61639901 1.78723529 1.49608933 3.4724658 2.61 5-1.36318482.6746328-2.225803 2.0640128-2.225803 3.585s.86261818 2.9103672 2.225803 3.585l-.69 1.14-4.87-2.14c-.40523603-.1691834-.65268134-.5829444-.61-1.02z" fill="#428dff"/></g></svg>