<svg height="512pt" viewBox="0 -46 512 511" width="512pt" xmlns="http://www.w3.org/2000/svg"><path d="m256 118.882812c-105.46875 0-198.820312 42.121094-256 106.789063 57.179688 64.664063 150.53125 106.789063 256 106.789063 105.464844 0 198.816406-42.125 255.996094-106.789063-57.179688-64.667969-150.53125-106.789063-255.996094-106.789063zm0 0" fill="#e3f4fc"/><path d="m512 225.679688c-.199219.230468-.40625.460937-.617188.679687-64.761718-40.824219-155.238281-66.183594-255.382812-66.183594-100.140625 0-190.628906 25.359375-255.378906 66.183594-.210938-.21875-.417969-.449219-.61718775-.679687 57.17578175-64.667969 150.52734375-106.796876 255.99609375-106.796876 105.460938 0 198.824219 42.128907 256 106.796876zm0 0" fill="#bdd9e5"/><path d="m378.09375 210.359375c0 67.4375-54.667969 122.105469-122.09375 122.105469-67.4375 0-122.109375-54.667969-122.109375-122.105469 0-30.804687 11.402344-58.933594 30.210937-80.40625l.007813-.007813c29.070313-7.203124 59.925781-11.066406 91.890625-11.066406 31.960938 0 62.808594 3.863282 91.867188 11.066406 18.828124 21.46875 30.226562 49.609376 30.226562 80.414063zm0 0" fill="#34abe0"/><path d="m164.09375 129.957031c-10.628906 12.132813-18.886719 26.398438-24.066406 42.066407 36.355468-7.679688 75.371094-11.847657 115.972656-11.847657 40.59375 0 79.597656 4.167969 115.949219 11.84375-5.175781-15.671875-13.441407-29.9375-24.082031-42.070312-29.066407-7.195313-59.910157-11.070313-91.867188-11.070313-31.972656.003906-62.828125 3.878906-91.90625 11.078125zm0 0" fill="#1895b7"/><path d="m308.40625 210.359375c0 28.945313-23.464844 52.410156-52.40625 52.410156-28.945312 0-52.410156-23.464843-52.410156-52.410156s23.464844-52.410156 52.410156-52.410156c28.941406 0 52.40625 23.464843 52.40625 52.410156zm0 0" fill="#3b3d4c"/><path d="m53.976562 420.21875c-2.003906 0-4.011718-.765625-5.542968-2.296875-3.058594-3.0625-3.058594-8.023437 0-11.082031l404.046875-404.042969c3.058593-3.0625 8.019531-3.0625 11.082031 0 3.058594 3.058594 3.058594 8.019531 0 11.082031l-404.042969 404.042969c-1.53125 1.53125-3.539062 2.296875-5.542969 2.296875zm0 0" fill="#f75772"/></svg>