<svg height="511pt" viewBox="-25 0 511 511.93837" width="511pt" xmlns="http://www.w3.org/2000/svg"><path d="m384.484375 460.828125c0 11.316406-4.496094 22.167969-12.5 30.171875-8 8-18.851563 12.496094-30.167969 12.496094-4.335937-.015625-8.644531-.644532-12.800781-1.878906-17.785156-5.628907-29.871094-22.132813-29.867187-40.789063-.027344-.773437.03125-1.542969.171874-2.304687l49.066407-25.597657 15.957031-8.277343c12.535156 7.75 20.160156 21.441406 20.140625 36.179687zm0 0" fill="#37474f"/><path d="m358.882812 460.828125c.003907 18.65625-12.082031 35.160156-29.867187 40.789063-17.785156-5.628907-29.871094-22.132813-29.867187-40.789063-.027344-.773437.03125-1.542969.171874-2.304687l49.066407-25.597657c6.78125 7.710938 10.511719 17.632813 10.496093 27.902344zm0 0" fill="#607d8b"/><path d="m452.75 247.496094c0 58.84375-23.375 115.273437-64.984375 156.882812s-98.039063 64.984375-156.882813 64.984375c-4.265624 0-8.535156-.085937-12.800781-.34375-75.140625-4.324219-142.960937-46.457031-180.128906-111.902343-37.171875-65.441407-38.621094-145.269532-3.847656-212.023438l130.898437-19.539062 2.132813-.34375 211.800781 2.816406 48.722656 17.066406c16.539063 31.597656 25.148438 66.738281 25.089844 102.402344zm0 0"/><path d="m452.75 119.496094c0 14.136718-11.460938 25.597656-25.601562 25.597656h-392.53125c-14.140626 0-25.601563-11.460938-25.601563-25.597656 0-14.140625 11.460937-25.601563 25.601563-25.601563h392.53125c14.140624 0 25.601562 11.460938 25.601562 25.601563zm0 0" fill="#37474f"/><path d="m427.148438 247.496094c.015624 117.570312-91.6875 214.742187-209.066407 221.523437-75.140625-4.324219-142.960937-46.457031-180.128906-111.902343-37.171875-65.441407-38.621094-145.269532-3.847656-212.023438l130.898437-19.539062 188.332032 2.472656 48.726562 17.066406c16.535156 31.597656 25.148438 66.738281 25.085938 102.402344zm0 0" fill="#37474f"/><path d="m427.148438 119.496094c0 14.136718-11.460938 25.597656-25.597657 25.597656h-366.933593c-14.140626 0-25.601563-11.460938-25.601563-25.597656 0-14.140625 11.460937-25.601563 25.601563-25.601563h366.933593c14.136719 0 25.597657 11.460938 25.597657 25.601563zm0 0" fill="#607d8b"/><path d="m341.816406 85.363281c.019532 2.914063-.503906 5.804688-1.535156 8.53125l-66.730469 17.332031c2.898438-5.035156 16-28.160156 16-34.398437 0-3.15625 9.171875-6.3125 8.320313-9.214844 4.757812-5.054687 11.402344-7.898437 18.34375-7.851562 14.140625 0 25.601562 11.460937 25.601562 25.601562zm0 0" fill="#ad1457"/><path d="m194.617188 84.296875c0 1.703125 4.992187 5.84375 5.332031 7.464844v4.804687c-1.109375 1.363282-1.921875 5.375-3.199219 6.398438l-55.203125-2.667969c-1.535156-1.28125-28.585937-4.78125-29.867187-6.402344 6.144531-8.363281 33.871093-23.039062 33.871093-34.132812.027344-6.367188-1.160156-12.679688-3.5-18.601563 5.886719-4.558594 13.121094-7.019531 20.566407-7 18.128906-.03125 33.101562 14.152344 34.046874 32.257813-5.207031 4.609375-2.046874 10.367187-2.046874 17.878906zm0 0" fill="#ad1457"/><path d="m162.445312 458.523438c.140626.761718.199219 1.53125.171876 2.304687.023437 20.539063-14.585938 38.179687-34.765626 41.980469-20.183593 3.804687-40.210937-7.308594-47.664062-26.449219-7.449219-19.136719-.207031-40.867187 17.234375-51.710937zm0 0" fill="#607d8b"/><path d="m427.148438 93.894531c-28.277344 0-51.199219 22.921875-51.199219 51.199219v85.335938c0 18.851562-15.28125 34.132812-34.132813 34.132812-4.398437.03125-8.753906-.839844-12.800781-2.5625-4.230469-1.707031-8.089844-4.230469-11.347656-7.421875-6.382813-6.421875-9.96875-15.097656-9.984375-24.148437.011718-9.058594-3.582032-17.746094-9.984375-24.148438-6.40625-6.40625-15.09375-9.996094-24.148438-9.984375-4.398437-.035156-8.753906.835937-12.800781 2.558594-4.234375 1.707031-8.089844 4.230469-11.351562 7.421875-6.378907 6.421875-9.964844 15.101562-9.984376 24.152344v34.132812c0 18.851562-15.28125 34.132812-34.132812 34.132812-4.394531.035157-8.753906-.835937-12.796875-2.558593-4.234375-1.710938-8.089844-4.230469-11.351563-7.425781-6.378906-6.417969-9.96875-15.097657-9.984374-24.148438v-119.46875c-.042969-28.257812-22.941407-51.15625-51.199219-51.199219zm0 0" fill="#ad1457"/><g fill="#e91e63"><path d="m401.550781 93.894531c-28.277343 0-51.203125 22.921875-51.203125 51.199219v85.335938c.023438 13.898437-8.425781 26.40625-21.332031 31.570312-4.230469-1.707031-8.089844-4.230469-11.347656-7.421875-6.382813-6.421875-9.96875-15.097656-9.984375-24.148437.011718-9.058594-3.582032-17.746094-9.984375-24.148438-6.40625-6.40625-15.09375-9.996094-24.148438-9.984375-4.398437-.035156-8.753906.835937-12.800781 2.558594-4.046875-1.722657-8.402344-2.59375-12.800781-2.558594-9.054688-.011719-17.746094 3.578125-24.148438 9.984375-6.402343 6.402344-9.996093 15.089844-9.984375 24.148438v34.132812c.023438 13.898438-8.429687 26.410156-21.332031 31.574219-4.234375-1.710938-8.089844-4.230469-11.351563-7.425781-6.378906-6.417969-9.96875-15.097657-9.984374-24.148438v-119.46875c-.042969-28.257812-22.941407-51.15625-51.199219-51.199219zm0 0"/><path d="m145.550781 59.761719c.046875 10.703125-3.332031 21.140625-9.644531 29.78125-1.042969 1.542969-2.214844 3-3.5 4.351562h-76.117188c-8.480468-9.339843-13.167968-21.515625-13.140624-34.132812 0-24.628907 17.535156-45.765625 41.738281-50.320313 24.203125-4.550781 48.214843 8.773438 57.164062 31.71875 2.339844 5.921875 3.527344 12.234375 3.5 18.601563zm0 0"/><path d="m299.148438 76.828125c-.003907 5.996094-1.59375 11.882813-4.605469 17.066406l-29.527344 12.800781-27.136719-12.800781c1.023438-2.644531-3.796875-5.015625-3.796875-7.996093 0-6.910157 2.5625-13.652344-1.917969-18.285157v-.085937c4.164063-14.707032 17.597657-24.851563 32.882813-24.832032 15.285156.019532 28.695313 10.199219 32.824219 24.917969.859375 2.996094 1.289062 6.097657 1.277344 9.214844zm0 0"/></g><path d="m239.414062 85.363281c.019532 2.914063-.5 5.804688-1.535156 8.53125h-48.128906c-.507812-1.140625-.851562-2.347656-1.023438-3.582031v-.085938c-.34375-1.597656-.511718-3.230468-.511718-4.863281.007812-10.414062 6.324218-19.789062 15.972656-23.703125 9.652344-3.917968 20.710938-1.597656 27.976562 5.867188v.085937c4.664063 4.726563 7.269532 11.105469 7.25 17.75zm0 0" fill="#ad1457"/><path d="m83.792969 424.679688c-9.652344 9.550781-15.070313 22.570312-15.042969 36.148437.1875 26.398437 20.414062 48.324219 46.710938 50.636719 26.296874 2.3125 50.039062-15.746094 54.835937-41.703125 39.644531 10.84375 81.476563 10.84375 121.121094 0 4.671875 26.089843 28.480469 44.300781 54.882812 41.976562 26.402344-2.320312 46.667969-24.40625 46.714844-50.910156.027344-13.578125-5.394531-26.597656-15.042969-36.148437 80.410156-66.535157 105.898438-178.890626 62.070313-273.609376 15.066406-6.191406 23.660156-22.164062 20.523437-38.148437-3.132812-15.984375-17.128906-27.523437-33.417968-27.558594h-76.800782c.082032-11.773437-5.949218-22.746093-15.933594-28.984375-9.984374-6.238281-22.492187-6.851562-33.039062-1.617187-7.652344-12.78125-21.457031-20.605469-36.355469-20.605469-14.898437 0-28.703125 7.824219-36.355469 20.605469-8.175781-4.144531-17.707031-4.683594-26.300781-1.492188-3.984375-10.980469-12.363281-19.800781-23.121093-24.347656-10.757813-4.542969-22.921876-4.40625-33.574219.382813-13.699219-23.160157-41.203125-34.292969-67.15625-27.175782-25.949219 7.117188-43.929688 30.722656-43.894531 57.632813 0 8.859375 1.988281 17.609375 5.820312 25.601562h-5.820312c-16.289063.039063-30.277344 11.582031-33.414063 27.5625-3.132813 15.984375 5.460937 31.953125 20.527344 38.144531-43.824219 94.71875-18.339844 207.074219 62.0625 273.621094zm36.15625 70.28125c-18.851563 0-34.132813-15.28125-34.132813-34.132813-.011718-9.832031 4.265625-19.175781 11.707032-25.597656 17.28125 12.332031 36.191406 22.214843 56.183593 29.359375-1.882812 17.242187-16.414062 30.316406-33.757812 30.371094zm256-34.132813c.082031 18.132813-14.0625 33.140625-32.167969 34.132813-18.101562.992187-33.804688-12.382813-35.707031-30.410157 19.988281-7.132812 38.890625-17 56.167969-29.320312 7.441406 6.421875 11.71875 15.765625 11.707031 25.597656zm-145.066407 0c-117.765624-.132813-213.203124-95.566406-213.332031-213.332031-.117187-32.558594 7.34375-64.691406 21.792969-93.867188h123.273438v110.933594c0 23.5625 19.101562 42.667969 42.664062 42.667969 23.566406 0 42.667969-19.105469 42.667969-42.667969v-34.132812c0-14.140626 11.460937-25.601563 25.601562-25.601563 14.136719 0 25.597657 11.460937 25.597657 25.601563 0 23.5625 19.101562 42.664062 42.667968 42.664062 23.5625 0 42.667969-19.101562 42.667969-42.664062v-76.800782h37.9375c14.449219 29.175782 21.910156 61.308594 21.792969 93.867188-.128906 117.765625-95.566406 213.199218-213.332032 213.332031zm213.332032-341.332031c0 9.425781-7.640625 17.066406-17.066406 17.066406h-41.8125c4.082031-19.851562 21.546874-34.109375 41.8125-34.132812 9.425781 0 17.066406 7.640624 17.066406 17.066406zm-58.878906-17.066406c-11.480469 11.222656-17.941407 26.609374-17.921876 42.664062v85.335938c0 14.136718-11.460937 25.597656-25.597656 25.597656-14.140625 0-25.601562-11.460938-25.601562-25.597656 0-23.566407-19.101563-42.667969-42.664063-42.667969-23.566406 0-42.667969 19.101562-42.667969 42.667969v34.132812c0 14.136719-11.460937 25.597656-25.601562 25.597656-14.136719 0-25.597656-11.460937-25.597656-25.597656v-119.46875c.019531-16.054688-6.441406-31.441406-17.921875-42.664062h223.660156zm-52.054688-17.066407h-26.570312c.617187-2.804687.941406-5.664062.972656-8.535156 0-1.996094-.132813-3.992187-.402344-5.972656 2.679688-1.675781 5.773438-2.5625 8.933594-2.558594 9.425781 0 17.066406 7.640625 17.066406 17.066406zm-68.265625-34.132812c11.5.019531 21.582031 7.691406 24.671875 18.769531.628906 2.222656.941406 4.519531.929688 6.828125 0 2.910156-.503907 5.796875-1.484376 8.535156h-41.183593c.019531-6.945312-2.113281-13.722656-6.101563-19.40625 4.242188-8.960937 13.253906-14.691406 23.167969-14.726562zm-39.074219 22.183593c.050782.0625.078125.144532.136719.207032 3.078125 3.132812 4.804687 7.347656 4.804687 11.742187h-34.132812c-.019531-4.824219 2.039062-9.421875 5.648438-12.621093 6.839843-5.902344 17.050781-5.609376 23.542968.671874zm-38.28125-9.71875c-5.117187 6.0625-7.945312 13.730469-7.976562 21.667969h-31.464844c3.859375-7.984375 5.863281-16.734375 5.863281-25.601562-.007812-4.972657-.640625-9.929688-1.886719-14.746094 3.265626-1.519531 6.820313-2.3125 10.421876-2.320313 12.332031.003907 22.890624 8.855469 25.042968 21zm-135.976562-3.933593c.003906-20.527344 14.628906-38.140625 34.804687-41.925781 20.175781-3.78125 40.1875 7.339843 47.625 26.472656 5.273438 13.515625 3.273438 28.792968-5.296875 40.5-.128906.195312-.316406.355468-.453125.554687h-67.847656c-5.6875-7.328125-8.792969-16.328125-8.832031-25.601562zm-29.125 47.675781c3.1875-3.214844 7.53125-5.015625 12.058594-5.007812h85.332031c20.269531.023437 37.730469 14.28125 41.8125 34.132812h-127.144531c-6.898438-.007812-13.109376-4.167969-15.75-10.539062-2.636719-6.371094-1.179688-13.707032 3.691406-18.585938zm0 0"/><path d="m52.460938 230.617188c.492187-5.480469 1.269531-11.027344 2.285156-16.480469 1.015625-5.449219 2.320312-10.859375 3.832031-16.101563 1.511719-5.238281 3.300781-10.539062 5.332031-15.683594 1.726563-4.386718-.433594-9.34375-4.820312-11.066406-4.386719-1.726562-9.34375.433594-11.066406 4.820313-2.210938 5.648437-4.191407 11.433593-5.847657 17.203125-1.65625 5.769531-3.070312 11.699218-4.199219 17.671875-1.125 5.972656-1.96875 12.074219-2.515624 18.066406-.546876 5.988281-.84375 12.234375-.84375 18.449219 0 4.710937 3.820312 8.53125 8.53125 8.53125 4.714843 0 8.535156-3.820313 8.535156-8.53125 0-5.683594.253906-11.359375.777344-16.878906zm0 0"/><path d="m65.78125 317.167969c-1.140625-2.878907-3.75-4.914063-6.824219-5.320313-3.070312-.402344-6.117187.886719-7.964843 3.375-1.847657 2.488282-2.199219 5.78125-.921876 8.601563 9.867188 23.320312 24.164063 44.507812 42.09375 62.390625 2.144532 2.214844 5.316407 3.105468 8.300782 2.324218 2.980468-.78125 5.3125-3.109374 6.09375-6.09375.78125-2.984374-.109375-6.15625-2.328125-8.296874-16.375-16.335938-29.429688-35.683594-38.449219-56.980469zm0 0"/><path d="m333.28125 136.5625v42.667969c0 4.710937 3.820312 8.53125 8.535156 8.53125 4.710938 0 8.53125-3.820313 8.53125-8.53125v-42.667969c0-4.714844-3.820312-8.535156-8.53125-8.535156-4.714844 0-8.535156 3.820312-8.535156 8.535156zm0 0"/><path d="m205.28125 128.027344c-4.710938 0-8.53125 3.820312-8.53125 8.535156v51.199219c0 4.714843 3.820312 8.535156 8.53125 8.535156 4.714844 0 8.535156-3.820313 8.535156-8.535156v-51.199219c0-4.714844-3.820312-8.535156-8.535156-8.535156zm0 0"/><path d="m273.550781 119.496094c-4.714843 0-8.535156 3.820312-8.535156 8.53125v17.066406c0 4.714844 3.820313 8.535156 8.535156 8.535156 4.710938 0 8.53125-3.820312 8.53125-8.535156v-17.066406c0-4.710938-3.820312-8.53125-8.53125-8.53125zm0 0"/><path d="m128.484375 401.09375c0 4.714844-3.824219 8.535156-8.535156 8.535156-4.710938 0-8.535157-3.820312-8.535157-8.535156 0-4.710938 3.824219-8.53125 8.535157-8.53125 4.710937 0 8.535156 3.820312 8.535156 8.53125zm0 0"/></svg>