<svg height="512pt" viewBox="0 0 512 512" width="512pt" xmlns="http://www.w3.org/2000/svg"><g fill="#6ad9eb"><path d="m169.453125 476.855469c-26.464844 0-47.996094-21.53125-47.996094-48 0-26.464844 21.53125-47.996094 47.996094-47.996094s47.996094 21.53125 47.996094 47.996094c0 26.46875-21.53125 48-47.996094 48zm0 0"/><path d="m82.117188 512c-16.542969 0-30-13.457031-30-30s13.457031-30 30-30c16.539062 0 30 13.457031 30 30s-13.460938 30-30 30zm0 0"/><path d="m224.105469 362.148438c-28.214844 0-53.703125-15.015626-67.457031-38.996094h-43.011719c-62.660157 0-113.636719-50.980469-113.636719-113.640625 0-62.660157 50.976562-113.636719 113.636719-113.636719 5.179687 0 10.34375.347656 15.449219 1.042969 25.503906-58.472657 83.46875-96.917969 148.117187-96.917969 40.171875 0 78.683594 14.84375 108.433594 41.792969 26.628906 24.121093 44.332031 56.140625 50.601562 91.140625 19.238281 4.171875 36.789063 14.175781 50.316407 28.863281 16.394531 17.796875 25.421874 40.929687 25.421874 65.140625 0 53.054688-43.160156 96.214844-96.210937 96.214844h-124.203125c-13.757812 23.980468-39.246094 38.996094-67.457031 38.996094zm0 0"/></g><path d="m436.238281 132.933594c-6.269531-35-23.972656-67.019532-50.601562-91.140625-29.75-26.949219-68.261719-41.792969-108.433594-41.792969-18.445313 0-36.339844 3.140625-53.097656 8.972656v353.175782c28.210937 0 53.699219-15.015626 67.457031-38.996094h124.199219c53.054687 0 96.214843-43.164063 96.214843-96.214844 0-24.210938-9.03125-47.34375-25.421874-65.144531-13.527344-14.683594-31.078126-24.6875-50.316407-28.859375zm0 0" fill="#28c1d1"/><path d="m150.203125 234.320312c3.839844 0 7.039063 4.480469 7.039063 10.082032 0 5.277344-2.71875 9.917968-7.039063 9.917968h-51.359375c-6.082031 0-8.160156-4.640624-8.160156-8.636718 0-4 2.238281-7.523438 4.320312-10.242188l28.320313-37.28125h-24.480469c-3.839844 0-7.039062-4.480468-7.039062-10.078125 0-5.28125 2.71875-9.921875 7.039062-9.921875h47.839844c4 0 7.679687 2.558594 7.679687 8.160156 0 3.519532-1.441406 7.359376-4 10.71875l-28.480469 37.28125zm0 0" fill="#fff"/><path d="m250.40625 175.074219c4.078125 0 7.480469 4.761719 7.480469 10.710937 0 5.609375-2.890625 10.539063-7.480469 10.539063h-54.570312c-6.457032 0-8.667969-4.929688-8.667969-9.179688s2.378906-7.988281 4.589843-10.878906l30.089844-39.609375h-26.011718c-4.078126 0-7.476563-4.761719-7.476563-10.710938 0-5.609374 2.886719-10.539062 7.476563-10.539062h50.828124c4.25 0 8.160157 2.722656 8.160157 8.671875 0 3.738281-1.527344 7.816406-4.25 11.390625l-30.257813 39.605469zm0 0" fill="#fff"/><path d="m324.460938 232.867188h46.238281c5.097656 0 7.988281 6.121093 7.988281 11.558593 0 5.441407-2.890625 11.5625-7.988281 11.5625h-72.417969c-5.441406 0-7.652344-2.890625-7.652344-6.972656 0-2.71875 1.019532-6.117187 2.890625-9.347656l47.9375-84.828125h-39.4375c-5.097656 0-7.988281-5.441406-7.988281-11.5625 0-5.609375 2.378906-11.558594 7.988281-11.558594h65.617188c5.101562 0 7.652343 2.890625 7.652343 6.96875 0 2.722656-1.019531 5.949219-2.890624 9.351562zm0 0" fill="#f0f6fe"/><path d="m250.40625 175.074219h-26.300781v21.25h26.300781c4.589844 0 7.480469-4.929688 7.480469-10.539063 0-5.949218-3.402344-10.710937-7.480469-10.710937zm0 0" fill="#f0f6fe"/><path d="m254.824219 124.078125c0-5.949219-3.910157-8.671875-8.160157-8.671875h-22.558593v54.710938l26.46875-34.648438c2.722656-3.574219 4.25-7.652344 4.25-11.390625zm0 0" fill="#f0f6fe"/></svg>