<?xml version="1.0" encoding="iso-8859-1"?>
<!-- Generator: Adobe Illustrator 21.0.0, SVG Export Plug-In . SVG Version: 6.00 Build 0)  -->
<svg xmlns="http://www.w3.org/2000/svg" xmlns:xlink="http://www.w3.org/1999/xlink" version="1.1" id="Capa_1" x="0px" y="0px" viewBox="0 0 512 512" style="enable-background:new 0 0 512 512;" xml:space="preserve" width="512" height="512">
<g>
	<path style="fill:#FDBF00;" d="M359.801,200.901c-12.301,27.9-22.202,59.2-29.401,91.298c-1.8-0.298-68.699-34.499-68.699-34.499   l-5.7,2.401l-74.399,32.098c-7.2-32.098-17.1-63.399-29.401-91.298c-2.1-4.501-1.5-9.901,1.201-14.101   c2.699-4.2,7.5-6.899,12.599-6.899c12.001,0,24-3.9,34.501-10.8c4.799-3.301,11.1-3.602,16.199-0.601   c12.299,7.5,25.8,11.4,39.3,11.4s27.001-3.9,39.3-11.4c5.099-3.001,11.4-2.701,16.199,0.601C322,176,333.999,179.9,346,179.9   c5.099,0,9.901,2.699,12.599,6.899C361.3,191,361.901,196.4,359.801,200.901z"/>
	<path style="fill:#FFB99C;" d="M388.805,496.9c1.318-4.883,2.195-9.818,2.195-15c0-33.091-26.909-61-60-61   c-12.7,0-24.668,3.823-35.552,11.382c-4.263,2.959-6.694,8.203-6.431,13.389c0.837,15.881,2.792,33.397,5.817,51.229H388.805z"/>
	<path style="fill:#FFCEBF;" d="M217.163,496.9c3.027-17.838,4.982-35.382,5.834-52.006v-0.293c0-4.922-2.417-9.521-6.445-12.319   C205.668,424.724,193.7,420.9,181,420.9c-33.091,0-60,27.909-60,61c0,5.182,0.877,10.117,2.195,15H217.163z"/>
	<path style="fill:#FDBF00;" d="M324.699,494.2c0.3,0.901,0,1.8,0,2.701H187.301c0-0.901-0.3-1.8,0-2.701   c2.999-17.401,4.799-34.6,5.7-50.2c2.098-26.1,2.098-50.7,0-76.199h125.999c-2.098,25.499-2.098,50.099,0,75.601   C319.9,459.6,321.7,476.799,324.699,494.2z"/>
	<path style="fill:#FF9100;" d="M359.801,200.901c-12.301,27.9-22.202,59.2-29.401,91.298c-1.8-0.298-68.699-34.499-68.699-34.499   l-5.7,2.401v-80.2c13.5,0,27.001-3.9,39.3-11.4c5.099-3.001,11.4-2.701,16.199,0.601C322,176,333.999,179.9,346,179.9   c5.099,0,9.901,2.699,12.599,6.899C361.3,191,361.901,196.4,359.801,200.901z"/>
	<path style="fill:#FF9100;" d="M324.699,494.2c0.3,0.901,0,1.8,0,2.701H256V367.8h62.999c-2.098,25.499-2.098,50.099,0,75.601   C319.9,459.6,321.7,476.799,324.699,494.2z"/>
	<g>
		<path style="fill:#FFCEBF;" d="M473.899,90.499c-11.699-20.999-36.4-33.6-60.7-30C393.1,37.4,361.601,25.4,330.399,31.4    C310.6,11.3,283.299,0.1,256,0.1S201.4,11.3,181.601,31.4c-31.201-6-62.401,6-82.8,29.099c-24.3-3.6-49.001,9.001-60.7,30    C16.5,93.8,0,112.4,0,134.9c0,24.899,20.099,45,45,45c7.2,0,14.399-1.8,20.7-5.101c9.901,4.501,22,6,33.1,4.501    c26.7,30.601,74.099,39.3,110.4,19.501c15,7.5,30.899,11.1,46.8,11.1s31.8-3.6,46.8-11.1C316,206,331,209.9,346,209.9    c25.8,0,50.4-11.4,67.2-30.601c11.1,1.5,23.2,0,33.1-4.501c6.301,3.301,13.5,5.101,20.7,5.101c24.901,0,45-20.101,45-45    C512,112.4,495.5,93.8,473.899,90.499z"/>
	</g>
	<g>
		<g>
			<path style="fill:#FFCEBF;" d="M382.899,301.499c-12.599-22.798-40.8-35.099-65.7-28.799C303.1,252.899,280.3,240.9,256,240.9     s-47.1,11.999-61.199,31.8c-26.1-6.601-53.101,6.299-65.7,28.799C107.5,304.8,91,323.4,91,345.9c0,24.899,20.099,45,45,45     c7.2,0,14.399-1.8,20.7-5.101c19.2,8.401,42.001,6.301,59.399-6.599c12.001,7.5,26.1,11.4,39.901,11.4s27.9-3.9,39.901-11.4     c17.399,12.9,40.199,15,59.399,6.599c6.301,3.301,13.5,5.101,20.7,5.101c24.901,0,45-20.101,45-45     C421,323.4,404.5,304.8,382.899,301.499z"/>
		</g>
	</g>
	<path style="fill:#FFB99C;" d="M421,345.9c0,24.899-20.099,45-45,45c-7.2,0-14.399-1.8-20.7-5.101   c-19.2,8.401-42.001,6.301-59.399-6.599c-12.001,7.5-26.1,11.4-39.901,11.4V240.9c24.3,0,47.1,11.999,61.199,31.8   c24.901-6.301,53.101,6,65.7,28.799C404.5,304.8,421,323.4,421,345.9z"/>
	<path style="fill:#FFB99C;" d="M512,134.9c0,24.899-20.099,45-45,45c-7.2,0-14.399-1.8-20.7-5.101c-9.901,4.501-22,6-33.1,4.501   C396.4,198.5,371.8,209.9,346,209.9c-15,0-30-3.9-43.2-11.1c-15,7.5-30.899,11.1-46.8,11.1V0.1c27.299,0,54.6,11.201,74.399,31.3   c31.201-6,62.701,6,82.8,29.099c24.3-3.6,49.001,9.001,60.7,30C495.5,93.8,512,112.4,512,134.9z"/>
	<path style="fill:#FFCEBF;" d="M271,435.9v61h-30v-61c0-8.401,6.599-15,15-15S271,427.499,271,435.9z"/>
	<path style="fill:#FFB99C;" d="M271,435.9v61h-15v-76C264.401,420.9,271,427.499,271,435.9z"/>
	<g>
		<g>
			<g>
				<path style="fill:#FF9100;" d="M76,450.9H46c-8.291,0-15-6.709-15-15s6.709-15,15-15h30c8.291,0,15,6.709,15,15      S84.291,450.9,76,450.9z"/>
			</g>
		</g>
	</g>
	<g>
		<g>
			<g>
				<path style="fill:#FF641A;" d="M436,450.9h-30c-8.291,0-15-6.709-15-15s6.709-15,15-15h30c8.291,0,15,6.709,15,15      S444.291,450.9,436,450.9z"/>
			</g>
		</g>
	</g>
	<g>
		<g>
			<g>
				<path style="fill:#FF9100;" d="M106,270.9H76c-8.291,0-15-6.709-15-15s6.709-15,15-15h30c8.291,0,15,6.709,15,15      S114.291,270.9,106,270.9z"/>
			</g>
		</g>
	</g>
	<g>
		<path style="fill:#FF641A;" d="M436,270.9h-30c-8.291,0-15-6.709-15-15s6.709-15,15-15h30c8.291,0,15,6.709,15,15    S444.291,270.9,436,270.9z"/>
	</g>
	<g>
		<g>
			<g>
				<path style="fill:#FF9100;" d="M512,496.9c0,8.399-6.599,15-15,15H15c-8.401,0-15-6.601-15-15c0-8.401,6.599-15,15-15h482      C505.401,481.9,512,488.499,512,496.9z"/>
			</g>
		</g>
	</g>
	<path style="fill:#FF641A;" d="M512,496.9c0,8.399-6.599,15-15,15H256v-30h241C505.401,481.9,512,488.499,512,496.9z"/>
</g>















</svg>
