<?xml version="1.0" encoding="iso-8859-1"?>
<!-- Generator: Adobe Illustrator 18.0.0, SVG Export Plug-In . SVG Version: 6.00 Build 0)  -->
<!DOCTYPE svg PUBLIC "-//W3C//DTD SVG 1.1//EN" "http://www.w3.org/Graphics/SVG/1.1/DTD/svg11.dtd">
<svg version="1.1" id="Capa_1" xmlns="http://www.w3.org/2000/svg" xmlns:xlink="http://www.w3.org/1999/xlink" x="0px" y="0px"
	 viewBox="0 0 297.033 297.033" style="enable-background:new 0 0 297.033 297.033;" xml:space="preserve">
<g>
	<g>
		<path style="fill:#9BB1BC;" d="M296.448,3.192L86.942,224.669c-0.495,0.523-1.324,0.535-1.833,0.025l-12.793-12.793
			c-0.509-0.509-0.498-1.338,0.025-1.833L293.819,0.562C295.571-1.095,298.106,1.439,296.448,3.192z"/>
	</g>
	<g>
		<path style="fill:#3C5768;" d="M7.53,293.642l-4.161-4.161c-4.491-4.491-4.491-11.772,0-16.263l42.347-42.347
			c4.491-4.491,11.772-4.491,16.263,0l4.161,4.161c4.491,4.491,4.491,11.772,0,16.263l-42.347,42.347
			C19.302,298.133,12.021,298.133,7.53,293.642z"/>
	</g>
	<g>
		<path style="fill:#8FA6B4;" d="M4.841,217.69c-3.802-3.802-3.359-10.148,1.006-13.287c24.292-17.465,58.347-15.276,80.191,6.568
			c21.844,21.844,24.033,55.899,6.568,80.191c-3.139,4.366-9.485,4.808-13.287,1.006L4.841,217.69z"/>
	</g>
	<g style="opacity:0.35;">
		<path style="fill:#405563;" d="M22.171,224.175c22.445-16.137,53.217-15.481,74.998,1.94c-2.851-5.448-6.554-10.566-11.131-15.144
			c-21.844-21.844-55.899-24.033-80.191-6.568c-4.366,3.139-4.808,9.485-1.006,13.287l13.746,13.746
			C18.521,228.683,19.732,225.929,22.171,224.175z"/>
	</g>
	<g>
		<path style="fill:#69828E;" d="M0.585,3.192l209.506,221.478c0.495,0.523,1.324,0.535,1.833,0.025l12.793-12.793
			c0.509-0.509,0.498-1.338-0.025-1.833L3.214,0.562C1.462-1.095-1.072,1.439,0.585,3.192z"/>
	</g>
	<g>
		<path style="fill:#3C5768;" d="M289.504,293.642l4.161-4.161c4.491-4.491,4.491-11.772,0-16.263l-42.347-42.347
			c-4.491-4.491-11.772-4.491-16.263,0l-4.161,4.161c-4.491,4.491-4.491,11.772,0,16.263l42.347,42.347
			C277.731,298.133,285.013,298.133,289.504,293.642z"/>
	</g>
	<g>
		<path style="fill:#8FA6B4;" d="M292.193,217.69c3.802-3.802,3.359-10.148-1.006-13.287c-24.292-17.465-58.347-15.276-80.191,6.568
			c-21.844,21.844-24.033,55.899-6.568,80.191c3.139,4.366,9.485,4.808,13.287,1.006L292.193,217.69z"/>
	</g>
	<g style="opacity:0.35;">
		<path style="fill:#405563;" d="M291.186,204.403c-24.292-17.465-58.347-15.276-80.191,6.568
			c-5.343,5.343-9.502,11.42-12.493,17.902c21.88-20.083,54.656-21.651,78.235-4.699c1.921,1.381,3.08,3.383,3.455,5.516
			l12.001-12.001C295.995,213.888,295.552,207.542,291.186,204.403z"/>
	</g>
</g>
<g>
</g>
<g>
</g>
<g>
</g>
<g>
</g>
<g>
</g>
<g>
</g>
<g>
</g>
<g>
</g>
<g>
</g>
<g>
</g>
<g>
</g>
<g>
</g>
<g>
</g>
<g>
</g>
<g>
</g>
</svg>
