<svg height="512pt" viewBox="0 0 512 512.00058" width="512pt" xmlns="http://www.w3.org/2000/svg"><path d="m33.726562 139.792969 268.640626 226.742187 64.699218-64.699218-227.058594-268.746094-140.007812-33.089844zm0 0" fill="#e2e2e7"/><path d="m33.726562 139.792969 268.640626 226.742187 32.03125-32.03125-334.398438-334.503906zm0 0" fill="#babac0"/><path d="m334.398438 398.140625 30.125-12.304687-8.910157 33.519531 43.425781 43.425781 63.640626-63.640625-43.425782-43.425781-32.246094 10.183594 11.03125-31.394532-31.820312-31.820312-63.636719 63.636718zm0 0" fill="#68544f"/><path d="m334.398438 398.140625 30.125-12.304687-8.910157 33.519531 43.425781 43.425781 31.820313-31.820312-96.460937-96.457032-31.816407 31.816406zm0 0" fill="#3e322e"/><path d="m409.648438 494.601562c11.664062 11.667969 26.9375 17.605469 42.425781 17.394532 15.484375.214844 30.757812-5.726563 42.425781-17.394532 23.332031-23.335937 23.332031-61.519531 0-84.855468-11.667969-11.664063-26.941406-17.605469-42.425781-17.390625-15.488281-.214844-30.761719 5.726562-42.425781 17.390625-11.667969 11.667968-17.609376 26.941406-17.394532 42.429687-.214844 15.484375 5.726563 30.757813 17.394532 42.425781zm0 0" fill="#b35f49"/><path d="m355.613281 419.359375-21.210937-21.214844 63.636718-63.636719 21.214844 21.210938zm0 0" fill="#b35f49"/><path d="m387.4375 387.535156-31.820312 31.820313-21.210938-21.214844 31.820312-31.820313zm0 0" fill="#99503d"/><path d="m392.253906 452.175781c-.214844 15.484375 5.726563 30.757813 17.394532 42.425781 11.664062 11.664063 26.9375 17.605469 42.425781 17.390626 15.484375.214843 30.757812-5.726563 42.425781-17.390626l-84.855469-84.855468c-11.664062 11.667968-17.605469 26.941406-17.390625 42.429687zm0 0" fill="#99503d"/><path d="m291.976562 398.144531-21.214843-21.210937 106.066406-106.066406 21.210937 21.214843zm0 0" fill="#b35f49"/><path d="m291.972656 398.144531-21.210937-21.210937 53.03125-53.035156 21.214843 21.214843zm0 0" fill="#99503d"/><path d="m478.273438 139.792969-268.640626 226.742187-64.699218-64.699218 227.058594-268.746094 140.007812-33.089844zm0 0" fill="#ececf1"/><path d="m478.273438 139.792969-268.640626 226.742187-32.03125-32.03125 334.398438-334.503906zm0 0" fill="#d3d3d8"/><path d="m177.601562 398.140625-30.125-12.304687 8.910157 33.519531-43.425781 43.425781-63.640626-63.640625 43.425782-43.425781 32.246094 10.183594-11.03125-31.394532 31.820312-31.820312 63.636719 63.636718zm0 0" fill="#68544f"/><path d="m177.601562 398.140625-30.125-12.304687 8.910157 33.519531-43.425781 43.425781-31.820313-31.820312 96.460937-96.457032 31.816407 31.816406zm0 0" fill="#53433f"/><path d="m102.351562 494.601562c-11.664062 11.667969-26.9375 17.605469-42.425781 17.394532-15.484375.214844-30.757812-5.726563-42.425781-17.394532-23.332031-23.335937-23.332031-61.519531 0-84.855468 11.667969-11.664063 26.941406-17.605469 42.425781-17.390625 15.488281-.214844 30.761719 5.726562 42.425781 17.390625 11.667969 11.667968 17.609376 26.941406 17.394532 42.429687.214844 15.484375-5.726563 30.757813-17.394532 42.425781zm0 0" fill="#c6715a"/><path d="m92.742188 355.714844 21.214843-21.214844 63.640625 63.640625-21.214844 21.210937zm0 0" fill="#c6715a"/><path d="m145.78125 366.316406 31.820312 31.820313-21.214843 21.214843-31.816407-31.820312zm0 0" fill="#b35f49"/><path d="m119.746094 452.175781c.214844 15.484375-5.726563 30.757813-17.394532 42.425781-11.664062 11.664063-26.9375 17.605469-42.425781 17.390626-15.484375.214843-30.757812-5.726563-42.425781-17.390626l84.855469-84.855468c11.664062 11.667968 17.605469 26.941406 17.390625 42.429687zm0 0" fill="#b35f49"/><path d="m113.957031 292.074219 21.214844-21.210938 106.0625 106.0625-21.210937 21.214844zm0 0" fill="#c6715a"/><path d="m166.988281 345.105469 21.214844-21.210938 53.03125 53.03125-21.210937 21.214844zm0 0" fill="#b35f49"/></svg>