<svg height="512pt" viewBox="0 0 512 512.0021" width="512pt" xmlns="http://www.w3.org/2000/svg"><path d="m414.613281 313.761719c17.183594-34.152344 39.667969-65.125 66.609375-92.0625 3.605469-3.609375 5.089844-8.910157 4.03125-14.214844-1.273437-5.089844-4.878906-9.121094-9.757812-10.605469l-49.425782-16.335937c27.363282-75.730469 65.53125-124.929688 84.199219-158.445313 3.394531-5.941406 1.484375-12.941406-2.96875-17.394531-4.457031-4.457031-11.457031-6.363281-17.394531-2.96875-34.792969 19.511719-83.140625 56.832031-158.445312 84.199219l-16.335938-49.429688c-1.699219-4.664062-5.730469-8.695312-10.609375-9.753906-5.300781-1.0625-10.605469.421875-14.210937 4.03125-26.941407 26.9375-57.914063 49.425781-92.066407 66.609375-100.125 51.757813-110.945312 51.546875-141.28125 81.882813-75.941406 75.941406-75.941406 199.828124 0 275.769531 75.945313 75.945312 199.832031 75.945312 275.773438 0 35.214843-35.214844 37.542969-60.03125 81.882812-141.28125zm0 0" fill="#ff641a"/><path d="m332.730469 455.042969c-75.941407 75.941406-199.828125 75.945312-275.773438 0l450.339844-450.339844c4.457031 4.457031 6.363281 11.457031 2.96875 17.394531-18.664063 33.519532-56.832031 82.714844-84.199219 158.445313l49.429688 16.335937c4.878906 1.484375 8.480468 5.515625 9.753906 10.609375 1.0625 5.300781-.421875 10.605469-4.03125 14.210938-26.9375 26.941406-49.425781 57.910156-66.609375 92.066406-44.335937 81.246094-46.664063 106.0625-81.878906 141.277344zm0 0" fill="#f03800"/><path d="m320.425781 366.371094-174.796875-174.796875 79.550782-40.515625c12.941406-6.578125 25.667968-13.789063 37.757812-21.640625 4.242188-2.542969 8.910156-2.96875 13.363281-1.480469 4.242188 1.695312 7.636719 5.089844 9.335938 9.332031l8.058593 24.605469 56.003907-18.667969c5.304687-1.90625 11.242187.214844 15.0625 4.03125 3.816406 3.820313 5.941406 9.757813 4.03125 15.0625l-18.667969 56.003907 24.605469 8.058593c4.242187 1.699219 7.851562 5.304688 9.335937 9.335938 1.484375 4.453125 1.0625 9.121093-1.484375 13.363281-7.851562 12.09375-15.0625 24.820312-21.640625 37.761719zm0 0" fill="#f03800"/><path d="m320.425781 366.371094-87.398437-87.394532 131.734375-131.734374c3.816406 3.816406 5.941406 9.753906 4.03125 15.0625l-18.667969 56 24.605469 8.0625c4.242187 1.695312 7.851562 5.300781 9.335937 9.332031 1.484375 4.457031 1.0625 9.125-1.484375 13.363281-7.851562 12.09375-15.0625 24.820312-21.640625 37.761719zm0 0" fill="#cd0000"/><path d="m320.425781 366.371094c19.089844-48.367188 8.910157-105.640625-30.121093-144.671875-39.035157-39.035157-96.308594-49.214844-144.675782-30.121094-8.910156 5.089844-26.089844 9.96875-46.246094 30.121094-52.605468 52.609375-52.605468 138.3125 0 190.917969 52.609376 52.609374 138.3125 52.609374 190.921876 0 16.96875-16.96875 21.847656-29.488282 30.121093-46.246094zm0 0" fill="#714c2f"/><path d="m290.300781 412.617188c-52.605469 52.609374-138.308593 52.609374-190.917969 0l190.917969-190.917969c39.035157 39.03125 49.214844 96.304687 30.125 144.671875-8.273437 16.757812-13.152343 29.277344-30.125 46.246094zm0 0" fill="#523522"/><path d="m148.597656 431.707031c-5.726562 5.730469-15.273437 5.941407-21.210937 0-9.335938-9.332031-13.789063-21.847656-12.941407-34.152343.425782-10.605469 4.878907-21.425782 12.941407-29.488282 8.273437-8.273437 18.878906-12.511718 29.484375-12.9375 12.304687-.847656 24.820312 3.605469 34.152344 12.9375 5.941406 5.941406 5.941406 15.277344 0 21.214844-5.726563 5.726562-15.269532 5.941406-21.210938 0-5.9375-5.9375-15.273438-5.9375-21.214844 0-5.726562 5.726562-5.9375 15.273438 0 21.210938 5.941406 5.945312 5.941406 15.277343 0 21.214843zm0 0" fill="#895d3c"/><path d="m205.449219 327.765625c-5.9375 5.9375-15.273438 5.9375-21.210938 0-5.941406-5.941406-5.941406-15.273437 0-21.214844 5.9375-5.9375 5.9375-15.273437 0-21.210937-5.941406-5.941406-15.273437-5.941406-21.214843 0-5.9375 5.9375-5.9375 15.273437 0 21.210937 5.941406 5.941407 5.941406 15.273438 0 21.214844-5.9375 5.9375-15.273438 5.9375-21.210938 0-17.609375-17.609375-17.605469-46.035156 0-63.640625s46.03125-17.605469 63.640625 0c8.269531 8.273438 12.515625 18.878906 12.9375 29.488281.847656 12.300781-3.605469 24.816407-12.941406 34.152344zm0 0" fill="#895d3c"/><g fill="#714c2f"><path d="m247.871094 348.976562c-5.855469-5.855468-15.355469-5.855468-21.210938 0-5.859375 5.859376-5.859375 15.355469 0 21.214844 5.855469 5.855469 15.355469 5.855469 21.210938 0 5.859375-5.859375 5.859375-15.355468 0-21.214844zm0 0"/><path d="m269.085938 285.335938c-5.859376-5.855469-15.355469-5.855469-21.210938 0-5.859375 5.859374-5.859375 15.355468 0 21.214843 5.855469 5.859375 15.351562 5.859375 21.210938 0 5.859374-5.859375 5.859374-15.355469 0-21.214843zm0 0"/><path d="m184.234375 327.765625 34.15625-34.152344c.847656 12.300781-3.605469 24.816407-12.941406 34.152344-5.9375 5.9375-15.273438 5.9375-21.214844 0zm0 0"/><path d="m148.597656 431.707031c-5.726562 5.730469-15.273437 5.941407-21.210937 0-9.335938-9.332031-13.789063-21.847656-12.941407-34.152343l42.425782-42.425782c12.304687-.847656 24.820312 3.605469 34.152344 12.941406 5.941406 5.9375 5.941406 15.273438 0 21.210938-5.726563 5.730469-15.273438 5.941406-21.210938 0-5.941406-5.9375-15.273438-5.9375-21.214844 0-5.726562 5.730469-5.9375 15.273438 0 21.214844 5.941406 5.941406 5.941406 15.273437 0 21.210937zm0 0"/></g></svg>