<svg height="512pt" viewBox="-79 0 512 512.06584" width="512pt" xmlns="http://www.w3.org/2000/svg"><path d="m335.507812 344.277344c.027344 84.910156-63.40625 156.445312-147.710937 166.578125-84.304687 10.132812-162.882813-44.335938-182.976563-126.835938-20.089843-82.5 24.640626-167 104.160157-196.769531 3.472656-1.25 5.800781-4.527344 5.835937-8.21875v-143.722656h105.933594v143.695312c.023438 3.710938 2.359375 7.007813 5.851562 8.253906 65.492188 24.507813 108.898438 87.089844 108.90625 157.019532zm0 0" fill="#90bae1"/><path d="m114.816406 0h105.933594c9.75 0 17.652344 7.90625 17.652344 17.65625s-7.902344 17.652344-17.652344 17.652344h-105.933594c-9.75 0-17.65625-7.902344-17.65625-17.652344s7.90625-17.65625 17.65625-17.65625zm0 0" fill="#b0d3f0"/><path d="m52.9375 278.511719h-.089844c-11.425781 20.035156-17.449218 42.699219-17.480468 65.765625.003906 55.75 34.925781 105.53125 87.351562 124.503906s111.121094 3.078125 146.804688-39.761719c35.683593-42.835937 40.710937-103.433593 12.578124-151.570312-3.683593-6.199219-7.84375-12.101563-12.449218-17.652344-8.171875-4.929687-18.363282-5.066406-26.667969-.367187-8.300781 4.699218-13.425781 13.511718-13.410156 23.054687-8.507813-11.351563-21.949219-17.921875-36.132813-17.660156s-27.375 7.324219-35.457031 18.984375c-3.605469-14.121094-16.589844-23.804688-31.15625-23.226563-14.5625.574219-26.742187 11.246094-29.226563 25.609375-6.675781-7.957031-16.535156-12.546875-26.921874-12.535156-6.242188-.007812-12.375 1.671875-17.742188 4.855469zm0 0" fill="#4fba6f"/><path d="m282.101562 277.449219c-.050781 0-.089843-.039063-.089843-.085938" fill="#ff5364"/><path d="m132.472656 370.757812c0 9.75-7.90625 17.65625-17.65625 17.65625s-17.65625-7.90625-17.65625-17.65625 7.90625-17.65625 17.65625-17.65625 17.65625 7.90625 17.65625 17.65625zm0 0" fill="#65ddb9"/><path d="m264.886719 344.277344c0 14.625-11.855469 26.480468-26.484375 26.480468-14.625 0-26.480469-11.855468-26.480469-26.480468 0-14.628906 11.855469-26.484375 26.480469-26.484375 14.628906 0 26.484375 11.855469 26.484375 26.484375zm0 0" fill="#65ddb9"/><path d="m185.4375 114.757812c0 9.75-7.902344 17.65625-17.65625 17.65625-9.75 0-17.652344-7.90625-17.652344-17.65625s7.902344-17.65625 17.652344-17.65625c9.753906 0 17.65625 7.90625 17.65625 17.65625zm0 0" fill="#4fba6f"/><path d="m44.195312 61.792969c0 9.75-7.902343 17.65625-17.652343 17.65625-9.753907 0-17.65625-7.90625-17.65625-17.65625s7.902343-17.65625 17.65625-17.65625c9.75 0 17.652343 7.90625 17.652343 17.65625zm0 0" fill="#b0d3f0"/><path d="m353.160156 132.414062c0 9.75-7.902344 17.65625-17.652344 17.65625s-17.65625-7.90625-17.65625-17.65625 7.90625-17.65625 17.65625-17.65625 17.652344 7.90625 17.652344 17.65625zm0 0" fill="#b0d3f0"/><path d="m167.78125 326.621094c0 4.875-3.949219 8.828125-8.824219 8.828125-4.878906 0-8.828125-3.953125-8.828125-8.828125s3.949219-8.828125 8.828125-8.828125c4.875 0 8.824219 3.953125 8.824219 8.828125zm0 0" fill="#65ddb9"/><path d="m326.679688 176.550781c0 4.875-3.953126 8.828125-8.828126 8.828125s-8.828124-3.953125-8.828124-8.828125 3.953124-8.828125 8.828124-8.828125 8.828126 3.953125 8.828126 8.828125zm0 0" fill="#90bae1"/><path d="m70.679688 97.101562c0 4.878907-3.953126 8.828126-8.828126 8.828126s-8.828124-3.949219-8.828124-8.828126c0-4.875 3.953124-8.824218 8.828124-8.824218s8.828126 3.949218 8.828126 8.824218zm0 0" fill="#90bae1"/><path d="m247.230469 414.898438c0 4.875-3.953125 8.824218-8.828125 8.824218s-8.828125-3.949218-8.828125-8.824218c0-4.878907 3.953125-8.828126 8.828125-8.828126s8.828125 3.949219 8.828125 8.828126zm0 0" fill="#65ddb9"/><path d="m158.957031 423.722656c0 4.875-3.953125 8.828125-8.828125 8.828125s-8.828125-3.953125-8.828125-8.828125 3.953125-8.824218 8.828125-8.824218 8.828125 3.949218 8.828125 8.824218zm0 0" fill="#65ddb9"/><g fill="#4fba6f"><path d="m167.78125 229.515625c0 4.878906-3.949219 8.828125-8.824219 8.828125-4.878906 0-8.828125-3.949219-8.828125-8.828125 0-4.875 3.949219-8.824219 8.828125-8.824219 4.875 0 8.824219 3.949219 8.824219 8.824219zm0 0"/><path d="m194.265625 176.550781c0 4.875-3.953125 8.828125-8.828125 8.828125s-8.828125-3.953125-8.828125-8.828125 3.953125-8.828125 8.828125-8.828125 8.828125 3.953125 8.828125 8.828125zm0 0"/></g></svg>