<svg xmlns="http://www.w3.org/2000/svg" viewBox="0 0 469.333 469.333" width="469.333" height="469.333">
  <path fill="#303c42" d="M188.208 389c-4.135-3.792-8.313-7.573-11.75-11.75-.823-1.073-2.26-5.094-3.313-8.021-4.833-13.479-13.823-38.563-45.156-38.563-31.313 0-40.302 25.083-45.135 38.552-1.052 2.927-2.49 6.948-3.302 8.01-3.458 4.208-7.635 7.979-11.781 11.771-11.625 10.667-24.813 22.75-25.104 42.854-.146 10.813 3.219 20.01 9.729 26.615 7 7.104 17.26 10.865 29.656 10.865 13.885 0 22.542-4.625 29.5-8.333 5.667-3.021 9.76-5.208 16.438-5.208 6.688 0 10.781 2.188 16.448 5.208 6.958 3.708 15.625 8.333 29.51 8.333 12.396 0 22.646-3.76 29.656-10.865 6.51-6.604 9.875-15.802 9.729-26.625-.291-20.093-13.479-32.187-25.125-42.843z"/>
  <path fill="#6d4c41" d="M188.417 443.49c-3.677 3.729-9.896 4.51-14.469 4.51-8.552 0-13.375-2.573-19.469-5.823-6.781-3.615-14.469-7.719-26.479-7.719-12.021 0-19.708 4.104-26.49 7.719-6.093 3.25-10.916 5.823-19.458 5.823-4.573 0-10.792-.781-14.469-4.51-2.448-2.479-3.656-6.292-3.583-11.333.156-10.896 8.51-18.552 18.188-27.427 4.885-4.469 9.76-8.99 13.844-13.958 3.115-3.792 4.875-8.688 6.906-14.354 5.281-14.75 9.885-24.417 25.052-24.417 15.188 0 19.781 9.677 25.073 24.427 2.031 5.667 3.781 10.552 6.896 14.354 4.083 4.958 8.958 9.469 13.844 13.948 9.677 8.865 18.042 16.531 18.198 27.417.072 5.041-1.136 8.863-3.584 11.343z"/>
  <path d="M186.745 418.15c-.59 1.531-1.286 2.952-2.328 4.007-3.677 3.729-9.896 4.51-14.469 4.51-8.552 0-13.375-2.573-19.469-5.823-6.781-3.615-14.469-7.719-26.479-7.719-12.021 0-19.708 4.104-26.489 7.719-6.094 3.25-10.917 5.823-19.458 5.823-3.727 0-8.27-.948-11.915-3.159-1.233 2.699-2.092 5.521-2.137 8.648-.073 5.042 1.135 8.854 3.583 11.333 3.677 3.729 9.896 4.51 14.469 4.51 8.542 0 13.365-2.573 19.458-5.823 6.781-3.615 14.469-7.719 26.49-7.719 12.01 0 19.698 4.104 26.479 7.719 6.094 3.25 10.917 5.823 19.469 5.823 4.573 0 10.792-.781 14.469-4.51 2.448-2.479 3.656-6.302 3.583-11.344-.076-5.254-2.13-9.743-5.256-13.995z" opacity=".1"/>
  <path fill="#303c42" d="M230.104 298.667c-16.677 0-32.594 17.479-37.021 40.677-.74 3.865-1.083 7.594-1.083 11.115-.01 8.646 2.021 16.333 5.875 22.229 4.688 7.188 11.99 11.313 20.021 11.313 16.677 0 32.594-17.479 37.021-40.667v-.01c.74-3.865 1.083-7.604 1.083-11.125.01-8.646-2.021-16.333-5.875-22.229-4.687-7.178-11.99-11.303-20.021-11.303z"/>
  <path fill="#6d4c41" d="M233.958 339.344c-2.677 14.021-11.438 23.323-16.063 23.323-.354 0-1.094 0-2.156-1.635-1.531-2.354-2.406-6.198-2.406-10.563 0-2.26.24-4.656.708-7.135C216.719 329.302 225.479 320 230.104 320c.354 0 1.094 0 2.156 1.635 1.531 2.344 2.406 6.188 2.406 10.552.001 2.261-.239 4.667-.708 7.157z"/>
  <path d="M232.26 321.635C231.198 320 230.458 320 230.104 320c-.156 0-.385.204-.551.225-.103 1.605-.164 3.193-.484 4.896-2.587 13.548-10.785 22.496-15.512 23.098-.048.738-.224 1.538-.224 2.25 0 4.365.875 8.208 2.406 10.563 1.063 1.635 1.802 1.635 2.156 1.635 4.625 0 13.385-9.302 16.063-23.323.469-2.49.708-4.896.708-7.156.001-4.365-.874-8.209-2.406-10.553z" opacity=".1"/>
  <path fill="#303c42" d="M169.25 309.333c19.458 0 38.365-20.25 43.042-46.104v-.021c.604-3.396.938-6.698 1.031-9.917.302-12.938-3.49-24.115-10.688-31.49-5.406-5.542-12.292-8.469-19.885-8.469-19.458 0-38.365 20.25-43.042 46.125-.604 3.396-.938 6.698-1.031 9.917-.302 12.938 3.49 24.115 10.688 31.49 5.406 5.542 12.291 8.469 19.885 8.469z"/>
  <path fill="#6d4c41" d="M160.708 263.229c2.958-16.344 14.073-28.563 22.042-28.563 1.792 0 3.26.646 4.625 2.042 3.052 3.135 4.781 9.146 4.615 16.042-.052 2.156-.281 4.396-.698 6.708-3.635 20-19.271 34.083-26.667 26.5-3.052-3.135-4.781-9.146-4.615-16.042.053-2.156.282-4.395.698-6.687z"/>
  <path d="M187.375 236.708c-.932-.954-2.063-1.109-3.161-1.396.021.668.237 1.194.22 1.882-.052 2.156-.281 4.396-.698 6.708-3.169 17.435-15.453 30.352-23.452 28.359.259 5.818 1.668 10.951 4.341 13.697 7.396 7.583 23.031-6.5 26.667-26.5.417-2.313.646-4.552.698-6.708.166-6.896-1.563-12.906-4.615-16.042z" opacity=".1"/>
  <path fill="#303c42" d="M58.125 372.688c3.854-5.896 5.885-13.583 5.875-22.219 0-3.531-.344-7.26-1.083-11.135-4.427-23.188-20.344-40.667-37.021-40.667-8.031 0-15.333 4.125-20.021 11.302C2.021 315.865-.01 323.552 0 332.188c0 3.531.344 7.271 1.083 11.135v.01C5.51 366.521 21.427 384 38.104 384c8.031 0 15.334-4.125 20.021-11.312z"/>
  <path fill="#6d4c41" d="M40.26 361.031c-1.063 1.635-1.802 1.635-2.156 1.635-4.625 0-13.385-9.302-16.062-23.323-.469-2.49-.708-4.896-.708-7.167 0-4.354.875-8.198 2.406-10.542C24.802 320 25.542 320 25.896 320c4.625 0 13.385 9.302 16.063 23.323.469 2.49.708 4.885.708 7.156 0 4.354-.875 8.198-2.407 10.552z"/>
  <path d="M41.958 343.323c-2.118-11.094-7.978-19.013-12.651-21.927 1.678 3.288 3.16 6.945 3.984 11.26.469 2.49.708 4.885.708 7.156 0 4.354-.875 8.198-2.406 10.552C30.531 352 29.792 352 29.438 352c-.966 0-2.178-.628-3.411-1.397 3.776 7.395 8.876 12.064 12.078 12.064.354 0 1.094 0 2.156-1.635 1.531-2.354 2.406-6.198 2.406-10.552 0-2.272-.24-4.667-.709-7.157z" opacity=".1"/>
  <path fill="#303c42" d="M43.708 263.229c4.677 25.854 23.583 46.104 43.042 46.104 7.594 0 14.479-2.927 19.885-8.469 7.198-7.375 10.99-18.552 10.688-31.531-.094-3.177-.427-6.479-1.031-9.896-4.677-25.854-23.583-46.104-43.042-46.104-7.594 0-14.479 2.927-19.885 8.469-7.198 7.375-10.99 18.552-10.688 31.531.094 3.177.427 6.479 1.031 9.875v.021z"/>
  <path fill="#6d4c41" d="M68.625 236.708c7.417-7.583 23.052 6.51 26.667 26.5.417 2.313.646 4.552.698 6.667.167 6.938-1.563 12.948-4.615 16.083-7.438 7.625-23.042-6.479-26.667-26.5-.417-2.313-.646-4.552-.698-6.667-.166-6.937 1.563-12.947 4.615-16.083z"/>
  <path d="M95.292 263.208c-1.789-9.893-6.527-18.318-11.751-23.409.826 2.353 1.507 4.824 1.974 7.409.417 2.313.646 4.552.698 6.667.167 6.938-1.563 12.948-4.615 16.083-3.75 3.845-9.573 2.145-14.893-3.033 5.57 15.84 18.202 25.665 24.671 19.033 3.052-3.135 4.781-9.146 4.615-16.083-.053-2.115-.283-4.354-.699-6.667z" opacity=".1"/>
  <path fill="#303c42" d="M401.542 175.667c-4.135-3.792-8.313-7.573-11.75-11.75-.823-1.073-2.26-5.094-3.313-8.021-4.833-13.479-13.823-38.563-45.156-38.563-31.313 0-40.302 25.083-45.135 38.552-1.052 2.927-2.49 6.948-3.302 8.01-3.458 4.208-7.635 7.979-11.781 11.771-11.625 10.667-24.813 22.75-25.104 42.854-.146 10.813 3.219 20.01 9.729 26.615 7 7.104 17.26 10.865 29.656 10.865 13.885 0 22.542-4.625 29.5-8.333 5.667-3.021 9.76-5.208 16.438-5.208 6.688 0 10.781 2.188 16.448 5.208 6.958 3.708 15.625 8.333 29.51 8.333 12.396 0 22.646-3.76 29.656-10.865 6.51-6.604 9.875-15.802 9.729-26.625-.292-20.093-13.479-32.187-25.125-42.843z"/>
  <path fill="#6d4c41" d="M401.75 230.156c-3.677 3.729-9.896 4.51-14.469 4.51-8.552 0-13.375-2.573-19.469-5.823-6.781-3.615-14.469-7.719-26.479-7.719-12.021 0-19.708 4.104-26.49 7.719-6.094 3.25-10.917 5.823-19.458 5.823-4.573 0-10.792-.781-14.469-4.51-2.448-2.479-3.656-6.292-3.583-11.333.156-10.896 8.51-18.552 18.188-27.427 4.885-4.469 9.76-8.99 13.844-13.958 3.115-3.792 4.875-8.688 6.906-14.354 5.281-14.75 9.885-24.417 25.052-24.417 15.188 0 19.781 9.677 25.073 24.427 2.031 5.667 3.781 10.552 6.896 14.354 4.083 4.958 8.958 9.469 13.844 13.948 9.677 8.865 18.042 16.531 18.198 27.417.072 5.041-1.136 8.864-3.584 11.343z"/>
  <path d="M400.078 204.816c-.59 1.531-1.286 2.952-2.328 4.007-3.677 3.729-9.896 4.51-14.469 4.51-8.552 0-13.375-2.573-19.469-5.823-6.781-3.615-14.469-7.719-26.479-7.719-12.021 0-19.708 4.104-26.49 7.719-6.094 3.25-10.917 5.823-19.458 5.823-3.727 0-8.27-.948-11.915-3.159-1.233 2.699-2.092 5.521-2.137 8.648-.073 5.042 1.135 8.854 3.583 11.333 3.677 3.729 9.896 4.51 14.469 4.51 8.542 0 13.365-2.573 19.458-5.823 6.781-3.615 14.469-7.719 26.49-7.719 12.01 0 19.698 4.104 26.479 7.719 6.094 3.25 10.917 5.823 19.469 5.823 4.573 0 10.792-.781 14.469-4.51 2.448-2.479 3.656-6.302 3.583-11.344-.075-5.254-2.129-9.742-5.255-13.995z" opacity=".1"/>
  <path fill="#303c42" d="M443.438 85.333c-16.677 0-32.594 17.479-37.021 40.677-.74 3.865-1.083 7.594-1.083 11.115-.01 8.646 2.021 16.333 5.875 22.229 4.688 7.188 11.99 11.313 20.021 11.313 16.677 0 32.594-17.479 37.021-40.667v-.01c.74-3.865 1.083-7.604 1.083-11.125.01-8.646-2.021-16.333-5.875-22.229-4.688-7.178-11.99-11.303-20.021-11.303z"/>
  <path fill="#6d4c41" d="M447.292 126.01c-2.677 14.021-11.438 23.323-16.063 23.323-.354 0-1.094 0-2.156-1.635-1.531-2.354-2.406-6.198-2.406-10.563 0-2.26.24-4.656.708-7.135 2.677-14.031 11.438-23.333 16.063-23.333.354 0 1.094 0 2.156 1.635 1.531 2.344 2.406 6.188 2.406 10.552 0 2.261-.24 4.667-.708 7.156z"/>
  <path d="M445.594 108.302c-1.063-1.635-1.802-1.635-2.156-1.635-.156 0-.385.204-.551.225-.103 1.605-.164 3.193-.484 4.896-2.587 13.548-10.785 22.496-15.512 23.098-.048.738-.224 1.538-.224 2.25 0 4.365.875 8.208 2.406 10.563 1.063 1.635 1.802 1.635 2.156 1.635 4.625 0 13.385-9.302 16.063-23.323.469-2.49.708-4.896.708-7.156 0-4.365-.875-8.209-2.406-10.553z" opacity=".1"/>
  <path fill="#303c42" d="M382.583 96c19.458 0 38.365-20.25 43.042-46.104v-.021c.604-3.396.938-6.698 1.031-9.917.302-12.938-3.49-24.115-10.688-31.49C410.563 2.927 403.677 0 396.083 0c-19.458 0-38.365 20.25-43.042 46.125-.604 3.396-.938 6.698-1.031 9.917-.302 12.938 3.49 24.115 10.688 31.49C368.104 93.073 374.99 96 382.583 96z"/>
  <path fill="#6d4c41" d="M374.042 49.896c2.958-16.344 14.073-28.563 22.042-28.563 1.792 0 3.26.646 4.625 2.042 3.052 3.135 4.781 9.146 4.615 16.042-.052 2.156-.281 4.396-.698 6.708-3.635 20-19.271 34.083-26.667 26.5-3.052-3.135-4.781-9.146-4.615-16.042.052-2.156.281-4.395.698-6.687z"/>
  <path d="M400.708 23.375c-.932-.954-2.063-1.109-3.161-1.396.021.668.237 1.194.22 1.882-.052 2.156-.281 4.396-.698 6.708-3.169 17.435-15.453 30.352-23.452 28.359.259 5.818 1.668 10.951 4.341 13.697 7.396 7.583 23.031-6.5 26.667-26.5.417-2.313.646-4.552.698-6.708.167-6.896-1.563-12.907-4.615-16.042z" opacity=".1"/>
  <path fill="#303c42" d="M271.458 159.354c3.854-5.896 5.885-13.583 5.875-22.219 0-3.531-.344-7.26-1.083-11.135-4.427-23.188-20.344-40.667-37.021-40.667-8.031 0-15.333 4.125-20.021 11.302-3.854 5.896-5.885 13.583-5.875 22.219 0 3.531.344 7.271 1.083 11.135v.01c4.427 23.188 20.344 40.667 37.021 40.667 8.032.001 15.334-4.124 20.021-11.312z"/>
  <path fill="#6d4c41" d="M253.594 147.698c-1.063 1.635-1.802 1.635-2.156 1.635-4.625 0-13.385-9.302-16.063-23.323-.469-2.49-.708-4.896-.708-7.167 0-4.354.875-8.198 2.406-10.542 1.063-1.635 1.802-1.635 2.156-1.635 4.625 0 13.385 9.302 16.063 23.323.469 2.49.708 4.885.708 7.156 0 4.355-.875 8.199-2.406 10.553z"/>
  <path d="M255.292 129.99c-2.118-11.094-7.978-19.013-12.651-21.927 1.678 3.288 3.16 6.945 3.984 11.26.469 2.49.708 4.885.708 7.156 0 4.354-.875 8.198-2.406 10.552-1.063 1.635-1.802 1.635-2.156 1.635-.966 0-2.178-.628-3.411-1.397 3.776 7.395 8.876 12.064 12.078 12.064.354 0 1.094 0 2.156-1.635 1.531-2.354 2.406-6.198 2.406-10.552 0-2.271-.24-4.667-.708-7.156z" opacity=".1"/>
  <path fill="#303c42" d="M257.042 49.896C261.719 75.75 280.625 96 300.083 96c7.594 0 14.479-2.927 19.885-8.469 7.198-7.375 10.99-18.552 10.688-31.531-.094-3.177-.427-6.479-1.031-9.896C324.948 20.25 306.042 0 286.583 0c-7.594 0-14.479 2.927-19.885 8.469C259.5 15.844 255.708 27.021 256.01 40c.094 3.177.427 6.479 1.031 9.875v.021z"/>
  <path fill="#6d4c41" d="M281.958 23.375c7.417-7.583 23.052 6.51 26.667 26.5.417 2.313.646 4.552.698 6.667.167 6.938-1.563 12.948-4.615 16.083-7.438 7.625-23.042-6.479-26.667-26.5-.417-2.313-.646-4.552-.698-6.667-.166-6.937 1.563-12.948 4.615-16.083z"/>
  <path d="M308.625 49.875c-1.789-9.893-6.527-18.318-11.751-23.409.826 2.353 1.507 4.824 1.974 7.409.417 2.313.646 4.552.698 6.667.167 6.938-1.563 12.948-4.615 16.083-3.75 3.845-9.573 2.145-14.893-3.033 5.57 15.84 18.202 25.665 24.671 19.033 3.052-3.135 4.781-9.146 4.615-16.083-.053-2.115-.282-4.354-.699-6.667z" opacity=".1"/>
  <linearGradient id="a" x1="-63.4915" x2="-48.7365" y1="616.668" y2="609.788" gradientTransform="matrix(21.3333 0 0 -21.3333 1430.1104 13315.2236)" gradientUnits="userSpaceOnUse">
    <stop offset="0" stop-color="#fff" stop-opacity=".2"/>
    <stop offset="1" stop-color="#fff" stop-opacity="0"/>
  </linearGradient>
  <path fill="url(#a)" d="M188.208 389c-4.135-3.792-8.313-7.573-11.75-11.75-.823-1.073-2.26-5.094-3.313-8.021-4.833-13.479-13.823-38.563-45.156-38.563-31.313 0-40.302 25.083-45.135 38.552-1.052 2.927-2.49 6.948-3.302 8.01-3.458 4.208-7.635 7.979-11.781 11.771-11.625 10.667-24.813 22.75-25.104 42.854-.146 10.813 3.219 20.01 9.729 26.615 7 7.104 17.26 10.865 29.656 10.865 13.885 0 22.542-4.625 29.5-8.333 5.667-3.021 9.76-5.208 16.438-5.208 6.688 0 10.781 2.188 16.448 5.208 6.958 3.708 15.625 8.333 29.51 8.333 12.396 0 22.646-3.76 29.656-10.865 6.51-6.604 9.875-15.802 9.729-26.625-.291-20.093-13.479-32.187-25.125-42.843zm41.896-90.333c-16.677 0-32.594 17.479-37.021 40.677-.74 3.865-1.083 7.594-1.083 11.115-.01 8.646 2.021 16.333 5.875 22.229 4.688 7.188 11.99 11.313 20.021 11.313 16.677 0 32.594-17.479 37.021-40.667v-.01c.74-3.865 1.083-7.604 1.083-11.125.01-8.646-2.021-16.333-5.875-22.229-4.687-7.178-11.99-11.303-20.021-11.303zm-60.854 10.666c19.458 0 38.365-20.25 43.042-46.104v-.021c.604-3.396.938-6.698 1.031-9.917.302-12.938-3.49-24.115-10.688-31.49-5.406-5.542-12.292-8.469-19.885-8.469-19.458 0-38.365 20.25-43.042 46.125-.604 3.396-.938 6.698-1.031 9.917-.302 12.938 3.49 24.115 10.688 31.49 5.406 5.542 12.291 8.469 19.885 8.469zM58.125 372.688c3.854-5.896 5.885-13.583 5.875-22.219 0-3.531-.344-7.26-1.083-11.135-4.427-23.188-20.344-40.667-37.021-40.667-8.031 0-15.333 4.125-20.021 11.302C2.021 315.865-.01 323.552 0 332.188c0 3.531.344 7.271 1.083 11.135v.01C5.51 366.521 21.427 384 38.104 384c8.031 0 15.334-4.125 20.021-11.312zM43.708 263.229c4.677 25.854 23.583 46.104 43.042 46.104 7.594 0 14.479-2.927 19.885-8.469 7.198-7.375 10.99-18.552 10.688-31.531-.094-3.177-.427-6.479-1.031-9.896-4.677-25.854-23.583-46.104-43.042-46.104-7.594 0-14.479 2.927-19.885 8.469-7.198 7.375-10.99 18.552-10.688 31.531.094 3.177.427 6.479 1.031 9.875v.021zm357.834-87.562c-4.135-3.792-8.313-7.573-11.75-11.75-.823-1.073-2.26-5.094-3.313-8.021-4.833-13.479-13.823-38.563-45.156-38.563-31.313 0-40.302 25.083-45.135 38.552-1.052 2.927-2.49 6.948-3.302 8.01-3.458 4.208-7.635 7.979-11.781 11.771-11.625 10.667-24.813 22.75-25.104 42.854-.146 10.813 3.219 20.01 9.729 26.615 7 7.104 17.26 10.865 29.656 10.865 13.885 0 22.542-4.625 29.5-8.333 5.667-3.021 9.76-5.208 16.438-5.208 6.688 0 10.781 2.188 16.448 5.208 6.958 3.708 15.625 8.333 29.51 8.333 12.396 0 22.646-3.76 29.656-10.865 6.51-6.604 9.875-15.802 9.729-26.625-.292-20.093-13.479-32.187-25.125-42.843zm61.916-79.032c-4.688-7.177-11.99-11.302-20.021-11.302-16.677 0-32.594 17.479-37.021 40.677-.74 3.865-1.083 7.594-1.083 11.115-.01 8.646 2.021 16.333 5.875 22.229 4.688 7.188 11.99 11.313 20.021 11.313 16.677 0 32.594-17.479 37.021-40.667v-.01c.74-3.865 1.083-7.604 1.083-11.125.011-8.646-2.02-16.334-5.875-22.23zM382.583 96c19.458 0 38.365-20.25 43.042-46.104v-.021c.604-3.396.938-6.698 1.031-9.917.302-12.938-3.49-24.115-10.688-31.49C410.563 2.927 403.677 0 396.083 0c-19.458 0-38.365 20.25-43.042 46.125-.604 3.396-.938 6.698-1.031 9.917-.302 12.938 3.49 24.115 10.688 31.49C368.104 93.073 374.99 96 382.583 96zm-168.166 34c4.427 23.188 20.344 40.667 37.021 40.667 8.031 0 15.333-4.125 20.021-11.313 3.854-5.896 5.885-13.583 5.875-22.219 0-3.531-.344-7.26-1.083-11.135-4.427-23.188-20.344-40.667-37.021-40.667-8.031 0-15.333 4.125-20.021 11.302-3.854 5.896-5.885 13.583-5.875 22.219 0 3.531.344 7.271 1.083 11.135V130zm42.625-80.104C261.719 75.75 280.625 96 300.083 96c7.594 0 14.479-2.927 19.885-8.469 7.198-7.375 10.99-18.552 10.688-31.531-.094-3.177-.427-6.479-1.031-9.896C324.948 20.25 306.042 0 286.583 0c-7.594 0-14.479 2.927-19.885 8.469C259.5 15.844 255.708 27.021 256.01 40c.094 3.177.427 6.479 1.031 9.875v.021z"/>
</svg>
