<svg height="511.96532pt" viewBox="0 0 511.96532 511.96532" width="511.96532pt" xmlns="http://www.w3.org/2000/svg"><path d="m388.414062 194.207031c0 107.257813-86.949218 194.207031-194.207031 194.207031-107.257812 0-194.207031-86.949218-194.207031-194.207031 0-107.257812 86.949219-194.207031 194.207031-194.207031 107.257813 0 194.207031 86.949219 194.207031 194.207031zm0 0" fill="#a5b4b4"/><path d="m353.101562 194.207031c.203126 85.8125-67.609374 156.359375-153.363281 159.542969-85.753906 3.183594-158.613281-62.140625-164.777343-147.730469-6.160157-85.589843 56.589843-160.675781 141.914062-169.808593 85.324219-9.132813 162.546875 50.972656 174.640625 135.925781 1.0625 7.308593 1.59375 14.683593 1.585937 22.070312zm0 0" fill="#bddcf3"/><path d="m353.101562 194.207031c.03125 70.230469-46.070312 132.144531-113.363281 152.246094s-139.800781-6.378906-178.296875-65.117187c45.371094-65.589844 137.707032-151.394532 290.074219-109.199219 1.0625 7.308593 1.59375 14.683593 1.585937 22.070312zm0 0" fill="#a0c7e7"/><g fill="#ed634c"><path d="m88.277344 251.1875c0 16.851562 11.234375 22.46875 28.089844 22.46875 44.9375 0 129.199218-33.703125 129.199218-89.882812 0-22.46875-28.089844-33.703126-50.554687-33.703126-33.707031 0-28.089844 22.464844-33.707031 44.941407-8.171876 32.738281-73.027344 22.464843-73.027344 56.175781zm0 0"/><path d="m194.207031 92.691406c0-12.191406-7.90625-22.070312-17.65625-22.070312s-17.652343 9.878906-17.652343 22.070312c0 12.1875 7.902343 22.066406 17.652343 22.066406s17.65625-9.878906 17.65625-22.066406zm0 0"/><path d="m256 105.929688c0 9.753906-7.90625 17.65625-17.65625 17.65625s-17.652344-7.902344-17.652344-17.65625c0-9.75 7.902344-17.652344 17.652344-17.652344s17.65625 7.902344 17.65625 17.652344zm0 0"/><path d="m300.136719 141.242188c0 9.75-7.902344 17.65625-17.652344 17.65625-9.753906 0-17.65625-7.90625-17.65625-17.65625s7.902344-17.65625 17.65625-17.65625c9.75 0 17.652344 7.90625 17.652344 17.65625zm0 0"/></g><path d="m495.492188 495.492188c-9.613282 10.496093-23.195313 16.472656-37.429688 16.472656s-27.8125-5.976563-37.429688-16.472656c-1.765624-1.765626-3.441406-3.53125-5.03125-5.207032 15.371094-9.035156 29.625-19.851562 42.460938-32.222656 12.414062-12.835938 23.230469-27.121094 32.222656-42.546875 1.675782 1.675781 3.441406 3.351563 5.207032 5.117187 10.496093 9.617188 16.472656 23.195313 16.472656 37.429688s-5.976563 27.816406-16.472656 37.429688zm0 0" fill="#f4cd1e"/><path d="m490.285156 415.515625c-8.992187 15.425781-19.808594 29.710937-32.222656 42.546875-12.835938 12.371094-27.089844 23.1875-42.460938 32.222656-37.957031-40.078125-38.398437-67.886718-67.792968-110.433594 1.511718-.726562 2.886718-1.710937 4.058594-2.914062l24.984374-24.980469c1.179688-1.210937 2.1875-2.578125 3-4.0625 42.546876 29.308594 70.355469 29.835938 110.433594 67.621094zm0 0" fill="#dc6c33"/><path d="m376.867188 327-22.695313-22.703125c-13.472656 19.539063-30.398437 36.460937-49.945313 49.925781l22.710938 22.714844c6.894531 6.894531 18.070312 6.894531 24.964844 0l24.964844-24.964844c3.3125-3.308594 5.171874-7.800781 5.171874-12.484375 0-4.683593-1.859374-9.175781-5.171874-12.488281zm0 0" fill="#919d9e"/></svg>