<?xml version="1.0" encoding="iso-8859-1"?>
<!-- Generator: Adobe Illustrator 18.0.0, SVG Export Plug-In . SVG Version: 6.00 Build 0)  -->
<!DOCTYPE svg PUBLIC "-//W3C//DTD SVG 1.1//EN" "http://www.w3.org/Graphics/SVG/1.1/DTD/svg11.dtd">
<svg version="1.1" id="Capa_1" xmlns="http://www.w3.org/2000/svg" xmlns:xlink="http://www.w3.org/1999/xlink" x="0px" y="0px"
	 viewBox="0 0 297 297" style="enable-background:new 0 0 297 297;" xml:space="preserve">
<g>
	<rect x="76.421" y="232.023" style="fill:#BC822E;" width="119.805" height="12.081"/>
	<rect x="142.91" y="268.364" style="fill:#FFCF6D;" width="83.897" height="23.995"/>
	<path style="fill:#F9B65F;" d="M238.096,296.948l-10.829-1.666c-2.147-0.33-3.732-2.178-3.732-4.35v-21.141
		c0-2.172,1.585-4.02,3.732-4.35l10.829-1.666c2.666-0.41,5.071,1.653,5.071,4.35v24.473
		C243.167,295.295,240.762,297.358,238.096,296.948z"/>
	<path style="fill:#FFCF6D;" d="M243.688,112.057c-19.902-7.959-66.015-13.92-145.662,41.24c-1.176,0.815-2.786,0.585-3.674-0.537
		l-10.796-13.638c-0.888-1.122-0.742-2.741,0.32-3.699c71.969-64.859,76.752-111.109,73.573-132.307
		c-0.412-2.746,3.078-4.255,4.801-2.077l84.56,106.822C248.535,110.038,246.266,113.088,243.688,112.057z"/>
	<path style="opacity:0.64;fill:#FFCF6D;" d="M96.173,144.731c-0.888-1.122-0.742-2.741,0.32-3.699
		c69.157-62.324,76.274-107.461,73.904-129.703l-8.146-10.29c-1.723-2.177-5.213-0.669-4.801,2.077
		c3.179,21.198-1.604,67.448-73.573,132.307c-1.063,0.958-1.209,2.577-0.32,3.699l10.796,13.637
		c0.888,1.122,2.497,1.352,3.674,0.537c1.072-0.742,2.135-1.468,3.195-2.189L96.173,144.731z"/>
	<path style="fill:#F9B65F;" d="M82.942,135.507c-38.074,30.139-44.506,85.437-14.367,123.51s85.437,44.506,123.51,14.367
		s44.506-85.437,14.367-123.51S121.015,105.368,82.942,135.507z M177.193,254.571c-27.683,21.914-67.89,17.237-89.804-10.446
		s-17.237-67.89,10.446-89.804s67.89-17.237,89.804,10.446S204.876,232.657,177.193,254.571z"/>
	<g style="opacity:0.5;">
		<path style="fill:#F9B65F;" d="M185.813,162.576c0.62,0.716,1.232,1.441,1.826,2.191c21.914,27.683,17.237,67.89-10.446,89.804
			c-24.486,19.383-58.761,17.948-81.518-1.795c22.263,25.719,61.045,29.577,87.979,8.256c27.683-21.914,32.36-62.121,10.446-89.805
			C191.569,168.03,188.784,165.154,185.813,162.576z"/>
		<path style="fill:#F9B65F;" d="M75.036,265.478c-30.139-38.074-23.707-93.371,14.367-123.51
			c34.126-27.014,82.077-24.627,113.359,3.571c-30.793-34.171-83.246-38.983-119.82-10.032
			c-38.074,30.139-44.506,85.437-14.367,123.51c3.125,3.947,6.533,7.534,10.151,10.796
			C77.463,268.412,76.223,266.979,75.036,265.478z"/>
	</g>
	<path style="fill:#F9B65F;" d="M162.877,224.052h-51.513c-14.896,0-27.014-12.119-27.014-27.014s12.119-27.014,27.014-27.014
		h51.513c14.896,0,27.014,12.119,27.014,27.014S177.773,224.052,162.877,224.052z M111.364,182.104
		c-8.234,0-14.933,6.699-14.933,14.933s6.699,14.933,14.933,14.933h51.513c8.234,0,14.933-6.699,14.933-14.933
		s-6.699-14.933-14.933-14.933H111.364z"/>
	<g style="opacity:0.5;">
		<path style="fill:#F9B65F;" d="M105.533,179.414c-8.234,0-14.933,6.699-14.933,14.933c0,7.152,5.057,13.14,11.781,14.592
			c-3.606-2.729-5.951-7.041-5.951-11.901c0-8.234,6.699-14.933,14.933-14.933h51.513c1.082,0,2.135,0.122,3.152,0.342
			c-2.503-1.894-5.609-3.032-8.983-3.032H105.533z"/>
		<path style="fill:#F9B65F;" d="M171.172,171.332c7.726,4.759,12.889,13.295,12.889,23.016c0,14.896-12.119,27.014-27.014,27.014
			h-51.513c-2.893,0-5.68-0.462-8.295-1.308c4.113,2.534,8.951,3.999,14.126,3.999h51.513c14.896,0,27.015-12.118,27.015-27.014
			C189.892,185.035,182.022,174.841,171.172,171.332z"/>
	</g>
	<rect x="111.532" y="182.104" style="fill:#F86E51;" width="12.081" height="72.319"/>
	<rect x="131.29" y="182.104" style="fill:#F86E51;" width="12.081" height="72.319"/>
	<rect x="151.048" y="182.104" style="fill:#F86E51;" width="12.081" height="72.319"/>
	<rect x="157.088" y="182.104" style="fill:#E25D47;" width="6.041" height="72.319"/>
	<rect x="137.331" y="182.104" style="fill:#E25D47;" width="6.041" height="72.319"/>
	<rect x="117.573" y="182.104" style="fill:#E25D47;" width="6.041" height="72.319"/>
	<path style="fill:#BC822E;" d="M121.6,258.954h-8.054c-1.946,0-3.524-1.578-3.524-3.524l0,0c0-1.946,1.578-3.524,3.524-3.524h8.054
		c1.946,0,3.524,1.578,3.524,3.524l0,0C125.124,257.376,123.546,258.954,121.6,258.954z"/>
	<path style="fill:#BC822E;" d="M141.358,258.954h-8.054c-1.946,0-3.524-1.578-3.524-3.524l0,0c0-1.946,1.578-3.524,3.524-3.524
		h8.054c1.946,0,3.524,1.578,3.524,3.524l0,0C144.881,257.376,143.304,258.954,141.358,258.954z"/>
	<path style="fill:#BC822E;" d="M161.115,258.954h-8.054c-1.946,0-3.524-1.578-3.524-3.524l0,0c0-1.946,1.578-3.524,3.524-3.524
		h8.054c1.946,0,3.524,1.578,3.524,3.524l0,0C164.639,257.376,163.061,258.954,161.115,258.954z"/>
	<g style="opacity:0.74;">
		<path style="fill:#FFFFFF;" d="M149.285,99.51c-1.059,0.953-2.682,1.041-3.846,0.136c-1.308-1.017-1.544-2.901-0.528-4.21
			c17.039-21.919,21.978-33.934,22.026-34.052c0.618-1.536,2.368-2.28,3.904-1.661c1.537,0.62,2.28,2.368,1.661,3.904
			c-0.208,0.517-5.305,12.918-22.854,35.492C149.537,99.262,149.415,99.393,149.285,99.51z"/>
	</g>
</g>
<g>
</g>
<g>
</g>
<g>
</g>
<g>
</g>
<g>
</g>
<g>
</g>
<g>
</g>
<g>
</g>
<g>
</g>
<g>
</g>
<g>
</g>
<g>
</g>
<g>
</g>
<g>
</g>
<g>
</g>
</svg>
