<?xml version="1.0" encoding="iso-8859-1"?>
<!-- Generator: Adobe Illustrator 19.0.0, SVG Export Plug-In . SVG Version: 6.00 Build 0)  -->
<svg version="1.1" id="Layer_1" xmlns="http://www.w3.org/2000/svg" xmlns:xlink="http://www.w3.org/1999/xlink" x="0px" y="0px"
	 viewBox="0 0 460 460" style="enable-background:new 0 0 460 460;" xml:space="preserve">
<path style="fill:#E5C400;" d="M338.417,431.283c0,15.859-12.862,28.717-28.715,28.717H150.296
	c-15.861,0-28.713-12.858-28.713-28.717v-212.61c0-15.86,12.852-28.718,28.713-28.718h159.406c15.853,0,28.715,12.858,28.715,28.718
	L338.417,431.283L338.417,431.283z"/>
<polygon style="fill:#59595A;" points="269.736,137.001 239.74,0 220.26,0 190.264,137.001 167.899,137.001 167.899,189.955 
	292.101,189.955 292.101,137.001 "/>
<rect x="185.264" y="137.001" style="opacity:0.4;fill:#211915;enable-background:new    ;" width="10" height="52.954"/>
<rect x="211.755" y="137.001" style="opacity:0.4;fill:#211915;enable-background:new    ;" width="10" height="52.954"/>
<rect x="238.245" y="137.001" style="opacity:0.4;fill:#211915;enable-background:new    ;" width="10" height="52.954"/>
<rect x="264.736" y="137.001" style="opacity:0.4;fill:#211915;enable-background:new    ;" width="10" height="52.954"/>
<rect x="121.583" y="261.093" style="fill:#FFFFFF;" width="216.834" height="119.208"/>
<polygon style="opacity:0.4;fill:#5B5B5F;enable-background:new    ;" points="192.454,127.001 190.264,137.001 269.736,137.001 
	267.546,127.001 "/>
<path style="fill:#C8523B;" d="M230,280.555c0,0-56.679,80.283,0,80.283S230,280.555,230,280.555z"/>
<path style="opacity:0.3;fill:#5B5B5F;enable-background:new    ;" d="M309.702,189.955h-17.601v-52.954h-22.365L239.74,0H230v460
	h79.702c15.854,0,28.715-12.857,28.715-28.717v-50.982V261.093v-42.42C338.417,202.813,325.556,189.955,309.702,189.955z"/>
<g>
</g>
<g>
</g>
<g>
</g>
<g>
</g>
<g>
</g>
<g>
</g>
<g>
</g>
<g>
</g>
<g>
</g>
<g>
</g>
<g>
</g>
<g>
</g>
<g>
</g>
<g>
</g>
<g>
</g>
</svg>
