<svg id="Capa_1" enable-background="new 0 0 512 512" height="512" viewBox="0 0 512 512" width="512" xmlns="http://www.w3.org/2000/svg"><g><path d="m366.115 17.208c-43.956 0-83.369 19.442-110.115 50.194l-20.016 188.598 20.016 238.792s169.258-81.099 232.52-223.791c2.184-4.926-5.766-9.926-3.846-14.999 1.867-4.932 13.612-9.932 15.208-15.001 7.69-24.42 12.118-50.417 12.118-77.908 0-80.57-65.315-145.885-145.885-145.885z" fill="#e50058"/><path d="m145.885 17.208c-80.57 0-145.885 65.315-145.885 145.885 0 27.491 4.428 53.488 12.118 77.909 1.587 5.04 13.321 10.012 15.176 14.917s-6.17 9.742-4.068 14.51c63.063 143.047 232.774 224.363 232.774 224.363v-427.39c-26.746-30.752-66.159-50.194-110.115-50.194z" fill="#ff415b"/><path d="m425.99 241-55.586-86.026-62.146 147.54-52.258-83.41-10.008 18.892 10.008 37.613 57.491 91.763 62.524-148.437 33.642 52.065h78.861c4.308-9.716 8.121-19.719 11.359-30z" fill="#e1ebf0"/><path d="m192.356 117.52-66.749 123.48h-113.484c3.238 10.281 7.051 20.284 11.359 30h120.011l50.773-93.926 61.734 98.535v-56.505z" fill="#fff5f5"/></g></svg>