<svg height="512pt" viewBox="0 0 512.00291 512" width="512pt" xmlns="http://www.w3.org/2000/svg"><path d="m497 256c0 133.101562-107.898438 241-241 241s-241-107.898438-241-241c0-133.097656 107.898438-241 241-241s241 107.902344 241 241zm0 0" fill="#fef4f5"/><path d="m256 15v482c133.101562 0 241-107.898438 241-241s-107.898438-241-241-241zm0 0" fill="#a8ebfa"/><path d="m511.933594 270.613281-.222656-2.390625c.1875-4.058594.289062-8.132812.289062-12.222656 0-68.378906-26.628906-132.667969-74.980469-181.019531-48.351562-48.351563-112.640625-74.980469-181.019531-74.980469s-132.667969 26.628906-181.019531 74.980469c-48.351563 48.351562-74.980469 112.640625-74.980469 181.019531 0 1.769531.0273438 3.53125.0625 5.292969-.0625 3.585937-.0820312 7.226562-.0351562 10.945312.0039062.332031.0195312.667969.0429687 1 2.0351565 25.839844 6.4062495 48.121094 13.3632815 68.117188.046875.144531.101562.285156.152344.425781 8.695312 22.757812 19.402343 42.960938 31.820312 60.046875.085938.121094.175781.238281.265625.355469.28125.363281.566406.722656.851563 1.085937 8.417968 11.925781 17.921874 23.214844 28.457031 33.75 48.351562 48.351563 112.640625 74.980469 181.019531 74.980469s132.667969-26.628906 181.019531-74.980469c43.375-43.371093 69.25-99.570312 74.125-160.042969.695313-1.980468 1-4.136718.789063-6.363281zm-166.828125 193.066407c5.589843-3.371094 11.023437-6.972657 16.257812-10.808594.039063-.023438.074219-.050782.113281-.082032 22.789063-17.003906 42.671876-39.226562 57.496094-64.257812 13.65625-22.417969 19.875-44.289062 23.765625-60.84375.046875-.210938.09375-.421875.132813-.632812.710937-3.742188 1.488281-7.4375 2.3125-10.988282.066406-.277344.121094-.558594.171875-.839844.503906-2.914062.691406-5.53125.855469-7.84375.085937-1.210937.167968-2.355468.277343-3.253906.007813-.0625.015625-.125.023438-.1875l.996093-8.847656c.347657-2.894531.238282-5.417969.160157-7.265625-.027344-.59375-.054688-1.261719-.046875-1.558594.007812-.210937.007812-.421875.007812-.628906-.109375-8.320313.089844-12.808594.089844-12.851563.011719-.21875-.003906-.429687-.003906-.648437.003906-.292969.011718-.589844-.003906-.886719v-.003906c-.023438-.484375-.070313-.972656-.144532-1.460938-.007812-.042968-.679687-4.5625-1.445312-12.789062-.019532-.203125-.042969-.410156-.070313-.613281-.039062-.277344-.078125-.929688-.113281-1.5-.109375-1.832031-.261719-4.328125-.917969-7.183594l-1.90625-8.589844c-.015625-.066406-.03125-.136719-.046875-.203125-.203125-.859375-.398437-1.957031-.605468-3.121094-.394532-2.234374-.847657-4.765624-1.648438-7.574218-.078125-.273438-.164062-.542969-.257812-.8125-1.203126-3.449219-2.339844-6.949219-3.382813-10.394532-.0625-.214843-.132813-.421874-.207031-.632812-5.433594-15.488281-13.621094-35.792969-28.796875-55.582031-16.25-21.796875-36.714844-40.347657-59.191407-53.648438-.039062-.023437-.078124-.046875-.121093-.070312-26.253907-15.207031-56.390625-24.382813-87.175781-26.546875-3.324219-.386719-6.394532-.25-8.882813-.136719-1.285156.058594-2.5.113281-3.433594.078125-.144531-.003906-.289062-.007812-.433593-.011719l-5.382813-.035156c-3.265625-.171875-6.09375-.007813-8.828125.511719-2.210938.34375-4.601562.566406-7.121094.808594-5.058594.476562-10.746094 1.015624-16.628906 2.683593-17.566406 2.953125-33.558594 10.066407-47.199219 16.523438-.421875.195312-.832031.417969-1.230469.652343-3.171874 1.878907-6.40625 3.667969-9.617187 5.316407-.105469.054687-.207031.109375-.3125.164062-2.921875 1.589844-5.335937 3.378907-7.46875 4.957031-1.175781.867188-2.285156 1.6875-3.238281 2.289063-.078125.050781-.160156.097656-.238282.152344l-5.011718 3.285156c-.582032.386719-1.140625.808594-1.667969 1.269531l-4.554687 4c-.082032.070313-.160157.144532-.242188.21875-.960938.882813-2.132812 1.824219-3.375 2.820313-1.882812 1.507812-4.011719 3.214843-6.121094 5.28125-11.5625 11.078125-22.144531 24.417969-32.34375 40.769531-.101562.164062-.199218.328125-.292968.496094-7.878907 13.777344-14.152344 29.488281-19.175782 48.019531-.058594.199219-.105468.394531-.148437.597656-3.347657 14.695313-4.757813 30.921875-4.441407 51.0625.007813.464844.039063.933594.089844 1.394531 2.15625 19.699219 5.542969 35.363282 10.65625 49.289063.074219.199219.148438.398437.230469.59375 7.046875 16.933594 14.835937 30.957031 23.808594 42.871094.125.164062.253906.328125.386719.492187 11.355468 13.832032 22.523437 24.746094 34.136718 33.363282 2.183594 1.660156 4.3125 2.945312 6.191406 4.082031 1.1875.714843 2.304688 1.390625 3.144532 1.992187.082031.0625.167968.117188.25.175782l4.390625 3.015624c.644531.4375 1.320312.828126 2.023437 1.164063l4.800782 2.292969c.09375.042968.183593.085937.277343.128906.777344.351562 1.78125.925781 2.84375 1.527344 1.964844 1.117187 4.410157 2.507812 7.320313 3.609375.125.050781.253906.097656.382812.140625 2.890625 1.011718 5.742188 2.136718 8.46875 3.34375.503906.21875 1.015625.414062 1.539063.578125 13.78125 4.367187 27.359375 8.320312 41.796875 8.816406 2.960937.46875 5.796875.605469 8.480468.605469 1.917969 0 3.761719-.070313 5.511719-.136719 2.082031-.078125 4.054688-.152344 5.746094-.085937 3.339844.273437 6.242187-.144532 8.285156-.546876l4.253907-.601562c.15625-.023438.3125-.046875.46875-.074219.5-.085937 1.410156-.148437 2.292968-.207031 2.042969-.140625 4.792969-.324219 7.789063-1.105469 24.5-5.0625 46.695312-15.0625 65.984375-29.71875.058594-.042969.113281-.089843.171875-.132812 15.683593-12.285157 29.300781-28.246094 39.390625-46.164063 9.148437-15.589844 12.773437-30.222656 15.457031-42.722656.066406-.308594.125-.621094.171875-.933594.332031-2.230468.75-4.394531 1.246094-6.4375.09375-.394531.175781-.792968.238281-1.195312.378906-2.410156.421875-4.574219.453125-6.15625.007812-.550782.023438-1.300782.050781-1.5625.023438-.199219.042969-.402344.054688-.605469.113281-1.671875.28125-3.277344.507812-4.917969.003907-.042968.011719-.085937.015625-.125.367188-2.847656.121094-5.265625-.027344-6.707031-.015624-.164063-.035156-.320313-.046874-.476563-.003907-.191406-.011719-.386718-.019532-.578124-.199218-3.925782-.121094-6.335938-.085937-7.101563.148437-1.578125.058593-3.207031-.332031-4.839844-.003907-.027343-.585938-2.621093-1.082032-7.335937-.023437-.195313-.046875-.394532-.074218-.589844-.011719-.128906-.015626-.261719-.023438-.398438-.070312-1.4375-.191406-3.847656-1.019531-6.640624-.011719-.042969-.023438-.082032-.039063-.125-.476562-1.566407-.902344-3.148438-1.265625-4.707032-.046875-.207031-.097656-.40625-.15625-.609375-.0625-.230469-.183593-.914062-.269531-1.414062-.269531-1.5-.632812-3.5625-1.375-5.84375-.132812-.40625-.285156-.808594-.449219-1.199219-.832031-1.96875-1.535156-3.875-2.15625-5.835938-.101562-.324218-.214843-.644531-.335937-.957031-4.4375-11.324219-10.0625-24.480469-20.714844-37.347656-11.632812-14.609375-25.902344-26.820313-41.273438-35.316406-.070312-.039063-.144531-.078125-.214843-.117188-17.902344-9.519531-37.53125-14.847656-58.355469-15.839843-2.867188-.300782-5.367188-.027344-7.078125.160156-.410156.042968-.964844.105468-1.203125.117187-.300781-.007812-.601562-.003906-.902344.007813-.777344.027344-1.585937.039062-2.460937.027344-2.921875-.191407-5.59375.058593-8.132813.757812-1.058594.226562-2.460937.386719-3.9375.550781-3.101562.347657-6.871094.769531-10.902344 2.140625-10.488281 2.007813-19.675781 6.542969-27.824218 10.566406l-2.183594 1.074219c-.671875.328125-1.3125.707031-1.929688 1.132813-1.507812 1.042968-3.011718 1.9375-4.589843 2.734375-.167969.082031-.335938.171875-.5.261719-2.488281 1.371093-4.359375 2.957031-5.730469 4.113281-.382812.324219-.90625.769531-1.035156.863281-.234375.148438-.46875.304688-.695313.46875-.714843.507812-1.460937 1-2.214843 1.460938-1.023438.625-1.96875 1.367187-2.8125 2.214843l-2.703126 2.707031c-.082031.085938-.167968.171876-.25.257813-.207031.21875-.882812.769531-1.375 1.171875-1.210937.988281-2.714843 2.21875-4.261718 3.863281-8.703125 9.035157-15.167969 19.125-19.835938 26.914063-.160156.269531-.3125.542968-.457031.820312-5.542969 10.71875-8.644531 21.570313-10.949219 30.773438-.082031.328125-.15625.664062-.214844.996094-1.910156 10.664062-1.828124 20.765624-1.542968 31.921874.019531.757813.097656 1.515626.230468 2.265626 1.761719 9.796874 3.824219 20.199218 7.972657 30.230468.140625.335938.292969.667969.457031.992188 3.964844 7.898437 8.933594 17.09375 15.75 25.40625.222656.273437.457031.539062.699219.796875 5.925781 6.269531 13.136719 13.457031 21.722656 19.285156 1.773437 1.242187 3.429687 2.0625 4.652344 2.667969.28125.140625.566406.269531.835937.417968.046875.035157.09375.066407.140625.101563l2.550781 1.714844c1.175782.792969 2.460938 1.417969 3.816407 1.851562.597656.1875 1.160156.394531 1.679687.613281.175782.074219.355469.144532.535156.210938.164063.085938.324219.179688.484376.269531 1.355468.757813 3.40625 1.902344 6.160156 2.667969.222656.0625.449218.121094.675781.171875 1.058594.242187 1.992187.546875 2.847656.921875.890625.394531 1.816407.703125 2.765625.914062 1.234375.277344 2.449219.570313 3.65625.859376 6.164063 1.46875 13.097656 3.125 20.800782 2.875 1.148437.136718 2.242187.191406 3.28125.191406 2.078124 0 3.925781-.214844 5.464843-.394532.597657-.066406 1.382813-.160156 1.804688-.183593 2.671875.265625 5.355469-.046875 8.152343-.949219.328126-.082031.660157-.152344 1.003907-.214844.144531-.023437.285156-.054687.425781-.082031.039062-.003906.078125-.003906.117188-.007813 1.398437-.085937 3.851562-.230468 6.660156-1.226562 13.996094-4.03125 26.023437-10.371094 36.753906-19.371094.113281-.097656.230469-.195312.339844-.292968 8.542968-7.613282 15.820312-17.328126 21.066406-28.121094 4.675781-8.929688 5.925781-17.378906 6.753906-22.992188.085938-.589844.171875-1.164062.257813-1.71875.046875-.308594.085937-.617187.113281-.929687.796875-8.644531.253906-15.136719-.011719-18.300781.097657-1.484376-.023437-2.9375-.339843-4.324219l.007812.03125s-.007812-.042969-.019531-.105469c-.003907-.007812-.003907-.015625-.003907-.023438-.050781-.269531-.175781-.976562-.289062-2.074218-.003906-.035156-.007812-.066406-.011719-.097656-.046875-.914063-.164062-2.644532-.796875-4.777344-.160156-.527344-.292968-1.019532-.40625-1.507813-.015625-.074219-.035156-.152343-.054687-.230469l-.03125-.171874c-.140625-.789063-.375-2.105469-.875-3.648438-.132813-.410156-.285157-.816406-.453125-1.214844-.246094-.578125-.453125-1.144531-.636719-1.726562-.105469-.328125-.21875-.648438-.34375-.96875-1.542969-3.9375-4.410156-11.242188-10.179687-18.234375-5.664063-7.09375-12.628907-13.039063-20.152344-17.195313-.070313-.039062-.144532-.078125-.210938-.113281-8.714844-4.636719-18.246094-7.242187-28.34375-7.757813-2.019531-.1875-3.664062-.003906-4.601562.097657h-.003906c-.089844.003906-.175782.003906-.269532.007812-.152344.007813-.308594.007813-.460937.007813-1.96875-.101563-3.820313.070312-5.621094.523437-.253906.035157-.511719.058594-.765625.085938-1.460938.164062-3.523438.398437-5.886719 1.128906-5.371093 1.117187-9.855469 3.332031-13.511719 5.136719l-.917968.449218c-.671875.332032-1.320313.710938-1.9375 1.136719-.3125.21875-.625.40625-.960938.574219-.160156.082031-.320312.167969-.480468.253906-1.796876.996094-3.066407 2.070313-3.828126 2.710938l-.042968.039062c-.050782.03125-.097656.066406-.144532.097656-.136718.101563-.28125.191407-.421874.277344-1.023438.625-1.96875 1.367188-2.816407 2.214844l-1.089843 1.09375-.125.101562c-.589844.484376-1.566407 1.28125-2.601563 2.378907-4.289063 4.460937-7.394531 9.289062-9.621094 13.003906-.160156.269531-.316406.546875-.460937.824219-2.789063 5.402344-4.339844 10.859375-5.378906 15.007812-.082032.332032-.152344.664063-.214844.996094-.953125 5.3125-.917969 10.300781-.792969 15.371094.023437.765625.097656 1.527344.234375 2.28125.796875 4.445312 1.828125 9.609375 3.921875 14.675781.140625.339844.292969.671875.457031 1 1.898438 3.785156 4.308594 8.226563 7.757813 12.441406.226562.277344.460937.546875.707031.804688 2.847656 3.011719 6.335938 6.480469 10.671875 9.429687 1.152344.796875 2.203125 1.335938 2.851563 1.660156l.707031.476563c1.15625.777344 2.40625 1.386719 3.730469 1.816406.851562.464844 2.304687 1.207031 4.195312 1.734375.171875.046875.351562.09375.527344.132813.824218.351562 1.675781.625 2.550781.824219.488281.109374.96875.222656 1.449219.339843 2.804687.667969 6.191406 1.476563 10.199218 1.476563.695313 0 1.410157-.023438 2.140626-.078125 8.261718-.601563 14.507812-7.789063 13.902343-16.054688-.605469-8.261719-7.753906-14.464843-16.019531-13.867187-.523438-.003906-2.105469-.382813-3.257812-.65625-.207032-.050782-.417969-.101563-.625-.148438-.535157-.199218-1.082032-.378906-1.636719-.546875-.511719-.265625-1.15625-.574219-1.917969-.871093-.902344-.585938-1.707031-1-2.246094-1.269532-1.710937-1.222656-3.460937-2.949218-5.007812-4.566406-1.347656-1.742188-2.554688-3.945312-3.585938-5.976562-.6875-1.804688-1.199218-4.058594-1.742187-6.964844-.0625-3-.054688-5.542969.28125-7.726563.632812-2.464843 1.433593-5.210937 2.601562-7.589843 1.355469-2.234376 3.113281-4.941407 5.132813-7.066407l.082031-.066406c.535156-.441406 1.410156-1.152344 2.347656-2.113281.085938-.0625.175781-.121094.265625-.183594.886719-.59375 1.597656-1.167969 2.105469-1.59375.761719-.417969 1.511719-.867188 2.242187-1.339844l.085938-.042968c2.539062-1.253907 4.941406-2.433594 6.566406-2.707032.789063-.132812 1.566406-.328125 2.328125-.582031.1875-.023437.378907-.042969.566407-.0625.8125-.09375 1.84375-.207031 3.019531-.425781.425781-.003906.828125-.003906 1.230469-.015625 1.007812 0 1.863281-.078125 2.480468-.144531 5.679688.273437 10.992188 1.695312 15.800782 4.234374 5.171874 2.882813 8.929687 6.84375 11.171874 9.667969.066407.085938.136719.167969.207032.25 2.441406 2.941407 3.902344 6.277344 5.269531 9.730469.277344.851562.582031 1.699219.910156 2.542969.09375.503906.222657 1.167969.414063 1.925781.148437.617188.304687 1.226562.46875 1.828125.027344.285156.058594.605469.105468.953125.128907 1.183594.273438 2.191406.40625 3.019531.011719.96875.082032 1.828125.140626 2.507813.21875 2.5625.578124 6.804687.078124 12.652344-.074218.46875-.144531.949218-.214843 1.441406-.664063 4.480468-1.347657 9.117187-3.714844 13.578125-.089844.167969-.179687.339843-.261719.515625-2.457031 5.097656-6.871094 12.488281-13.960937 18.855468-7.515625 6.265626-16.039063 10.683594-26.039063 13.511719-1.027344.0625-2.542968.179688-4.296875.589844-.894531.167969-1.785156.367187-2.664062.589844-2.265625-.039063-4.261719.191406-5.921875.386719-.585938.066406-1.351563.15625-1.785156.183593-1.242188-.230469-2.511719-.292969-3.773438-.203125-3.851562.277344-8.355469-.792968-13.570312-2.035156-.894532-.214844-1.800782-.429688-2.710938-.644531-1.789062-.714844-3.625-1.308594-5.558594-1.804688-.054687-.03125-.109375-.066406-.167968-.097656-1.027344-.574219-2.535157-1.414063-4.464844-2.125-.503906-.207031-1.019532-.40625-1.542969-.601563l-.789063-.53125c-1.734374-1.210937-3.359374-2.019531-4.5625-2.613281-.296874-.148437-.691406-.34375-.886718-.449219-.050782-.03125-.097656-.066406-.144532-.097656-6.074218-4.105468-11.71875-9.710937-16.472656-14.726562-4.660156-5.785156-8.3125-12.492188-11.5625-18.9375-2.753906-6.839844-4.375-14.796875-5.769531-22.464844-.214844-8.832031-.242187-16.808594 1.027344-24.230469 1.835937-7.285156 4.246093-15.671875 8.160156-23.363281 3.835937-6.382812 9.03125-14.449219 15.523437-21.167969.066407-.070312.132813-.140625.199219-.214843.203125-.210938.875-.757813 1.363281-1.160157 1.136719-.925781 2.539063-2.074219 3.996094-3.585937l1.40625-1.40625c.707032-.460938 1.410156-.933594 2.097656-1.417969 1.652344-1.085937 2.992188-2.222656 3.992188-3.066406.3125-.265625.722656-.613281.96875-.804688 2.234375-1.15625 4.4375-2.457031 6.566406-3.878906l1.292969-.636719c7.3125-3.605468 14.214844-7.015625 20.945313-8.136718 1.078124-.179688 2.128906-.476563 3.140624-.882813.859376-.34375 2.898438-.574219 4.695313-.773437 2.207031-.246094 4.691406-.523438 7.414063-1.144532.125.003906.246093.007813.371093.011719 1.449219.027344 2.804688.019531 4.128907-.023437 1.832031.019531 3.453124-.164063 4.660156-.296876.324218-.035156.742187-.082031 1.015625-.105468.300781.03125.597656.054687.898437.066406 16.496094.726562 31.992188 4.871094 46.058594 12.328125 15.082031 8.367187 25.882812 19.726563 32.292969 27.792969.066406.085937.132812.167968.203125.253906 7.746094 9.324219 12.066406 19.328125 15.789062 28.800781.761719 2.367188 1.636719 4.753907 2.605469 7.105469.085937.394531.191406.984375.28125 1.484375.1875 1.066406.421875 2.382813.800781 3.816406.445313 1.890625.953125 3.800781 1.515625 5.6875.003907.082031.007813.164063.011719.242188.039062.777343.089844 1.800781.261719 2.992187.40625 3.769532.863281 6.585938 1.203125 8.398438-.054688 1.839844-.070313 4.699218.113281 8.554687.019531 1.167969.125 2.175781.203125 2.9375.011719.125.027344.25.039062.375-.261718 1.984375-.460937 4.003907-.605468 6.011719-.140625 1.453125-.164063 2.789062-.1875 3.878906-.011719.585938-.023438 1.277344-.058594 1.742188-.578125 2.492187-1.078125 5.078125-1.480469 7.714844-2.28125 10.582031-5.125 21.871093-11.964843 33.492187-.054688.085937-.105469.175781-.152344.261719-8.15625 14.519531-19.117188 27.414062-31.714844 37.296875-15.773438 11.96875-34.019531 20.125-54.21875 24.242187-.386719.078125-.6875.152344-1.066406.261719-.367188.082031-1.46875.15625-2.273438.210937-1.433594.097657-3.207031.214844-5.15625.539063l-4.476562.636719c-.316406.042968-.632813.097656-.941406.164062-.257813.050782-.425782.082032-.527344.097656-.140625-.011718-.277344-.019531-.417969-.027343-3.058594-.152344-6.019531-.039063-8.632813.058593-3.25.121094-6.320312.238282-8.558593-.1875-.820313-.15625-1.65625-.246093-2.492188-.265624-10.6875-.222657-21.644531-3.378907-33.792969-7.214844-3.136718-1.363282-6.382812-2.636719-9.671874-3.792969-.75-.308594-1.859376-.9375-3.03125-1.601563-1.488282-.847656-3.171876-1.804687-5.136719-2.703124l-3.625-1.730469-3.308594-2.269531c-1.75-1.246094-3.464844-2.277344-4.980469-3.195313-1.363281-.824219-2.65625-1.601563-3.558594-2.292969-.066406-.050781-.125-.097656-.191406-.144531-9.574218-7.09375-18.960937-16.292969-28.691406-28.117187-7.3125-9.757813-13.777344-21.472657-19.761719-35.796876-4.136719-11.359374-6.941406-24.484374-8.8125-41.226562-.234375-17.203125.921875-30.875 3.636719-42.933594 4.304688-15.792968 9.558594-29.027344 16.046875-40.4375 8.828125-14.121094 17.839844-25.503906 27.542969-34.792968.050781-.046876.101562-.09375.148437-.140626 1.054688-1.039062 2.453125-2.160156 3.929688-3.347656 1.460937-1.167968 3.105469-2.488281 4.757812-3.992187l3.652344-3.207031 4.023437-2.640626c1.851563-1.175781 3.503907-2.398437 4.96875-3.476562 1.425782-1.058594 2.773438-2.054688 3.847657-2.65625 3.472656-1.789062 6.960937-3.714844 10.386719-5.726562 11.882812-5.609376 25.640624-11.691407 39.441406-13.878907.691406-.109375 1.375-.269531 2.046875-.472656 3.332031-1.023437 7.40625-1.40625 11.714843-1.816406 2.96875-.28125 6.035157-.570313 9.261719-1.085938.199219-.03125.398438-.066406.59375-.105469.195313-.039062.707031-.09375 1.902344-.023437.265625.015625.527344.023437.792969.027344l5.554687.039062c2.050781.0625 3.941407-.023437 5.617188-.097656 1.585937-.070313 3.222656-.148437 4.109375-.027344.320312.042969.644531.074219.96875.097657 26.351562 1.792968 52.121094 9.597656 74.53125 22.566406 19.09375 11.308594 36.527344 27.144531 50.417968 45.800781.046876.0625.089844.117187.136719.179687 12.464844 16.226563 19.257813 32.859376 24.246094 47.027344 1.085937 3.589844 2.265625 7.21875 3.511719 10.804688.332031 1.253906.589844 2.703125.859375 4.230468.265625 1.488282.539062 3.023438.921875 4.660157l1.898437 8.554687c.011719.054688.023438.109375.039063.164063.097656.429687.160156 1.417969.210937 2.289062.0625.996094.128907 2.113281.28125 3.347657.597657 6.335937 1.140625 10.671874 1.425781 12.773437-.0625 2.09375-.152343 6.464844-.074218 12.925781-.023438 1.234375.027344 2.355469.070312 3.359375.039063.90625.082032 1.9375.023438 2.398438-.003906.054687-.011719.109375-.019532.164062l-.992187 8.824219c-.203125 1.664062-.316406 3.238281-.421875 4.757812-.117188 1.617188-.226562 3.152344-.433594 4.496094-.851562 3.695313-1.65625 7.515625-2.394531 11.378906-3.589844 15.234376-8.8125 33.273438-20.148437 51.859376-.035157.054687-.070313.113281-.105469.171874-12.8125 21.664063-29.96875 40.867188-49.609375 55.539063-23.941406 17.507813-52.503906 29.542969-82.605469 34.804687-.269531.046876-.542969.101563-.8125.164063-1.429687.332031-3.449219.472656-5.59375.621094-1.820313.128906-3.878906.273437-6.046875.5625l-6.523438.703125c-.210937.023437-.425781.050781-.640624.082031-1.476563.226563-2.582032.308594-3.359376.246094-.199218-.015625-.394531-.027344-.59375-.035157-3.382812-.132812-6.6875-.105468-9.886718-.078124-5.640625.046874-10.960938.089843-15.710938-.742188-.5625-.101562-1.136718-.167969-1.714844-.203125-17.832031-1.050781-35.695312-6.621094-50.882812-11.988281-4.367188-1.925782-8.878906-3.824219-13.425781-5.648438-1.859375-.800781-3.9375-1.988281-6.136719-3.246094-1.867188-1.070312-3.796875-2.175781-5.933594-3.25l-5.777344-3.039062-5.390624-3.71875c-1.945313-1.390625-3.855469-2.636719-5.703126-3.84375-2.292968-1.492188-4.453124-2.898438-6.285156-4.339844-.042968-.03125-.085937-.0625-.125-.097656-13.152344-10.109375-25.925781-22.875-38.019531-37.984375-25.710937-35.75-41.261719-79.269531-42.359375-126.308594.375-19.105469 2.4375-36.070312 6.277344-51.578125 6.042968-21.53125 14.109375-40.855468 23.988281-57.445312 12.054687-18.957032 25.402344-35.253906 39.667969-48.429688.035156-.035156.074218-.066406.109375-.101562 1.929687-1.820313 4.179687-3.605469 6.566406-5.496094 1.8125-1.441406 3.6875-2.929688 5.585937-4.558594l5.636719-4.664062 6.085938-3.972656c2.09375-1.320313 4.019531-2.660157 5.882812-3.957032 2.453125-1.703125 4.769531-3.3125 6.875-4.453125 4.707031-2.511719 9.398438-5.019531 14.066407-7.515625 22.636718-10.507812 40.078124-16.332031 56.503906-18.882812.503906-.078125 1.003906-.179688 1.5-.3125 5.847656-1.53125 12.246094-2.074219 19.023437-2.648438 3.351563-.285156 6.820313-.582031 10.339844-1.007812.148437-.015625.300781-.039063.449219-.0625 1.25-.1875 2.789062-.234375 4.851562-.132813.164063.007813.332032.011719.496094.015625l7.609375.105469c2.304687.085937 4.46875.054687 6.5625.027344 2.726563-.039063 5.308594-.078125 7.367187.191406.246094.03125.488282.054687.734376.074219 36.511718 2.894531 72.15625 14.28125 103.003906 32.886718 26.230468 16.035157 49.917968 38.132813 68.503906 63.898438.03125.046875.066406.09375.101562.140625 17.730469 24.003906 27.09375 48.71875 32.601563 65.285156l.554687 1.824219c1.332032 4.390625 2.605469 8.578125 3.816407 12.554688.578125 2.230468.996093 4.566406 1.433593 7.035156.308594 1.730468.625 3.515625 1.011719 5.324218l.441407 2.207032c.65625 3.316406 1.273437 6.421875 1.855468 9.316406.261719 1.308594.367188 2.882812.476563 4.546875.085937 1.242187.171875 2.527344.328125 3.894531l1.253906 13.320313c-4.902344 87.492187-59.800781 161.839843-136.519531 194.886719zm0 0" fill="#005183"/><g fill="#00215a"><path d="m511.710938 268.222656c.1875-4.058594.289062-8.132812.289062-12.222656 0-68.378906-26.628906-132.667969-74.980469-181.019531-48.351562-48.351563-112.640625-74.980469-181.019531-74.980469v46.316406c.71875-.007812 1.441406-.011718 2.144531-.023437 2.730469-.039063 5.3125-.074219 7.371094.191406.242187.03125.488281.058594.734375.078125 36.511719 2.894531 72.15625 14.28125 103.003906 32.882812 26.230469 16.039063 49.917969 38.136719 68.503906 63.898438.03125.046875.066407.09375.097657.140625 17.734375 24.003906 27.097656 48.722656 32.605469 65.285156l.550781 1.824219c1.335937 4.394531 2.609375 8.578125 3.820312 12.558594.578125 2.226562.992188 4.566406 1.433594 7.03125.308594 1.730468.625 3.515625 1.011719 5.324218l.441406 2.210938c.65625 3.316406 1.273438 6.421875 1.855469 9.316406.261719 1.308594.367187 2.878906.476562 4.542969.085938 1.246094.171875 2.527344.328125 3.894531l1.253906 13.320313c-4.90625 87.492187-59.804687 161.839843-136.527343 194.886719 5.59375-3.371094 11.023437-6.972657 16.261719-10.808594.035156-.027344.074218-.054688.109374-.082032 22.792969-17.007812 42.675782-39.226562 57.5-64.257812 13.652344-22.417969 19.871094-44.289062 23.761719-60.84375.050781-.210938.09375-.421875.136719-.636719.707031-3.742187 1.488281-7.4375 2.3125-10.984375.0625-.277344.121094-.558594.167969-.839844.503906-2.914062.691406-5.53125.855469-7.84375.085937-1.210937.167968-2.355468.28125-3.253906.007812-.0625.015624-.125.019531-.1875l.996093-8.851562c.347657-2.894532.238282-5.417969.160157-7.265625-.023438-.589844-.054688-1.261719-.042969-1.554688.003906-.210937.007812-.421875.003906-.632812-.105468-8.316407.089844-12.804688.09375-12.851563.007813-.214844-.003906-.429687-.003906-.644531 0-.292969.011719-.589844-.003906-.886719v-.003906c-.027344-.484375-.074219-.972656-.144532-1.460938-.007812-.046874-.679687-4.5625-1.449218-12.789062-.019532-.207031-.042969-.410156-.066406-.613281-.039063-.277344-.078126-.929688-.113282-1.503907-.113281-1.828124-.261718-4.324218-.917968-7.179687l-1.90625-8.589844c-.015626-.066406-.03125-.136719-.046876-.203125-.203124-.859375-.398437-1.960937-.605468-3.125-.398438-2.230468-.847656-4.765625-1.652344-7.570312-.078125-.273438-.164062-.546875-.257812-.8125-1.203126-3.453125-2.339844-6.949219-3.378907-10.398438-.066406-.210937-.136719-.421875-.207031-.628906-5.4375-15.488281-13.621094-35.796875-28.796875-55.582031-16.253906-21.796875-36.71875-40.347657-59.191406-53.648438-.042969-.023437-.082031-.046875-.121094-.070312-26.257813-15.210938-56.394531-24.386719-87.179687-26.546875-2.015626-.234375-3.917969-.269532-5.675782-.238282v29.996094c.90625-.027344 1.714844-.023437 2.25.046875.320313.042969.644532.074219.96875.097657 26.351563 1.792968 52.121094 9.597656 74.535156 22.566406 19.089844 11.308594 36.523438 27.144531 50.414063 45.800781.046875.0625.089844.117187.136719.179687 12.464844 16.226563 19.257812 32.859376 24.246094 47.027344 1.085937 3.589844 2.265624 7.21875 3.511718 10.804688.332032 1.253906.589844 2.703125.859375 4.230468.265625 1.488282.539063 3.023438.921875 4.660157l1.898438 8.554687c.011718.054688.023437.109375.039062.164063.097656.429687.160156 1.417969.210938 2.289062.0625.996094.128906 2.113281.28125 3.347657.597656 6.335937 1.144531 10.671874 1.425781 12.773437-.0625 2.09375-.152344 6.464844-.074219 12.925781-.023437 1.234375.027344 2.355469.070313 3.359375.039062.90625.082031 1.9375.023437 2.398438-.003906.054687-.011718.109375-.019531.164062l-.988281 8.824219c-.207032 1.664062-.320313 3.238281-.425782 4.757812-.117187 1.617188-.226562 3.152344-.433593 4.496094-.851563 3.695313-1.65625 7.515625-2.390625 11.378906-3.59375 15.234376-8.816406 33.273438-20.152344 51.859376-.035156.054687-.070312.113281-.101562.171874-12.816407 21.664063-29.972657 40.867188-49.613282 55.539063-23.941406 17.507813-52.503906 29.542969-82.605468 34.804687-.269532.046876-.542969.101563-.8125.164063-1.109376.257813-2.578126.398437-4.175782.519531v47.808594c68.378906 0 132.667969-26.628906 181.019532-74.980469 43.375-43.371093 69.25-99.570312 74.121093-160.042969.699219-1.980468 1.003907-4.136718.792969-6.363281zm0 0"/><path d="m325.835938 399.304688c.058593-.046876.113281-.089844.171874-.132813 15.683594-12.285156 29.300782-28.246094 39.390626-46.164063 9.148437-15.589843 12.777343-30.222656 15.457031-42.722656.066406-.3125.125-.621094.171875-.933594.332031-2.230468.75-4.394531 1.246094-6.4375.09375-.394531.175781-.792968.238281-1.195312.378906-2.414062.421875-4.578125.453125-6.15625.011718-.550781.023437-1.304688.050781-1.5625.023437-.203125.042969-.402344.054687-.605469.113282-1.671875.28125-3.28125.507813-4.921875.003906-.039062.011719-.082031.015625-.121094.371094-2.847656.121094-5.265624-.027344-6.710937-.015625-.160156-.035156-.316406-.046875-.472656-.003906-.195313-.007812-.386719-.019531-.578125-.195312-3.925782-.117188-6.335938-.085938-7.101563.148438-1.578125.058594-3.207031-.328124-4.84375-.007813-.023437-.589844-2.617187-1.085938-7.332031-.019531-.199219-.046875-.394531-.074219-.589844-.011719-.132812-.015625-.261718-.023437-.398437-.070313-1.4375-.191406-3.847657-1.019532-6.640625-.011718-.042969-.023437-.085938-.035156-.125-.480468-1.566406-.90625-3.148438-1.269531-4.710938-.046875-.203125-.097656-.402344-.152344-.605468-.0625-.230469-.1875-.914063-.273437-1.414063-.269532-1.503906-.632813-3.5625-1.375-5.84375-.132813-.40625-.28125-.808594-.449219-1.199219-.832031-1.96875-1.535156-3.875-2.152344-5.839844-.105469-.320312-.214843-.640624-.339843-.953124-4.4375-11.328126-10.0625-24.480469-20.714844-37.347657-11.632813-14.609375-25.902344-26.820312-41.273438-35.316406-.070312-.039063-.144531-.078125-.214844-.117187-17.40625-9.257813-36.449218-14.535157-56.632812-15.738282v30.0625c15.148438 1.136719 29.410156 5.199219 42.441406 12.105469 15.082032 8.367187 25.882813 19.726563 32.292969 27.792969.066406.085937.136719.167968.203125.253906 7.746094 9.324219 12.066406 19.328125 15.789062 28.800781.761719 2.367188 1.636719 4.753907 2.605469 7.105469.089844.394531.191407.984375.28125 1.484375.191407 1.066406.421875 2.382813.800781 3.816406.445313 1.890625.953126 3.800781 1.515626 5.6875.003906.082031.007812.164063.011718.242188.039063.777343.089844 1.800781.261719 2.992187.40625 3.769532.863281 6.585938 1.203125 8.398438-.054688 1.839844-.066406 4.699218.117188 8.554687.015624 1.167969.121093 2.175781.199218 2.9375.011719.125.027344.25.039063.375-.257813 1.984375-.460938 4.003907-.601563 6.011719-.144531 1.453125-.167968 2.789062-.191406 3.878906-.011719.585938-.023438 1.277344-.058594 1.742188-.578125 2.492187-1.074218 5.078125-1.480468 7.714844-2.28125 10.582031-5.125 21.871093-11.964844 33.492187-.050782.085937-.101563.175781-.152344.261719-8.152344 14.519531-19.117188 27.414062-31.710938 37.296875-15.09375 11.449219-32.441406 19.398437-51.601562 23.675781v30.601562c1.207031-.160156 2.503906-.386718 3.851562-.738281 24.5-5.0625 46.695313-15.058593 65.984376-29.714843zm0 0"/><path d="m290.992188 345.152344c8.542968-7.613282 15.824218-17.328125 21.066406-28.121094 4.675781-8.929688 5.925781-17.378906 6.753906-22.992188.085938-.589843.171875-1.164062.257812-1.71875.046876-.308593.085938-.617187.117188-.929687.792969-8.644531.253906-15.136719-.015625-18.300781.101563-1.484375-.023437-2.9375-.335937-4.324219l.003906.03125s-.007813-.042969-.019532-.105469c-.003906-.007812-.003906-.015625-.003906-.023437-.050781-.269531-.171875-.976563-.289062-2.074219-.003906-.035156-.007813-.066406-.011719-.097656-.046875-.914063-.164063-2.644532-.796875-4.777344-.160156-.527344-.292969-1.019531-.40625-1.507812-.015625-.074219-.035156-.152344-.054688-.226563l-.03125-.175781c-.140624-.789063-.375-2.105469-.875-3.648438-.132812-.410156-.285156-.816406-.453124-1.214844-.246094-.578124-.453126-1.144531-.636719-1.726562-.105469-.328125-.21875-.648438-.34375-.96875-1.542969-3.933594-4.410157-11.242188-10.179688-18.234375-5.660156-7.09375-12.628906-13.039063-20.152343-17.195313-.070313-.039062-.140626-.078124-.210938-.113281-8.714844-4.636719-18.246094-7.242187-28.339844-7.757812-.011718 0-.023437 0-.039062-.003907v30.078126c5.070312.445312 9.835937 1.820312 14.183594 4.113281 5.171874 2.882812 8.925781 6.84375 11.171874 9.667969.066407.085937.132813.167968.203126.25 2.441406 2.941406 3.90625 6.277343 5.269531 9.730468.28125.851563.585937 1.699219.914062 2.542969.089844.503906.21875 1.167969.414063 1.925781.148437.617188.300781 1.226563.46875 1.828125.023437.285157.058594.605469.101562.953125.132813 1.183594.273438 2.191406.40625 3.019532.015625.96875.085938 1.828124.144532 2.507812.214843 2.5625.578124 6.804688.074218 12.652344-.070312.46875-.140625.949218-.214844 1.441406-.660156 4.480469-1.347656 9.117188-3.714843 13.578125-.089844.167969-.175781.339844-.257813.515625-2.460937 5.097656-6.871094 12.488281-13.960937 18.855469-4.644531 3.871093-9.675781 7.03125-15.203125 9.554687v32.023438c13.105468-4.050782 24.46875-10.191406 34.65625-18.738282.117187-.097656.230468-.195312.339844-.292968zm0 0"/></g></svg>