<?xml version="1.0" encoding="iso-8859-1"?>
<!-- Generator: Adobe Illustrator 19.0.0, SVG Export Plug-In . SVG Version: 6.00 Build 0)  -->
<svg version="1.1" id="Layer_1" xmlns="http://www.w3.org/2000/svg" xmlns:xlink="http://www.w3.org/1999/xlink" x="0px" y="0px"
	 viewBox="0 0 512.001 512.001" style="enable-background:new 0 0 512.001 512.001;" xml:space="preserve">
<path style="fill:#EEE5DD;" d="M383.93,109.327c-37.867,4.962-81.488,7.794-127.93,7.794c-46.443,0-90.063-2.832-127.93-7.794
	c-17.698,18.144-31.579,40.029-40.318,64.372C133.349,182.625,192,187.997,256,187.997s122.651-5.372,168.247-14.298
	C415.509,149.356,401.627,127.472,383.93,109.327z"/>
<path style="fill:#DDCBBD;" d="M77.275,313.284v70.876c46.911,10.215,109.706,16.463,178.725,16.463s131.813-6.248,178.725-16.463
	v-70.876C387.813,323.499,325.018,329.747,256,329.747C186.982,329.747,124.187,323.499,77.275,313.284z"/>
<path style="fill:#EEE5DD;" d="M77.275,242.225v71.058c46.911,10.215,109.706,16.463,178.725,16.463s131.813-6.248,178.725-16.463
	v-71.058C387.813,252.441,325.018,258.689,256,258.689S124.187,252.441,77.275,242.225z"/>
<g>
	<path style="fill:#DDCBBD;" d="M256,117.121c46.449,0,90.077-2.833,127.948-7.796C351.491,76.04,306.163,55.369,256,55.369l0,0
		c-50.163,0-95.493,20.672-127.948,53.956C165.923,114.288,209.549,117.121,256,117.121z"/>
	<path style="fill:#DDCBBD;" d="M428.616,187.464c-1.27-4.732-2.746-9.378-4.388-13.946c-45.594,8.923-104.237,14.294-168.23,14.294
		c-63.991,0-122.637-5.371-168.23-14.294c-1.64,4.568-3.117,9.213-4.388,13.946l-0.147,0.535
		c-3.887,14.65-5.962,30.037-5.962,45.911v8.316c46.911,10.215,109.706,16.463,178.725,16.463s131.813-6.248,178.725-16.463v-8.316
		C434.725,217.844,432.593,202.277,428.616,187.464z"/>
	<path style="fill:#DDCBBD;" d="M256,471.499c-57.224,0-110.171-4.296-153.335-11.585c22.938,30.324,59.302,49.925,100.256,49.925
		h106.157c40.953,0,77.318-19.602,100.256-49.925C366.171,467.204,313.224,471.499,256,471.499z"/>
</g>
<path style="fill:#EEE5DD;" d="M77.275,384.16v0.034c0,28.436,9.451,54.662,25.376,75.718
	c43.167,7.291,96.118,11.586,153.348,11.586c57.229,0,110.181-4.296,153.347-11.586c15.926-21.056,25.376-47.282,25.376-75.718
	v-0.034c-46.911,10.215-109.706,16.463-178.725,16.463C186.982,400.623,124.187,394.375,77.275,384.16z"/>
<path style="fill:#4C4B4F;" d="M83.384,187.464l-0.147,18.85h345.379v-18.85L402.609,61.633
	c-7.157-34.632-37.657-59.472-73.02-59.472H182.411c-35.363,0-65.864,24.84-73.021,59.472L83.384,187.464"/>
<g>
	<path style="fill:#20272E;" d="M77.275,211.033v14.133l22.047,63.5c4.771,16.503,19.879,27.863,37.057,27.863h49.998
		c17.179,0,32.288-11.361,37.057-27.863l22.047-63.5v-14.133H77.275z"/>
	<path style="fill:#20272E;" d="M434.725,211.033v14.133l-22.047,63.5c-4.771,16.503-19.879,27.863-37.057,27.863h-49.998
		c-17.179,0-32.288-11.361-37.057-27.863l-22.047-63.5v-14.133H434.725z"/>
</g>
<path style="fill:#3D3C40;" d="M493.15,187.464H18.852C8.44,187.464,0,195.904,0,206.316c0,10.412,8.44,18.852,18.852,18.852H493.15
	c10.411,0,18.852-8.44,18.852-18.852C512.001,195.904,503.56,187.464,493.15,187.464z"/>
<path style="opacity:0.3;fill:#20272E;enable-background:new    ;" d="M493.15,187.464h-64.534
	c-0.005-0.027-26.007-125.831-26.007-125.831c-7.157-34.632-37.657-59.472-73.02-59.472h-73.663V509.84h53.151
	c40.953,0,77.318-19.602,100.256-49.925c0.004-0.001,0.009-0.001,0.013-0.003c15.926-21.056,25.376-47.282,25.376-75.718v-0.034
	v-70.876v-71.058v-8.316c0-2.934-0.096-5.844-0.236-8.743h58.661c10.411,0,18.852-8.44,18.852-18.852S503.56,187.464,493.15,187.464
	z"/>
<g>
</g>
<g>
</g>
<g>
</g>
<g>
</g>
<g>
</g>
<g>
</g>
<g>
</g>
<g>
</g>
<g>
</g>
<g>
</g>
<g>
</g>
<g>
</g>
<g>
</g>
<g>
</g>
<g>
</g>
</svg>
