<svg id="Layer_1" enable-background="new 0 0 495.999 495.999" height="512" viewBox="0 0 495.999 495.999" width="512" xmlns="http://www.w3.org/2000/svg"><path d="m288.87 67.799c0 21.206-7.231 35.014-12.85 47.77-10.111 22.952-45.93 22.949-56.04 0-5.597-12.705-9.586-20.483-11.72-33.75-.849-5.241-1.523-12.937-.87-18.23 2.266-18.349 19.401-32.94 40.61-32.94 22.363 0 40.87 16.441 40.87 37.15z" fill="#f9cfac"/><path d="m288.609 63.589c-1.382 17.608-7.18 28.7-12.59 40.98-10.111 22.952-45.93 22.949-56.04 0-6.159-13.981-11.237-23.743-12.59-40.98 1.06-8.58 5.34-16.27 11.71-22.06 24.557-22.33 65.77-8.216 69.51 22.06z" fill="#ffe4cc"/><path d="m391.039 330.239c0 20.533-16.639 37.16-37.16 37.16h-211.759c-29.674 0-47.061-33-31.16-57.4 3.84-5.91 9.36-10.73 16.07-13.71l69.89-20.43h102.16l69.89 20.43c13.36 5.937 22.069 19.188 22.069 33.95z" fill="#5fc68f"/><path d="m288.87 67.799c0 4.7-.38 9.39-1.13 14.02-1.79-6.75-5.61-12.79-10.84-17.54-22.708-20.649-61.249-10.332-68.64 17.54-2.637-16.281-1.27-29.276 10.84-40.29 25.881-23.535 69.77-6.475 69.77 26.27z" fill="#6d6d6d"/><path d="m268.429 20.429v15.69h-40.86c0-17.241-.045-16.493.13-17.91 1.817-17.072 22.651-24.273 34.76-12.23 3.832 3.843 5.97 9.024 5.97 14.45z" fill="#6d6d6d"/><path d="m288.439 62.429c-.18 1.8-.41 3.6-.7 5.39-1.79-6.75-5.61-12.79-10.84-17.54-22.708-20.649-61.249-10.332-68.64 17.54-.29-1.79-.52-3.59-.7-5.39 2.797-17.72 19.609-31.78 40.44-31.78 20.874 0 37.649 14.092 40.44 31.78z" fill="#797a7a"/><path d="m268.299 18.209c-5.469 14.329-35.123 14.35-40.6 0 1.817-17.072 22.651-24.273 34.76-12.23 3.2 3.21 5.34 7.48 5.84 12.23z" fill="#797a7a"/><path d="m309.479 138.109c-3.52-3.53-8.15-5.29-12.77-5.29-10.278 0-85.429 0-95.67 0-12.259 0-14.387 5.061-22.12 14.8 10.734 57.27 18 37.94 18 128.24h102.16c0-52.297 1.64-64.988 7.59-86.24 8.322-29.687 6.874-26.221 7.43-27.89 1.216-5.099 2.98-13.787 2.98-14.12-.419-.513.602.76-7.6-9.5z" fill="#b3cec9"/><path d="m303.154 144.409-5.875-7.35c-2.821-2.829-6.533-4.24-10.236-4.24-7.386 0-69.237 0-76.684 0-9.838 0-11.552 4.081-17.73 11.863 7.035 37.538 13.643 36.387 14.231 81.684.293 22.522 18.616 40.633 41.14 40.633 22.461 0 40.847-18.049 41.14-40.633.349-26.868 2.666-36.515 5.887-48.019.42-1.502 9.166-32.669 8.127-33.938z" fill="#cae0dd"/><path d="m217.339 152.839c0 5.23-2.004 10.447-5.98 14.45-116.308 117.094-89.971 91.352-120.99 122.37-13.094 13.094-35.225 4.213-35.26-14.08.022-5.621 2.294-10.774 5.99-14.45-3.35-10.04 2.86-20.85 13.26-22.8 7.66-1.44 14.24-4.69 21.63-12.08l86.48-87.86c12.863-12.863 34.87-3.703 34.87 14.45z" fill="#f9cfac"/><path d="m440.89 275.579c-.036 18.284-22.157 27.184-35.26 14.08-31.005-31.005-4.853-5.445-120.99-122.37-6.049-6.091-7.52-15.01-4.35-22.45 5.57-13.22 22.941-16.75 33.24-6.45l86.48 87.86c7.39 7.39 13.97 10.64 21.63 12.08 10.4 1.95 16.61 12.76 13.26 22.8 3.679 3.66 5.968 8.812 5.99 14.45z" fill="#f9cfac"/><path d="m215.719 144.839c-2.073 4.851-2.469 4.531-26.39 28.78-90.385 91.629-70.551 71.632-98.96 100.04-10.347 10.346-27.917 7.413-33.62-6.08.99-2.34 2.43-4.54 4.35-6.45-3.35-10.04 2.86-20.85 13.26-22.8 7.66-1.44 14.24-4.69 21.63-12.08l86.48-87.86c10.214-10.215 27.544-6.903 33.25 6.45z" fill="#ffe4cc"/><path d="m439.249 267.579c-5.701 13.488-23.27 16.43-33.62 6.08-28.389-28.389-8.693-8.53-98.96-100.04-24.033-24.364-24.38-24.032-26.38-28.78 5.564-13.207 22.944-16.746 33.24-6.45l86.48 87.86c7.39 7.39 13.97 10.64 21.63 12.08 10.4 1.95 16.61 12.76 13.26 22.8 1.92 1.91 3.36 4.11 4.35 6.45z" fill="#ffe4cc"/><path d="m217.35 341.859c-24.221 12.121-23.155 11.412-25.17 13.25-.16.14-2.6 2.99-2.8 3.29-1.324 1.9-2.68 5.502-2.68 9h-20.44v-38.32c46.427 11.615 35.419 8.862 51.09 12.78z" fill="#f9cfac"/><path d="m329.739 329.079v38.32h-143.04c0-5.595 2.941-11.183 8.11-14.23.34-.2 22.54-11.31 22.54-11.31s5.83-3.89 10.29-6.87c10.549-7.045 25.723-2.66 29.93 10.04l.65 1.93z" fill="#f9cfac"/><path d="m205.35 338.859c-9.614 4.802-11.675 5.463-14.369 8.438-6.297 6.955-14.673 11.102-24.721 11.102v-29.32z" fill="#ffe4cc"/><path d="m329.739 329.079v29.32h-132.011c-3.426 0-4.257-4.624-1.889-5.79 25.847-12.731 18.872-8.984 31.8-17.62 10.549-7.045 25.723-2.66 29.93 10.04l.65 1.93z" fill="#ffe4cc"/><g fill="#cae0dd"><path d="m127.998 458.481c-4.418 0-8-3.582-8-8v-58.482c0-4.418 3.582-8 8-8s8 3.582 8 8v58.482c0 4.418-3.582 8-8 8z"/><path d="m367.998 491.585c-4.418 0-8-3.582-8-8v-91.586c0-4.418 3.582-8 8-8s8 3.582 8 8v91.586c0 4.418-3.582 8-8 8z"/><path d="m247.998 473.102c-4.418 0-8-3.582-8-8v-73.104c0-4.418 3.582-8 8-8s8 3.582 8 8v73.104c0 4.418-3.582 8-8 8z"/><path d="m175.998 495.999c-4.418 0-8-3.582-8-8v-73.104c0-4.418 3.582-8 8-8s8 3.582 8 8v73.104c0 4.418-3.582 8-8 8z"/><path d="m311.998 495.999c-4.418 0-8-3.582-8-8v-73.104c0-4.418 3.582-8 8-8s8 3.582 8 8v73.104c0 4.418-3.582 8-8 8z"/></g><path d="m368.969 296.289-69.89-20.43h-102.16l-69.89 20.43c-12.074 5.362-20.248 16.656-21.8 29.46 2.23 18.39 17.9 32.65 36.89 32.65h24.14c0-9.165 0-23.372 0-30.32l-23.76-8h23.76l39.253 9.819c7.541 1.886 15.529.499 21.993-3.819 4.296-2.87 10.767-4.746 15.845-2.305 15.338 7.374 32.597 9.753 49.108 5.625l35.542-8.885c0-.631-2.614-.435 23.5-.435-24.187 8.234-21.76 7.179-21.76 7.92v30.4h24.14c18.845 0 34.629-14.075 36.89-32.65-1.561-12.86-9.761-24.11-21.801-29.46z" fill="#7adbae"/></svg>