<svg height="512" viewBox="0 0 58 58" width="512" xmlns="http://www.w3.org/2000/svg"><g id="Page-1" fill="none" fill-rule="evenodd"><g id="014---Mace" fill-rule="nonzero" transform="translate(0 -1)"><path id="Shape" d="m57.98 29.07-3.96-8.78h.01c2.0694656-3.1701058 1.6311341-7.3572152-1.05-10.03l-21.21 21.22c-1.1736051 1.1736051-3.0763949 1.1736051-4.25 0s-1.1736051-3.0763949 0-4.25l21.22-21.21c-2.6782039-2.66976645-6.8569468-3.10722209-10.03-1.05v.01l-8.78-3.96c-.0946264-.04453716-.2070222-.02492564-.2809739.04902607-.0739517.0739517-.0935633.18634756-.0490261.28097393l3.87 8.62-2.7 2.7v.01l-8.62-3.88c-.0946264-.04453716-.2070222-.02492564-.2809739.04902607-.0739517.0739517-.0935633.18634756-.0490261.28097393l3.87 8.62-2.7 2.7-8.62-3.87c-.0947145-.0487944-.210106-.0307827-.2854444.0445556-.0753383.0753384-.09335.1907299-.0445556.2854444l3.87 8.62c-1.7101831 1.7284704-1.7101831 4.5115296 0 6.24l2.54 2.54-4.24 2.82-.58-.58c-.2093562-.2051569-.4977796-.3088001-.7898334-.2838218-.2920539.0249783-.5586888.1760935-.7301666.4138218l-2.36 3.3c-.2842005.3989127-.2376379.944965.11 1.29l.71.71-7.21 8.72-1.13-1.13c-.22167372-.221493-.53435649-.3262661-.84472844-.2830497-.31037196.0432163-.58253841.2294241-.73527156.5030497l-2.52 4.55c-.21724089.3881093-.15203821.8730543.16 1.19l1.59 1.59 1.59 1.59c.31694574.3120382.80189068.3772409 1.19.16l4.55-2.52c.27362563-.1527331.45983338-.4248996.50304973-.7352716.04321635-.3103719-.0615567-.6230547-.28304973-.8447284l-1.13-1.13 8.72-7.21.71.71c.345035.3476379.8910873.3942005 1.29.11l3.3-2.36c.2377283-.1714778.3888435-.4381127.4138218-.7301666.0249783-.2920538-.0786649-.5804772-.2838218-.7898334l-.58-.58 2.82-4.24 2.54 2.54c1.7284704 1.7101831 4.5115296 1.7101831 6.24 0l8.62 3.87c.0947145.0487944.210106.0307827.2854444-.0445556.0753383-.0753384.09335-.1907299.0445556-.2854444l-3.87-8.62 2.7-2.7 8.62 3.87c.0946264.0445372.2070222.0249256.2809739-.0490261s.0935633-.1863475.0490261-.2809739l-3.88-8.62h.01l2.7-2.7 8.62 3.87c.0946264.0445372.2070222.0249256.2809739-.0490261s.0935633-.1863475.0490261-.2809739z" fill="#95a5a5"/><path id="Shape" d="m24.69 38.55-2.82 4.24-2.83-2.83 3.53-3.53z" fill="#603e26"/><path id="Shape" d="m22.57 36.43-3.53 3.53-2.83-2.83 4.24-2.82z" fill="#805333"/><path id="Shape" d="m17.02 46.43-8.72 7.21-1.47-1.47 7.97-7.96z" fill="#805333"/><path id="Shape" d="m14.8 44.21-7.97 7.96-1.47-1.47 7.21-8.72z" fill="#a56a43"/><path id="Shape" d="m55.33 15.92c-.0080469 1.5507857-.4590879 3.0669774-1.3 4.37h-.01l-4.99 5.24-2.7 2.7h-.01l-5.07 5.08-2.7 2.7-5.08 5.08c-1.7284704 1.7101831-4.5115296 1.7101831-6.24 0l-4.66-4.66 4.95-4.95c1.1751514 1.1698661 3.0748486 1.1698661 4.25 0l21.21-21.22c1.4973833 1.5040776 2.3417142 3.5376575 2.35 5.66z" fill="#7f8c8d"/><path id="Shape" d="m39.52 6.16-.41 3.53c-.0482059.4479595-.4020405.8017941-.85.85l-3.53.41c-.4659333.044451-.9083811-.2129732-1.1-.64l-.16-.34-3.87-8.62c-.0445372-.09462637-.0249256-.20702223.0490261-.28097393.0739517-.07395171.1863475-.09356323.2809739-.04902607l8.78 3.96.17.08c.4318989.18616498.6916002.63252644.64 1.1z" fill="#bdc3c7"/><path id="Shape" d="m31.75 13.94-.42 3.53c-.0469528.4448211-.3957656.7977865-.84.85l-3.53.41c-.4688831.0464128-.9152548-.2109547-1.11-.64l-.16-.34-3.87-8.62c-.0445372-.09462637-.0249256-.20702223.0490261-.28097393.0739517-.07395171.1863475-.09356323.2809739-.04902607l8.62 3.88.33.15c.4329664.1915611.6947884.6386725.65 1.11z" fill="#bdc3c7"/><path id="Shape" d="m23.97 21.72-.41 3.53c-.0548766.4447356-.4052644.7951234-.85.85l-3.53.41c-.4685446.0448477-.9140699-.2120318-1.11-.64l-.16-.34-3.87-8.62c-.0487944-.0947145-.0307827-.210106.0445556-.2854444.0753384-.0753383.1907299-.09335.2854444-.0445556l8.62 3.87.34.16c.4279682.1959301.6848477.6414554.64 1.11z" fill="#bdc3c7"/><path id="Shape" d="m57.65 29.4-8.62-3.87-.34-.16c-.4270268-.1916189-.684451-.6340667-.64-1.1l.41-3.53c.0482059-.4479595.4020405-.8017941.85-.85l3.53-.41c.4674736-.0516002.913835.2081011 1.1.64l.08.17 3.96 8.78c.0445372.0946264.0249256.2070222-.0490261.2809739s-.1863475.0935633-.2809739.0490261z" fill="#bdc3c7"/><path id="Shape" d="m49.87 37.18-8.62-3.87-.34-.16c-.4290453-.1947452-.6864128-.6411169-.64-1.11l.41-3.53c.0522135-.4442344.4051789-.7930472.85-.84l3.53-.42c.4713275-.0447884.9184389.2170336 1.11.65l.15.33 3.88 8.62c.0445372.0946264.0249256.2070222-.0490261.2809739s-.1863475.0935633-.2809739.0490261z" fill="#bdc3c7"/><path id="Shape" d="m42.09 44.96-8.62-3.87-.34-.16c-.4279682-.1959301-.6848477-.6414554-.64-1.11l.41-3.53c.0548766-.4447356.4052644-.7951234.85-.85l3.53-.41c.4685446-.0448477.9140699.2120318 1.11.64l.16.34 3.87 8.62c.0487944.0947145.0307827.210106-.0445556.2854444-.0753384.0753383-.1907299.09335-.2854444.0445556z" fill="#bdc3c7"/><g fill="#7f8c8d"><circle id="Oval" cx="36.008" cy="7.435" r="1"/><circle id="Oval" cx="28.23" cy="15.213" r="1"/><circle id="Oval" cx="20.452" cy="22.992" r="1"/><circle id="Oval" cx="51.565" cy="22.992" r="1"/><circle id="Oval" cx="43.787" cy="30.77" r="1"/><circle id="Oval" cx="36.008" cy="38.548" r="1"/></g><path id="Shape" d="m22.32 44.89-3.3 2.36c-.3989127.2842005-.944965.2376379-1.29-.11l-.71-.71-2.22-2.22 4.24-4.25 3.41 3.41c.2051569.2093562.3088001.4977796.2838218.7898334-.0249783.2920539-.1760935.5586888-.4138218.7301666z" fill="#a56a43"/><path id="Shape" d="m19.04 39.96-4.24 4.25-2.94-2.94c-.3476379-.345035-.3942005-.8910873-.11-1.29l2.36-3.3c.1714778-.2377283.4381127-.3888435.7301666-.4138218.2920538-.0249783.5804772.0786649.7898334.2838218z" fill="#cb8252"/><path id="Shape" d="m9.21 56.35-4.55 2.52c-.38810932.2172409-.87305426.1520382-1.19-.16l-1.59-1.59 4.95-4.95 1.47 1.47 1.13 1.13c.22149303.2216737.32626608.5343565.28304973.8447284-.04321635.310372-.2294241.5825385-.50304973.7352716z" fill="#a56a43"/><path id="Shape" d="m6.83 52.17-4.95 4.95-1.59-1.59c-.31203821-.3169457-.37724089-.8018907-.16-1.19l2.52-4.55c.15273315-.2736256.4248996-.4598334.73527156-.5030497.31037195-.0432164.62305472.0615567.84472844.2830497l1.13 1.13z" fill="#cb8252"/></g></g></svg>