<?xml version="1.0" encoding="iso-8859-1"?>
<!-- Generator: Adobe Illustrator 18.0.0, SVG Export Plug-In . SVG Version: 6.00 Build 0)  -->
<!DOCTYPE svg PUBLIC "-//W3C//DTD SVG 1.1//EN" "http://www.w3.org/Graphics/SVG/1.1/DTD/svg11.dtd">
<svg version="1.1" id="Capa_1" xmlns="http://www.w3.org/2000/svg" xmlns:xlink="http://www.w3.org/1999/xlink" x="0px" y="0px"
	 viewBox="0 0 297 297" style="enable-background:new 0 0 297 297;" xml:space="preserve">
<g>
	<path style="fill:#5E4534;" d="M157.13,272.605c-41.689,41.689-84.181,24.754-120.835-11.899s-53.588-79.146-11.899-120.835
		c44.53-44.53,161.761-29.027,161.761-29.027S201.66,228.075,157.13,272.605z"/>
	<path style="opacity:0.3;fill:#5E4534;" d="M157.13,246.873c-41.689,41.689-84.181,24.755-120.835-11.899
		c-17.68-17.68-30.769-36.718-34.907-56.37c-6.308,28.693,9.595,56.79,34.907,82.101c36.654,36.654,79.146,53.588,120.835,11.899
		c29.425-29.425,32.635-90.586,31.429-128.699C187.363,179.917,180.553,223.45,157.13,246.873z"/>
	<path style="fill:#935733;" d="M114.56,162.102l20.341,20.341c2.567,2.567,6.73,2.567,9.297,0L270.767,39.936
		c2.567-2.567,2.567-6.73,0-9.297l-4.403-4.403c-2.567-2.567-6.73-2.567-9.297,0L114.56,152.805
		C111.993,155.372,111.993,159.535,114.56,162.102z"/>
	<path style="opacity:0.3;fill:#935733;" d="M270.768,30.638l-4.403-4.403c-0.115-0.115-0.237-0.219-0.359-0.324L140.303,167.443
		c-2.567,2.568-6.73,2.568-9.297,0l-15.489-15.489l-0.957,0.85c-2.567,2.567-2.567,6.73,0,9.297l20.341,20.341
		c2.567,2.568,6.73,2.568,9.297,0L270.768,39.936C273.335,37.369,273.335,33.206,270.768,30.638z"/>
	<path style="opacity:0.45;fill:#D5C295;" d="M145.421,190.119c-3.792-3.792-16.767,2.354-21.737,2.468
		c0.114-4.969-1.709-9.975-5.501-13.768s-8.798-5.616-13.767-5.501c0.114-4.969,6.26-17.944,2.468-21.737
		c-7.363-7.363-27.27,0.606-34.633,7.969c-7.363,7.363-7.363,19.3,0,26.663c3.792,3.792,8.798,5.616,13.767,5.501
		c-0.114,4.969,1.709,9.975,5.501,13.767c3.792,3.792,8.798,5.616,13.767,5.501c-0.114,4.969,1.709,9.975,5.501,13.767
		c7.363,7.363,19.3,7.363,26.663,0C144.815,217.389,152.784,197.482,145.421,190.119z"/>
	<path style="fill:#5E4534;" d="M280.532,2.38l14.087,14.088c3.009,3.009,3.186,7.83,0.407,11.052l-25.626,29.708
		c-3.085,3.576-8.558,3.778-11.897,0.438l-18.17-18.17c-3.339-3.339-3.138-8.813,0.438-11.897L269.48,1.973
		C272.702-0.807,277.523-0.629,280.532,2.38z"/>
	<path style="opacity:0.3;fill:#5E4534;" d="M293.694,15.542l-24.293,28.163c-3.085,3.576-8.558,3.778-11.897,0.438l-17.094-17.094
		l-0.637,0.55c-3.576,3.085-3.778,8.558-0.438,11.897l18.17,18.17c3.339,3.339,8.813,3.138,11.897-0.438l25.626-29.708
		c2.779-3.222,2.602-8.043-0.407-11.052L293.694,15.542z"/>
	
		<ellipse transform="matrix(0.7071 0.7071 -0.7071 0.7071 159.1902 -35.7085)" style="fill:#F9B65F;" cx="122.699" cy="174.304" rx="37.95" ry="25.24"/>
	<path style="fill:#5E4534;" d="M137.515,189.125c4.329-4.331,1.204-14.477-6.98-22.662s-18.326-11.308-22.655-6.977
		s-1.204,14.477,6.98,22.662S133.186,193.457,137.515,189.125z"/>
	<path style="fill:#935733;" d="M16.255,257.002l23.747,23.747c3.182,3.182,8.341,3.182,11.523,0l4.814-4.814
		c3.182-3.182,3.182-8.341,0-11.523l-23.747-23.747c-3.182-3.182-8.341-3.182-11.523,0l-4.814,4.814
		C13.073,248.661,13.073,253.82,16.255,257.002z"/>
	<path style="opacity:0.3;fill:#935733;" d="M56.339,265.935l-4.814,4.814c-3.182,3.182-8.341,3.182-11.523,0l-23.747-23.747
		c-0.242-0.242-0.459-0.498-0.664-0.761c-2.493,3.197-2.276,7.822,0.664,10.761l23.747,23.747c3.182,3.182,8.341,3.182,11.523,0
		l4.814-4.814c2.94-2.94,3.157-7.565,0.664-10.761C56.798,265.436,56.581,265.693,56.339,265.935z"/>
	
		<rect x="57.778" y="215.168" transform="matrix(-0.7071 -0.7071 0.7071 -0.7071 -19.9293 428.2797)" style="fill:#F9B65F;" width="41.914" height="6.199"/>
</g>
<g>
</g>
<g>
</g>
<g>
</g>
<g>
</g>
<g>
</g>
<g>
</g>
<g>
</g>
<g>
</g>
<g>
</g>
<g>
</g>
<g>
</g>
<g>
</g>
<g>
</g>
<g>
</g>
<g>
</g>
</svg>
