<?xml version="1.0" encoding="iso-8859-1"?>
<!-- Generator: Adobe Illustrator 19.0.0, SVG Export Plug-In . SVG Version: 6.00 Build 0)  -->
<svg version="1.1" id="Capa_1" xmlns="http://www.w3.org/2000/svg" xmlns:xlink="http://www.w3.org/1999/xlink" x="0px" y="0px"
	 viewBox="0 0 464 464" style="enable-background:new 0 0 464 464;" xml:space="preserve">
<path style="fill:#E9686A;" d="M304,464l-72-32l-72,32V288h144V464z"/>
<path style="fill:#DD3E46;" d="M200,288v158.224L232,432l32,14.224V288H200z"/>
<path style="fill:#FCF05A;" d="M56,176c0-15.04,17.704-27.56,21.416-41.432c3.832-14.352-5.128-34.024,2.144-46.592
	c7.376-12.744,28.96-14.768,39.304-25.112S131.2,30.936,144,23.56c12.568-7.272,32.232,1.688,46.584-2.144
	C204.44,17.704,216.96,0,232,0s27.56,17.704,41.432,21.416c14.352,3.832,34.024-5.128,46.592,2.144
	c12.744,7.376,14.768,28.96,25.112,39.304S377.064,75.2,384.44,88c7.272,12.568-1.688,32.232,2.144,46.584
	C390.296,148.44,408,160.96,408,176s-17.704,27.56-21.416,41.432c-3.832,14.352,5.128,34.024-2.144,46.592
	c-7.376,12.744-28.96,14.768-39.304,25.112S332.8,321.064,320,328.44c-12.568,7.272-32.232-1.688-46.584,2.144
	C259.56,334.296,247.04,352,232,352s-27.56-17.704-41.432-21.416c-14.352-3.832-34.024,5.128-46.592-2.144
	c-12.744-7.376-14.768-28.96-25.112-39.304S86.936,276.8,79.56,264c-7.272-12.568,1.688-32.232-2.144-46.584
	C73.704,203.56,56,191.04,56,176z"/>
<circle style="fill:#E97424;" cx="232" cy="176" r="128"/>
<path style="fill:#FCF05A;" d="M288,176c13.255,0,24-10.745,24-24s-10.745-24-24-24s-24,10.745-24,24
	c0.026,2.732,0.524,5.438,1.472,8h-66.944c0.948-2.562,1.446-5.268,1.472-8c0-13.255-10.745-24-24-24s-24,10.745-24,24
	s10.745,24,24,24c-13.255,0-24,10.745-24,24s10.745,24,24,24s24-10.745,24-24c-0.026-2.732-0.524-5.438-1.472-8h66.944
	c-0.948,2.562-1.446,5.268-1.472,8c0,13.255,10.745,24,24,24s24-10.745,24-24S301.255,176,288,176z"/>
<g>
</g>
<g>
</g>
<g>
</g>
<g>
</g>
<g>
</g>
<g>
</g>
<g>
</g>
<g>
</g>
<g>
</g>
<g>
</g>
<g>
</g>
<g>
</g>
<g>
</g>
<g>
</g>
<g>
</g>
</svg>
