<svg id="Capa_1" enable-background="new 0 0 512 512" height="512" viewBox="0 0 512 512" width="512" xmlns="http://www.w3.org/2000/svg"><g><path d="m428.249 127.394-26.311 26.311c-3.909 3.909-9.198 6.124-14.726 6.167l-20.717.16-12.062-32.638z" fill="#f3d802"/><path d="m428.249 127.394h-73.816l5.447 14.74h53.63z" fill="#d4a806"/><path d="m471.87 94.756-26.471 26.471c-3.949 3.949-9.305 6.167-14.889 6.167h-76.078l-8.918-24.131c-1.525-4.125 1.528-8.507 5.925-8.507z" fill="#f3d802"/><path d="m471.87 94.756h-120.43c-4.398 0-7.45 4.382-5.925 8.507l2.303 6.233h109.312z" fill="#d4a806"/><path d="m499.902 62.118h-167.171c-14.446 0-26.157 11.711-26.157 26.157 0 4.257 1.039 8.449 3.026 12.213l24.225 45.879c1.643 3.112.268 6.963-2.975 8.33l-53.756 22.665v30.227l84.948-36.584c4.114-1.772 6.122-6.454 4.569-10.656l-21.097-57.086c-1.525-4.125 1.528-8.507 5.925-8.507h122.199c5.585 0 10.941-2.218 14.89-6.167l15.795-15.795c3.94-3.94 1.15-10.676-4.421-10.676z" fill="#fcee56"/><path d="m83.751 127.394 26.311 26.311c3.909 3.909 9.198 6.124 14.726 6.167l20.717.16 12.062-32.638z" fill="#f3d802"/><path d="m83.751 127.394h73.816l-5.447 14.74h-53.63z" fill="#d4a806"/><path d="m40.13 94.756 26.471 26.471c3.949 3.949 9.305 6.167 14.889 6.167h76.078l8.918-24.131c1.524-4.125-1.528-8.507-5.925-8.507z" fill="#f3d802"/><path d="m40.13 94.756h120.43c4.398 0 7.45 4.382 5.925 8.507l-2.303 6.233h-109.312z" fill="#d4a806"/><path d="m12.098 62.118h167.171c14.446 0 26.157 11.711 26.157 26.157 0 4.257-1.039 8.449-3.026 12.213l-24.225 45.879c-1.643 3.112-.268 6.963 2.975 8.33l53.756 22.665v30.227l-84.948-36.584c-4.114-1.772-6.122-6.454-4.569-10.656l21.097-57.086c1.524-4.125-1.528-8.507-5.925-8.507h-122.2c-5.585 0-10.941-2.218-14.89-6.167l-15.795-15.796c-3.939-3.939-1.149-10.675 4.422-10.675z" fill="#fcee56"/><path d="m240.245 70.503h31.585v30.57h-31.585z" fill="#e6b700"/><path d="m271.195 492.463-9.78 16.476c-2.423 4.082-8.332 4.082-10.755 0l-9.78-16.476c-3.862-6.505-5.899-13.931-5.899-21.496v-364.683c0-2.878 2.333-5.211 5.211-5.211h31.691c2.878 0 5.211 2.333 5.211 5.211v364.682c0 7.566-2.038 14.991-5.899 21.497z" fill="#fcee56"/><path d="m261.302 101.073v369.894c0 7.565-2.038 14.991-5.899 21.496l-7.261 12.232 2.519 4.243c2.423 4.082 8.332 4.082 10.755 0l9.78-16.476c3.862-6.505 5.899-13.931 5.899-21.496v-364.682c0-2.878-2.333-5.211-5.211-5.211z" fill="#f3d802"/><circle cx="256.038" cy="36.849" fill="#fcee56" r="36.849"/><path d="m274.782 5.126c3.252 5.493 5.126 11.898 5.126 18.744 0 20.351-16.498 36.849-36.849 36.849-6.846 0-13.252-1.873-18.744-5.126 6.416 10.836 18.218 18.105 31.724 18.105 20.351 0 36.849-16.498 36.849-36.849-.001-13.505-7.271-25.307-18.106-31.723z" fill="#f3d802"/><g><path d="m333.126 254.121c-2.105 9.068-9.016 16.092-18.031 18.354l-38 9.526-42.117 10.558-21.637 5.43c-9.214 2.314-15.78 9.255-17.572 18.583-1.782 9.328 1.751 18.208 9.453 23.753l29.756 21.439v19.313l-38.886-28.068c-12.58-9.057-18.583-24.138-15.675-39.376 2.918-15.227 14.081-27.036 29.12-30.809l25.441-6.379 42.117-10.558 34.196-8.578c3.356-.834 5.816-3.346 6.597-6.712.782-3.377-.334-6.712-2.97-8.942l-3.387-2.856c-3.294-2.783-3.71-7.723-.928-11.017 2.783-3.304 7.713-3.721 11.017-.928l3.377 2.845c7.108 6.006 10.224 15.365 8.129 24.422z" fill="#d4a806"/></g><g><path d="m314.345 432.554c-.323 8.286-4.753 15.8-11.84 20.105l-25.41 15.436-16.395 9.964-.605.365c-1.272.771-2.668 1.136-4.054 1.136-2.637 0-5.211-1.334-6.681-3.752-2.241-3.69-1.074-8.505 2.616-10.746l9.328-5.67 15.79-9.589 17.291-10.496c2.637-1.605 4.211-4.294 4.336-7.369.115-3.075-1.251-5.878-3.752-7.681l-17.875-12.882v-19.25l27.015 19.448c6.734 4.847 10.559 12.695 10.236 20.981z" fill="#d4a806"/></g><g><path d="m234.978 265.899v15.884c-.636 0-1.261-.083-1.897-.24l-36.177-9.068c-9.026-2.262-15.936-9.297-18.031-18.364-2.095-9.057 1.021-18.417 8.14-24.41l3.366-2.845c3.304-2.793 8.234-2.376 11.017.928 2.783 3.293 2.366 8.234-.928 11.017l-3.377 2.856c-2.647 2.23-3.762 5.566-2.991 8.932.782 3.366 3.252 5.889 6.608 6.723z" fill="#d4a806"/></g><g><path d="m315.909 353.01-38.813 27.964-42.117 30.35-17.948 12.934c-2.501 1.803-3.867 4.607-3.752 7.681.125 3.085 1.699 5.764 4.336 7.369l17.364 10.537v18.271l-25.483-15.457c-7.087-4.305-11.506-11.819-11.84-20.105-.323-8.286 3.502-16.134 10.235-20.98l27.088-19.521 42.117-30.35 29.673-21.377c7.713-5.545 11.246-14.425 9.464-23.753-1.793-9.328-8.359-16.269-17.572-18.583l-21.564-5.409v-16.082l25.368 6.326c15.05 3.773 26.202 15.582 29.12 30.809 2.917 15.237-3.096 30.319-15.676 39.376z" fill="#d4a806"/></g></g></svg>