<svg height="511pt" viewBox="-4 0 511 511.998" width="511pt" xmlns="http://www.w3.org/2000/svg"><g fill="#e59f6a"><path d="M503.207 341.918l-5.25-37.094a7.505 7.505 0 0 0-4.93-6.023l-32.765-11.547c-4.125-14.625-11.239-36.676-19.336-56.113-12.348-29.664-22.106-42.325-32.625-42.325-.004 0-.016.004-.012 0-7.492.008-37.95 12.77-55.434 20.38a7.484 7.484 0 0 0-4.214 4.796l-9.786 33.887a7.497 7.497 0 1 0 10.195 8.957c19.15-8.328 42.196-17.516 48.645-18.957 2.211 1.965 10.028 11.351 26.13 53.906l-14.766 2.957a7.506 7.506 0 0 0-5.82 9.106l11.695 48.754a7.503 7.503 0 0 0 9.043 5.543c4.027-.97 6.511-5.016 5.543-9.043l-9.875-41.18 9.43-1.89c8.296 23.077 14.96 44.179 17.265 51.609l-5.39 25.914-8.962 5.175a7.499 7.499 0 0 0-2.746 10.243 7.502 7.502 0 0 0 6.504 3.754c1.27 0 2.563-.325 3.742-1.008l11.871-6.856a7.5 7.5 0 0 0 3.594-4.965l6.465-31.101c.008-.027.008-.059.016-.09.03-.156.054-.312.074-.473.012-.086.023-.171.031-.257.004-.024.008-.043.008-.063.351-4.074 2.785-33.621 1.55-53.754l20.645 7.278 4.61 32.582a7.503 7.503 0 0 0 8.476 6.375 7.502 7.502 0 0 0 6.379-8.477zm0 0M155.14 213.992a7.495 7.495 0 0 0-4.214-4.797c-17.488-7.61-47.946-20.37-55.434-20.375 0-.004-.008 0-.012 0-10.52 0-20.277 12.657-32.628 42.32-8.094 19.438-15.211 41.489-19.336 56.114l-32.762 11.55a7.492 7.492 0 0 0-4.934 6.024l-5.246 37.09a7.499 7.499 0 0 0 7.434 8.55c3.68 0 6.89-2.702 7.418-6.448l4.61-32.582 20.644-7.278c-1.235 20.133 1.199 49.68 1.55 53.754 0 .024.004.043.008.063.008.086.024.171.035.261.02.157.043.313.07.469.009.031.009.063.016.094l6.47 31.097a7.512 7.512 0 0 0 3.589 4.97l11.871 6.85a7.5 7.5 0 0 0 10.246-2.742 7.499 7.499 0 0 0-2.746-10.246l-8.96-5.175-5.392-25.914c2.305-7.43 8.97-28.532 17.266-51.606l9.434 1.887-9.88 41.18a7.503 7.503 0 0 0 7.302 9.25 7.502 7.502 0 0 0 7.285-5.75l11.695-48.754a7.497 7.497 0 0 0-5.82-9.106l-14.766-2.957c16.106-42.555 23.918-51.941 26.129-53.906 6.45 1.441 29.496 10.633 48.645 18.96a7.5 7.5 0 0 0 10.195-8.96zm0 0"/><path d="M448.355 482.59c-35.777-.203-85.394-16.027-85.394-54.992V225.43c0-90.606 17.156-182.684 24.125-216.352.945-4.562-4.297-7.828-7.984-4.984l-37.293 28.742-15.387-29.48c-1.781-3.415-6.582-3.637-8.668-.403l-33.086 51.195a16.519 16.519 0 0 1-28.523-1.328L230.02 2.7c-1.7-3.255-6.207-3.65-8.442-.735l-37.23 48.574-49.993-45.66c-3.437-3.137-8.925-.32-8.375 4.3 4.192 35.27 14.844 134.176 14.844 228.997v189.422c0 38.965-49.617 54.789-85.398 54.992-35.074.2-29.02 29.406-15.012 29.406h422.953c14.008 0 20.063-29.207-15.012-29.406zm0 0"/></g><path d="M448.355 482.59c-35.777-.203-85.394-16.027-85.394-54.992V225.43c0-90.606 17.156-182.684 24.125-216.352.945-4.562-4.297-7.832-7.984-4.988l-25.614 19.742c-7.254 41.27-19.351 122.004-19.351 201.598v202.168c0 38.965 45.328 54.789 78.02 54.992 32.042.2 26.511 29.406 13.71 29.406h37.5c14.008 0 20.063-29.207-15.012-29.406zm0 0" fill="#c98353"/><path d="M175.254 216.613l55.851 29.852a4.53 4.53 0 0 1 2.258 5.101l-1.586 6.266a4.527 4.527 0 0 1-4.785 3.398l-36.191-3.207c-12.57-1.113-22.207-11.644-22.207-24.265v-13.153c-.004-3.417 3.644-5.605 6.66-3.992zm0 0M328.527 216.613l-55.851 29.852a4.53 4.53 0 0 0-2.258 5.101l1.586 6.266a4.527 4.527 0 0 0 4.785 3.398l36.191-3.207c12.57-1.113 22.207-11.644 22.207-24.265v-13.153c.004-3.417-3.644-5.605-6.66-3.992zm0 0" fill="#4e5173"/><path d="M177.938 44.684a7.546 7.546 0 0 0 1.457 1.734l13.664 12.023a12.476 12.476 0 0 1 4.234 9.368v40.91c0 4.144 3.355 7.5 7.5 7.5a7.5 7.5 0 0 0 7.5-7.5v-40.91a27.472 27.472 0 0 0-9.324-20.625l-9.586-8.434-9.035 11.79zm0 0M302.734 132.2c-4.14 0-7.5-3.36-7.5-7.5V91.222a7.5 7.5 0 1 1 15 0v33.476a7.5 7.5 0 0 1-7.5 7.5zm0 0" fill="#c98353"/><path d="M249.89 428.117l-26.718-44.187c-.965-1.598-3.32-1.473-4.113.215l-6.73 14.332c-.876 1.863-3.56 1.765-4.298-.16-3.355-8.786-9.996-27.036-12.129-39.22-.379-2.152-3.261-2.632-4.336-.73-4.527 8.043-7.367 16.715-9.105 22.63-.606 2.05-3.422 2.288-4.344.358-6.949-14.511-21.957-52.242-11.601-86.898.515-1.719 2.71-2.219 3.937-.914 9.79 10.441 31.719 26.91 38.844 31.55a2.337 2.337 0 0 0 2.707-.097c7.5-5.777 16.473-18.144 21.031-24.277 1.102-1.48 3.403-1.16 4.055.566 4.039 10.668 9.574 26.2 12.601 34.758.73 2.074 3.664 2.074 4.399 0 3.027-8.559 8.558-24.09 12.597-34.758.653-1.726 2.954-2.047 4.055-.566 4.559 6.133 13.531 18.5 21.035 24.277a2.33 2.33 0 0 0 2.703.098c7.13-4.64 29.055-21.11 38.848-31.551 1.227-1.305 3.418-.805 3.934.914 10.36 34.656-4.649 72.387-11.598 86.898-.926 1.93-3.742 1.692-4.344-.359-1.742-5.914-4.578-14.586-9.11-22.629-1.07-1.902-3.956-1.422-4.331.73-2.133 12.184-8.774 30.434-12.133 39.22-.734 1.925-3.418 2.023-4.297.16l-6.73-14.332c-.793-1.688-3.149-1.813-4.114-.215l-26.718 44.187c-.907 1.504-3.086 1.504-3.996 0zm0 0" fill="#4e5173"/><path d="M200.855 462.098c.817-4.063-1.812-8.016-5.875-8.832s-8.015 1.812-8.828 5.875c-3.414 16.98-19.714 41.129-43.195 52.433-.262.125-.516.27-.758.422h27.14c17.102-14.64 28.38-34.289 31.516-49.898zm0 0M322.36 475.867c-.633-4.094-4.465-6.902-8.56-6.265a7.494 7.494 0 0 0-6.26 8.558c1.8 11.64 11.136 24.403 20.105 33.836h22.44c-8.733-5.836-25.929-24.527-27.726-36.129zm0 0" fill="#c98353"/></svg>