<svg xmlns="http://www.w3.org/2000/svg" viewBox="0 0 512 512" width="512" height="512"><path d="M470.086 272.516c22.741 0 41.856-18.125 41.913-40.866l.001-.424c0-114.02-114.615-206.452-256-206.452S0 117.206 0 231.226l.001.424c.057 22.741 19.172 40.866 41.913 40.866h428.172z" fill="#e6646e"/><path d="M156.904 231.65l-.001-.424c0-108.096 53.179-196.73 120.884-205.655-7.189-.489-14.442-.797-21.787-.797-141.385 0-256 92.431-256 206.452l.001.424c.057 22.741 19.172 40.866 41.913 40.866h136.622c-11.737 0-21.603-18.125-21.632-40.866z" fill="#dc4655"/><path d="M346.034 421.521l-20.552-149.005H186.518l-20.552 149.005c-4.79 34.737 22.2 65.705 57.264 65.705h65.54c35.066 0 62.056-30.968 57.264-65.705z" fill="#f5dcb4"/><path d="M223.52 454.553l16.619-120.486c2.254-16.344 16.223-28.519 32.722-28.519h57.176l-4.556-33.032H186.518l-20.552 149.005c-4.791 34.737 22.199 65.705 57.264 65.705h5.392c-4.668-9.79-6.712-21.001-5.102-32.673z" fill="#ebc9a0"/><g fill="#faebc8"><ellipse cx="206.45" cy="140.39" rx="66.06" ry="57.806"/><path d="M362.017 43.321c-9.431 9.419-15.178 21.681-15.178 35.131 0 29.645 27.729 53.677 61.935 53.677 21.884 0 41.074-9.862 52.091-24.711-25.617-27.523-59.59-49.668-98.848-64.097zM451.834 256c0-41.047-35.916-74.323-80.221-74.323-44.305 0-80.221 33.276-80.221 74.323 0 5.684.753 11.197 2.057 16.516h156.329c1.304-5.319 2.056-10.832 2.056-16.516z"/></g><g fill="#f5dcb4"><path d="M36.281 125.269C16.164 152.34 3.569 183.441.7 216.71a49.294 49.294 0 0 0 24.074 6.258c27.365 0 49.548-22.183 49.548-49.548.001-23.397-16.235-42.956-38.041-48.151zM140.387 140.387c0 16.422 7.862 31.21 20.429 41.733 5.993-38.293 18.778-72.33 36.311-98.898-32.058 3.974-56.74 28.016-56.74 57.165z"/></g></svg>
