<svg id="Capa_1" enable-background="new 0 0 512 512" height="512" viewBox="0 0 512 512" width="512" xmlns="http://www.w3.org/2000/svg"><path d="m129.245 358.052c-8.892-8.892-11.509-22.286-6.618-33.871 38.973-92.308 108.059-169.002 195.871-217.441l193.502-106.74-106.739 193.501c-48.439 87.812-125.133 156.898-217.441 195.871-11.585 4.891-24.979 2.275-33.871-6.618z" fill="#fcf2b6"/><path d="m405.261 193.501 106.739-193.5-370.403 370.402 12.351 12.351c8.892 8.892 22.286 11.509 33.872 6.618 92.308-38.973 169.002-108.059 217.441-195.871z" fill="#ffde91"/><path d="m512 0-57.393 31.659-402.506 402.506 25.735 25.734 402.504-402.504z" fill="#ffde91"/><path d="m512 0-447.032 447.032 12.868 12.867 402.504-402.504z" fill="#edc472"/><path d="m93.935 472.476 10.266-24.725-39.952-39.952-24.725 10.266-39.524 82.08 11.855 11.855z" fill="#9bb9c3"/><path d="m104.201 447.751-19.976-19.976-78.297 78.298 5.927 5.927 82.08-39.524z" fill="#738c96"/></svg>