<?xml version="1.0" encoding="iso-8859-1"?>
<!-- Generator: Adobe Illustrator 19.0.0, SVG Export Plug-In . SVG Version: 6.00 Build 0)  -->
<svg version="1.1" id="Layer_1" xmlns="http://www.w3.org/2000/svg" xmlns:xlink="http://www.w3.org/1999/xlink" x="0px" y="0px"
	 viewBox="0 0 512 512" style="enable-background:new 0 0 512 512;" xml:space="preserve">
<path style="fill:#E8E8E8;" d="M259.962,385.363c-0.275-0.275-4.134-4.135-18.436-18.438l32.006-47.315
	c-11.178-11.178,7.083-29.425,18.254-18.254l-0.521-0.521l81.715-71.695c-3.504-79.055-57.438-42.128-64.386-37.029l-31.721,23.802
	c-21.129,15.855-51.44,10.085-65.2-12.731c-11.707-19.419-7.034-44.936,11.495-58.84l31.721-23.803
	c6.871-5.272,57.906-47.133-18.688-72.56c-51.54-14.239-108.555-6.166-155.706,26.35C-6.948,134.86-25.962,255.344,37.343,339.71
	c34.869,46.47,87.263,72.032,141.102,74.402C195.391,370.364,237.668,363.067,259.962,385.363z"/>
<path style="fill:#D8D8D8;" d="M241.526,366.925l23.784-35.16c-23.4-5.597-45.061-19.076-60.631-39.826
	c-33.919-45.203-28.041-112.698,21.364-149.796c0.386-0.289,21.638-16.198,28.845-21.605c6.871-5.272,57.906-47.133-18.688-72.56
	C184.661,33.74,127.646,41.813,80.495,74.329C-6.948,134.86-25.962,255.344,37.343,339.71
	c34.869,46.47,87.263,72.032,141.102,74.402c16.946-43.748,59.224-51.044,81.517-28.748
	C259.687,385.088,255.828,381.229,241.526,366.925z"/>
<path style="fill:#C1BFBD;" d="M57.999,92.592C-9.775,156.883-20.082,263.18,37.343,339.71
	c34.869,46.47,87.263,72.032,141.102,74.402c5.275-13.617,15.565-27.626,28.043-34.712C64.587,372.694-19.285,215.763,57.999,92.592
	z"/>
<circle style="fill:#EF5552;" cx="152.63" cy="112.29" r="23.434"/>
<path style="fill:#C42A26;" d="M152.627,112.293c0-8.673,4.714-16.239,11.717-20.292c-15.536-8.992-35.151,2.224-35.151,20.292
	c0,12.943,10.491,23.434,23.434,23.434c4.27,0,8.27-1.148,11.717-3.142C157.341,128.532,152.627,120.966,152.627,112.293z"/>
<circle style="fill:#FE8727;" cx="86.92" cy="178.41" r="29.879"/>
<path style="fill:#E56813;" d="M101.858,152.54c-19.813-11.465-44.818,2.839-44.818,25.872c0,23.044,25.008,37.335,44.818,25.872
	C81.952,192.764,81.959,164.057,101.858,152.54z"/>
<circle style="fill:#5ABCE2;" cx="151.82" cy="335.81" r="29.879"/>
<path style="fill:#3CA5C6;" d="M166.763,309.941c-4.397-2.544-9.495-4.008-14.94-4.008c-16.501,0-29.879,13.378-29.879,29.879
	c0,23.06,25.016,37.327,44.819,25.872C146.857,350.165,146.863,321.458,166.763,309.941z"/>
<circle style="fill:#58C445;" cx="79.59" cy="271.56" r="30.26"/>
<path style="fill:#3FA529;" d="M94.721,245.362c-20.064-11.61-45.391,2.872-45.391,26.203c0,23.344,25.337,37.807,45.391,26.203
	C74.564,286.101,74.566,257.025,94.721,245.362z"/>
<path style="fill:#CC7954;" d="M264.866,378.309c-18.288-18.29-48.971-17.262-68.528,2.296
	c-23.506,23.505-29.814,57.318-18.4,84.633c27.314,11.414,61.127,5.106,84.633-18.4C282.129,427.281,283.156,396.6,264.866,378.309z
	"/>
<path style="fill:#B25F42;" d="M277.096,401.592c-6.993-36.809-52.759-48.988-80.758-20.987
	c-23.506,23.505-29.814,57.318-18.4,84.633c11.461,4.789,24.065,6.446,36.572,5.034
	C205.556,429.439,241.497,386.509,277.096,401.592z"/>
<path style="fill:#989898;" d="M272.499,318.578l-32.006,47.315c6.72,6.72,30.037,30.038,36.874,36.876l47.315-32.007
	C318.902,364.982,277.999,324.078,272.499,318.578z"/>
<path style="fill:#777371;" d="M287.764,333.843l-15.265-15.265l-32.006,47.315c12.216,12.217,10.979,10.98,15.265,15.266
	L287.764,333.843z"/>
<path style="fill:#EF5552;" d="M506.634,136.629c-13.949-13.949-34.596,3.659-35.03,4.039L290.232,299.803l53.226,53.226
	c6.931-7.899,154.019-175.537,159.138-181.371C502.975,171.224,520.582,150.577,506.634,136.629z"/>
<path style="fill:#CE2C28;" d="M305.457,314.77L486.83,155.635c0.336-0.295,12.833-10.945,24.933-9.204
	c-0.546-3.4-2.087-6.76-5.128-9.801c-13.949-13.949-34.596,3.659-35.03,4.039L290.232,299.803l53.226,53.226l0.121-0.137
	L305.457,314.77z"/>
<path style="fill:#CECECE;" d="M343.667,351.778l-52.185-52.184c-2.425-2.425-5.65-3.761-9.079-3.761
	c-5.758,0-8.693,3.374-10.634,5.315c-5.006,5.007-5.006,13.153,0,18.159l52.184,52.185
	C336.074,383.618,355.957,364.068,343.667,351.778z"/>
<path style="fill:#B5B4B4;" d="M333.533,361.904l-52.184-52.185c-3.565-3.564-4.577-8.718-3.064-13.201
	c-3.22,1.088-4.717,2.831-6.516,4.63c-5.006,5.007-5.006,13.153,0,18.159l52.184,52.185c7.532,7.535,19.661,2.741,22.79-6.516
	C342.109,366.549,337.023,365.396,333.533,361.904z"/>
<g>
</g>
<g>
</g>
<g>
</g>
<g>
</g>
<g>
</g>
<g>
</g>
<g>
</g>
<g>
</g>
<g>
</g>
<g>
</g>
<g>
</g>
<g>
</g>
<g>
</g>
<g>
</g>
<g>
</g>
</svg>
