<?xml version="1.0" encoding="UTF-8" standalone="no"?>
<!-- Generator: Adobe Illustrator 19.0.0, SVG Export Plug-In . SVG Version: 6.00 Build 0)  -->

<svg
   xmlns:dc="http://purl.org/dc/elements/1.1/"
   xmlns:cc="http://creativecommons.org/ns#"
   xmlns:rdf="http://www.w3.org/1999/02/22-rdf-syntax-ns#"
   xmlns:svg="http://www.w3.org/2000/svg"
   xmlns="http://www.w3.org/2000/svg"
   xmlns:sodipodi="http://sodipodi.sourceforge.net/DTD/sodipodi-0.dtd"
   xmlns:inkscape="http://www.inkscape.org/namespaces/inkscape"
   version="1.1"
   id="Capa_1"
   x="0px"
   y="0px"
   viewBox="0 0 511.794 511.794"
   style="enable-background:new 0 0 511.794 511.794;"
   xml:space="preserve"
   sodipodi:docname="pickaxe-wand.svg"
   inkscape:version="0.92.4 (5da689c313, 2019-01-14)"><metadata
   id="metadata3839"><rdf:RDF><cc:Work
       rdf:about=""><dc:format>image/svg+xml</dc:format><dc:type
         rdf:resource="http://purl.org/dc/dcmitype/StillImage" /><dc:title></dc:title></cc:Work></rdf:RDF></metadata><defs
   id="defs3837" /><sodipodi:namedview
   pagecolor="#ffffff"
   bordercolor="#666666"
   borderopacity="1"
   objecttolerance="10"
   gridtolerance="10"
   guidetolerance="10"
   inkscape:pageopacity="0"
   inkscape:pageshadow="2"
   inkscape:window-width="1600"
   inkscape:window-height="788"
   id="namedview3835"
   showgrid="false"
   inkscape:zoom="0.58617334"
   inkscape:cx="-29.257625"
   inkscape:cy="377.60525"
   inkscape:window-x="0"
   inkscape:window-y="27"
   inkscape:window-maximized="1"
   inkscape:current-layer="Capa_1" />
<g
   id="g3802"
   transform="matrix(-1,0,0,1,511.79436,0)">
	<path
   style="fill:#cbb292"
   d="m 7.638,504.156 v 0 C 18.49,514.61 35.759,514.293 46.22,503.448 L 380.185,169.483 342.311,131.609 8.345,465.574 c -10.844,10.461 -11.161,27.73 -0.707,38.582 z"
   id="path3796"
   inkscape:connector-curvature="0" />
	<path
   style="fill:#a5a5a4"
   d="M 372.178,76.492 C 287.15,6.74 191.202,-18.635 135.337,14.252 c 57.064,4.671 130.54,40.273 199.345,99.736 l 63.124,63.124 c 59.463,68.805 95.064,142.281 99.736,199.345 32.888,-55.865 7.512,-151.813 -62.24,-236.841 z"
   id="path3798"
   inkscape:connector-curvature="0" />
	<path
   style="fill:#7f6e5d"
   d="m 329.574,119.124 50.492,-50.492 c 6.974,-6.974 18.281,-6.974 25.255,0 l 37.871,37.871 c 6.974,6.974 6.974,18.281 0,25.255 L 392.7,182.251 c -6.974,6.974 -18.281,6.974 -25.255,0 L 329.574,144.38 c -6.974,-6.974 -6.974,-18.281 0,-25.256 z"
   id="path3800"
   inkscape:connector-curvature="0" />
</g>
<g
   id="g3804"
   transform="matrix(-1,0,0,1,511.79436,0)">
</g>
<g
   id="g3806"
   transform="matrix(-1,0,0,1,511.79436,0)">
</g>
<g
   id="g3808"
   transform="matrix(-1,0,0,1,511.79436,0)">
</g>
<g
   id="g3810"
   transform="matrix(-1,0,0,1,511.79436,0)">
</g>
<g
   id="g3812"
   transform="matrix(-1,0,0,1,511.79436,0)">
</g>
<g
   id="g3814"
   transform="matrix(-1,0,0,1,511.79436,0)">
</g>
<g
   id="g3816"
   transform="matrix(-1,0,0,1,511.79436,0)">
</g>
<g
   id="g3818"
   transform="matrix(-1,0,0,1,511.79436,0)">
</g>
<g
   id="g3820"
   transform="matrix(-1,0,0,1,511.79436,0)">
</g>
<g
   id="g3822"
   transform="matrix(-1,0,0,1,511.79436,0)">
</g>
<g
   id="g3824"
   transform="matrix(-1,0,0,1,511.79436,0)">
</g>
<g
   id="g3826"
   transform="matrix(-1,0,0,1,511.79436,0)">
</g>
<g
   id="g3828"
   transform="matrix(-1,0,0,1,511.79436,0)">
</g>
<g
   id="g3830"
   transform="matrix(-1,0,0,1,511.79436,0)">
</g>
<g
   id="g3832"
   transform="matrix(-1,0,0,1,511.79436,0)">
</g>
<g
   id="g4030"
   transform="matrix(0.99877082,0,0,1.0011122,-0.99458329,1.4329779)"><path
     id="path3941"
     d="M 417.23828,175.29687 C 403.96094,170 382.08984,165.48828 365.16797,182.41016 l -89.38281,89.8164 -12.23438,12.23828 -48.42578,48.59375 -12.14844,12.23828 -57.1875,57.35938 -12.0625,12.15234 h -0.0859 l -89.121089,89.55469 c -10.199219,10.15234 -26.683593,10.15234 -36.882812,0 l 51.285156,-59.96484 12.324219,-12.32422 39.746096,-39.74219 12.32031,-12.32422 57.10156,-57.10156 12.32422,-12.32031 48.42188,-48.42578 12.32421,-12.32032 39.7461,-39.74609 12.32031,-12.32422 67.86328,-59.18359 c 24.73047,-0.78125 40.78516,17.44531 49.03125,30.28906 1.03516,1.57812 0.92969,3.64453 -0.25781,5.10937 -1.19141,1.46875 -3.19141,1.9961 -4.94922,1.3125 z m 0,0"
     inkscape:connector-curvature="0"
     style="fill:#7f5b53" /><path
     id="path3943"
     d="M 373.41406,138.58594 7.636719,504.36328 C 2.734375,499.5 -0.0195312,492.875 0,485.96484 c -0.0117188,-6.88672 2.703125,-13.5 7.550781,-18.39453 l 37.3125,-37.40234 12.0625,-12.14844 c 0,-0.0508 0.03906,-0.0898 0.08984,-0.0898 l 39.832031,-39.91797 12.062508,-12.14844 169.91406,-170.52344 11.88672,-11.97265 37.66406,-37.75 c 12.82422,-13.81641 16.01563,-34.01953 8.07031,-51.113284 -0.58593,-1.722656 -0.0351,-3.628906 1.37891,-4.769531 1.41797,-1.144531 3.39453,-1.285156 4.95703,-0.351563 12.84375,8.15625 31.41406,24.296878 30.63281,49.203128 z m 0,0"
     inkscape:connector-curvature="0"
     style="fill:#cb8252" /><path
     id="path3945"
     d="m 503.32031,77.214844 c 0,37.855466 -30.68359,68.539066 -68.53515,68.539066 -37.85547,0 -68.53907,-30.6836 -68.53907,-68.539066 0,-37.851563 30.6836,-68.535156 68.53907,-68.535156 37.85156,0 68.53515,30.683593 68.53515,68.535156 z m 0,0"
     inkscape:connector-curvature="0"
     style="fill:#9bc8c2" /><path
     id="path3947"
     d="m 459.93359,43.390625 c 0,4.792969 -3.88672,8.675781 -8.67968,8.675781 -4.79297,0 -8.67579,-3.882812 -8.67579,-8.675781 0,-4.792969 3.88282,-8.679687 8.67579,-8.679687 4.79297,0 8.67968,3.886718 8.67968,8.679687 z m 0,0"
     inkscape:connector-curvature="0"
     style="fill:#ecf0f1" /><path
     id="path3951"
     d="m 494.64453,173.55859 c 0,4.79297 -3.88672,8.67969 -8.67969,8.67969 -4.79297,0 -8.67578,-3.88672 -8.67578,-8.67969 0,-4.79297 3.88281,-8.67578 8.67578,-8.67578 4.79297,0 8.67969,3.88281 8.67969,8.67578 z m 0,0"
     inkscape:connector-curvature="0"
     style="fill:#f18d46" /><path
     id="path3953"
     d="m 416.54297,225.62891 c 0,4.78906 -3.88672,8.67578 -8.67969,8.67578 -4.79297,0 -8.67578,-3.88672 -8.67578,-8.67578 0,-4.79297 3.88281,-8.67969 8.67578,-8.67969 4.79297,0 8.67969,3.88672 8.67969,8.67969 z m 0,0"
     inkscape:connector-curvature="0"
     style="fill:#f18d46" /><path
     id="path3957"
     d="m 407.86328,112.8125 c -3.04687,0.004 -5.875,-1.59375 -7.44531,-4.20703 -10.77735,-17.910158 -13.58203,-33.281251 -8.44141,-45.691408 4.23047,-9.453124 12.46875,-16.519531 22.45703,-19.265624 4.63282,-1.152344 9.32813,1.652343 10.50782,6.277343 1.17968,4.628907 -1.60157,9.335938 -6.22266,10.542969 -4.72266,1.425781 -8.625,4.773438 -10.75781,9.222656 -2.79688,6.945313 -0.25391,17.3125 7.33984,29.976563 1.60938,2.679691 1.65625,6.019531 0.11719,8.742191 -1.54297,2.71875 -4.42578,4.40234 -7.55469,4.40234 z m 0,0"
     inkscape:connector-curvature="0"
     style="fill:#ecf0f1" /><g
     id="g3983"
     style="fill:#f3d55b"><path
       id="path3967"
       d="m 468.60937,251.66016 c -4.79296,0 -8.67578,-3.88282 -8.67578,-8.67579 v -17.35546 c 0,-4.79297 3.88282,-8.67969 8.67578,-8.67969 4.79297,0 8.67969,3.88672 8.67969,8.67969 v 17.35546 c 0,4.79297 -3.88672,8.67579 -8.67969,8.67579 z m 0,0"
       inkscape:connector-curvature="0" /><path
       id="path3969"
       d="m 451.25391,269.01562 h -17.35547 c -4.79297,0 -8.67969,-3.88281 -8.67969,-8.67578 0,-4.79297 3.88672,-8.67968 8.67969,-8.67968 h 17.35547 c 4.79296,0 8.67968,3.88671 8.67968,8.67968 0,4.79297 -3.88672,8.67578 -8.67968,8.67578 z m 0,0"
       inkscape:connector-curvature="0" /><path
       id="path3971"
       d="m 503.32031,269.01562 h -17.35547 c -4.79297,0 -8.67578,-3.88281 -8.67578,-8.67578 0,-4.79297 3.88281,-8.67968 8.67578,-8.67968 h 17.35547 c 4.79297,0 8.67969,3.88671 8.67969,8.67968 0,4.79297 -3.88672,8.67578 -8.67969,8.67578 z m 0,0"
       inkscape:connector-curvature="0" /><path
       id="path3973"
       d="m 468.60937,303.73047 c -4.79296,0 -8.67578,-3.88672 -8.67578,-8.67969 v -17.35547 c 0,-4.79297 3.88282,-8.67968 8.67578,-8.67968 4.79297,0 8.67969,3.88671 8.67969,8.67968 v 17.35547 c 0,4.79297 -3.88672,8.67969 -8.67969,8.67969 z m 0,0"
       inkscape:connector-curvature="0" /></g><path
     id="path3985"
     d="m 309.89062,214.43359 c -3.42187,3.35547 -8.90234,3.35547 -12.32421,0 l -17.35547,-17.35547 c -0.50781,-0.53906 -0.97266,-1.12109 -1.38672,-1.73828 l 11.88672,-11.97265 c 0.67969,0.36328 1.29297,0.83203 1.82422,1.38672 l 17.35546,17.35546 c 3.38282,3.41016 3.38282,8.91407 0,12.32422 z m 0,0"
     inkscape:connector-curvature="0"
     style="fill:#804537" /><path
     id="path3987"
     d="m 275.78516,272.22656 -12.23438,12.23828 c -0.26172,-0.17578 -0.43359,-0.43359 -0.69531,-0.60937 L 245.5,266.5 c -3.40234,-3.40234 -3.40234,-8.91797 0,-12.32422 3.40234,-3.40234 8.91797,-3.40234 12.32422,0 l 17.35547,17.35938 c 0.22656,0.20703 0.42968,0.4414 0.60547,0.6914 z m 0,0"
     inkscape:connector-curvature="0"
     style="fill:#804537" /><path
     id="path3989"
     d="m 215.125,333.05859 -12.14844,12.23828 c -0.32422,-0.18359 -0.61719,-0.41796 -0.86719,-0.69531 l -17.35546,-17.35547 c -2.19922,-2.20312 -3.0625,-5.41015 -2.25391,-8.41797 0.80469,-3.0039 3.15234,-5.35546 6.16016,-6.16015 3.00781,-0.80469 6.21484,0.0547 8.41796,2.2539 l 17.35547,17.35938 c 0.25782,0.25781 0.4336,0.51953 0.69141,0.77734 z m 0,0"
     inkscape:connector-curvature="0"
     style="fill:#804537" /><path
     id="path3991"
     d="m 145.78906,402.65625 -12.0625,12.15234 h -0.0859 c -0.33593,-0.24218 -0.65234,-0.5 -0.95312,-0.78125 L 97.972656,379.3125 c -0.398437,-0.41016 -0.777344,-0.84375 -1.125,-1.30078 l 12.062504,-12.14844 c 0.48047,0.34766 0.94531,0.72656 1.38672,1.12891 l 34.71093,34.71094 c 0.3086,0.27734 0.57031,0.59765 0.78125,0.95312 z m 0,0"
     inkscape:connector-curvature="0"
     style="fill:#804537" /><path
     id="path3993"
     d="m 75.585938,448.73828 c -3.421876,3.35547 -8.902344,3.35547 -12.324219,0 L 45.90625,431.38281 c -0.367188,-0.38672 -0.714844,-0.79297 -1.042969,-1.21484 l 12.0625,-12.23828 c 0,0.0898 0,0.0898 0.08984,0 0.433594,0.43359 0.867187,0.78125 1.214844,1.1289 l 17.355469,17.35547 c 3.382812,3.41016 3.382812,8.91406 0,12.32422 z m 0,0"
     inkscape:connector-curvature="0"
     style="fill:#804537" /></g></svg>