<?xml version="1.0" encoding="iso-8859-1"?>
<!-- Generator: Adobe Illustrator 21.0.0, SVG Export Plug-In . SVG Version: 6.00 Build 0)  -->
<svg xmlns="http://www.w3.org/2000/svg" xmlns:xlink="http://www.w3.org/1999/xlink" version="1.1" id="Capa_1" x="0px" y="0px" viewBox="0 0 512.006 512.006" style="enable-background:new 0 0 512.006 512.006;" xml:space="preserve" width="512" height="512">
<g>
	<g>
		<path style="fill:#EF5350;" d="M256.003,472.035c-2.32,0-4.509-1.073-5.93-2.908l-63.628-82.166H60.726    C27.242,386.961,0,359.72,0,326.236V100.698c0-33.484,27.242-60.727,60.726-60.727h390.555c33.484,0,60.726,27.242,60.726,60.727    v225.538c0,33.484-27.241,60.726-60.726,60.726H325.56l-63.627,82.166C260.513,470.962,258.324,472.035,256.003,472.035z"/>
	</g>
	<g>
		<path style="fill:#EF5350;" d="M256.003,472.035c-2.32,0-4.509-1.073-5.93-2.908l-63.628-82.166H60.726    C27.242,386.961,0,359.72,0,326.236V100.698c0-33.484,27.242-60.727,60.726-60.727h390.555c33.484,0,60.726,27.242,60.726,60.727    v225.538c0,33.484-27.241,60.726-60.726,60.726H325.56l-63.627,82.166C260.513,470.962,258.324,472.035,256.003,472.035z"/>
	</g>
	<path style="fill:#D32F2F;" d="M456.491,40.209c9.639,10.753,15.515,24.945,15.515,40.488v149.14   c0,75.731-61.392,137.123-137.123,137.123h-18.105c-19.692,0-38.275,9.113-50.331,24.683l-38.187,49.313l21.814,28.17   c1.42,1.835,3.61,2.908,5.93,2.908c2.32,0,4.51-1.073,5.93-2.908l63.627-82.166h125.721c33.538,0,60.726-27.188,60.726-60.726   V100.698C512.006,68.97,487.544,42.863,456.491,40.209z"/>
	<path style="fill:#FFFFFF;" d="M452.348,234.179L452.348,234.179c-6.99,0-12.656-5.666-12.656-12.656v-45.349   c0-6.99,5.666-12.656,12.656-12.656l0,0c6.99,0,12.656,5.666,12.656,12.656v45.349   C465.003,228.513,459.337,234.179,452.348,234.179z"/>
	<path style="fill:#FFFFFF;" d="M51.205,261.773L51.205,261.773c-4.942-4.942-4.942-12.956,0-17.898l63.499-63.499   c4.942-4.942,12.956-4.942,17.898,0l0,0c4.942,4.942,4.942,12.956,0,17.898l-63.499,63.499   C64.161,266.715,56.148,266.715,51.205,261.773z"/>
	<path style="fill:#FFFFFF;" d="M272.516,234.94h-12.497l4.708-27.731h7.789c6.99,0,12.656-5.666,12.656-12.656   c0-6.99-5.666-12.656-12.656-12.656h-3.492l0.647-3.813c1.293-7.616-4.576-14.566-12.301-14.566h0   c-6.085,0-11.283,4.39-12.301,10.389l-1.356,7.99H215.98l0.647-3.813c1.293-7.616-4.576-14.566-12.301-14.566h0   c-6.085,0-11.283,4.39-12.301,10.389l-1.356,7.99h-15.492c-6.99,0-12.656,5.666-12.656,12.656c0,6.99,5.666,12.656,12.656,12.656   h11.194l-4.708,27.731h-6.487c-6.99,0-12.656,5.666-12.656,12.656v0c0,6.99,5.666,12.656,12.656,12.656h2.19l-0.647,3.813   c-1.293,7.616,4.576,14.566,12.301,14.566h0c6.085,0,11.283-4.39,12.301-10.389l1.356-7.99h27.731l-0.647,3.813   c-1.293,7.616,4.576,14.566,12.301,14.566h0c6.085,0,11.283-4.39,12.301-10.389l1.356-7.99h16.794   c6.99,0,12.656-5.666,12.656-12.656v0C285.172,240.606,279.506,234.94,272.516,234.94z M234.707,234.94h-27.731l4.708-27.731   h27.731L234.707,234.94z"/>
	<circle style="fill:#FFFFFF;" cx="452.348" cy="265.975" r="12.656"/>
	<circle style="fill:#FFFFFF;" cx="124.149" cy="253.319" r="12.656"/>
	<circle style="fill:#FFFFFF;" cx="59.659" cy="188.83" r="12.656"/>
	<path style="fill:#FFFFFF;" d="M407.645,232.564l-19.901-11.49l19.901-11.49c6.053-3.495,8.127-11.235,4.632-17.288   c-3.495-6.053-11.235-8.127-17.288-4.632l-19.901,11.49v-22.98c0-6.99-5.666-12.656-12.656-12.656l0,0   c-6.99,0-12.656,5.666-12.656,12.656v22.98l-19.901-11.49c-6.053-3.495-13.793-1.421-17.288,4.632   c-3.495,6.053-1.421,13.793,4.632,17.288l19.901,11.49l-19.901,11.49c-6.053,3.495-8.127,11.235-4.632,17.288   c3.495,6.053,11.235,8.127,17.288,4.632l19.901-11.49v22.98c0,6.99,5.666,12.656,12.656,12.656l0,0   c6.99,0,12.656-5.666,12.656-12.656v-22.98l19.901,11.49c6.053,3.495,13.793,1.421,17.288-4.632   C415.772,243.8,413.698,236.059,407.645,232.564z"/>
</g>















</svg>
