<?xml version="1.0"?><svg version="1.2" baseProfile="tiny-ps" viewBox="0 0 832 832" xmlns="http://www.w3.org/2000/svg" xmlns:xlink="http://www.w3.org/1999/xlink"><title>SCIZ</title><g><g fill="#e1d7d7" transform="matrix(.1 0 0 -.1 0 832)"><path d="M3331 6189c-19-11-42-30-52-42-35-42-88-154-115-242l-27-90v-300l26-88c34-110 92-226 155-308 82-108 84-117 53-241-11-41-23-112-27-158l-7-83-18-18c-26-26-34-25-125 20l-79 38-80 60c-201 149-356 348-445 571l-41 102-24 105c-13 58-29 120-35 139l-10 33-28 26c-33 31-72 47-117 47h-33l-91-30c-588-192-1108-580-1470-1097-145-207-283-478-357-698l-34-103v-31c0-17 6-46 14-64l13-33 31-26 31-26 35-6 35-7 108 28 108 27h280l70-18c82-21 214-81 280-126 124-86 226-205 305-358l43-83 34-26 34-26 47-4 47-5 115 31 115 30 95 10 95 9 97-9 97-9 98-26 97-25 82-38c45-22 114-60 153-85l72-46 89-86 88-85 50-72c27-40 73-117 102-172 57-110 72-130 112-151l27-14h82l27 14c15 8 66 56 112 107l85 93 66 42 66 43 79 28 79 28 130-1h130l82-31 82-31 56-37 56-37 87-95c48-52 99-101 114-109l27-14h82l27 14c42 22 66 54 115 151 25 50 69 124 98 165l52 75 78 76 78 77 88 59 88 59 87 37c48 20 131 50 185 65l98 27 180-1 180-1 100-28c167-47 210-46 270 6l35 31 45 87c25 47 69 117 98 156l53 70 83 67 84 67 81 40c45 22 118 50 161 62l80 23h140l140 1 117-30 117-29 48 20 48 19 22 34 23 34v108l-25 76c-196 582-611 1115-1150 1475l-120 80-180 88-180 89-130 47-130 46-51 5-50 5-41-20-40-21-17-27-18-26-34-141-35-140-35-86c-44-107-97-198-174-300l-60-79-81-76c-45-42-110-97-145-122-75-54-207-124-233-124h-18l-18 20-18 20-8 92c-4 51-17 129-27 173l-19 80 8 28c4 15 35 63 68 107l60 80 34 73c49 101 74 188 87 303l12 99-15 106-16 106-22 64c-43 127-100 213-160 245l-28 14h-86l-43-25c-66-37-130-94-189-165l-54-65-50-100-49-100-22-90c-12-49-25-107-30-128l-9-38-25-11-24-11-78 11c-96 15-202 15-293 1l-71-11-23 6-24 6-10 18c-5 10-21 69-35 132l-26 113-45 93-45 92-59 74-59 73-61 48c-33 26-76 54-95 62l-35 15h-76l-34-21z"/></g><g fill="#b3abac" transform="matrix(.1 0 0 -.1 0 832)"><path d="M3331 6189c-19-11-42-30-52-42-35-42-88-154-115-242l-27-90v-300l26-88c45-147 120-280 214-378l35-37-25-79c-29-91-47-206-47-299v-65l-22 6c-13 4-63 28-113 53l-89 46-96 71-95 71-73 80c-174 189-284 399-332 634-11 55-25 112-31 127-23 60-86 103-152 103h-34l-114-38c-844-284-1519-956-1809-1802l-32-94 5-44 5-44 19-26c11-14 31-35 46-46l28-20h52l52 1 75 24 75 24h310l70-18 70-19 90-44 90-43 81-65 81-65 56-73 55-73 48-93 47-94 34-25 34-26 48-5 49-4 63 21c35 11 98 28 139 37l75 17h280l80-17c112-24 186-50 290-101l90-44 70-53c39-28 102-84 140-122l70-71 57-85c31-47 75-123 98-170 46-94 62-115 102-136l27-14h86l31 19c17 10 46 38 65 62 116 148 227 224 385 264l69 18h180l61-16c33-9 89-30 125-47l65-31 61-49 60-48 52-67 52-66 32-19 32-20h86l22 11c12 6 32 21 45 33l23 21 44 90c123 257 311 441 568 557l92 41 90 24c50 13 133 28 185 34l95 10 75-7c89-7 191-27 279-54l63-20h79l27 14c42 22 78 66 106 129 14 32 46 89 72 127l47 70 72 69c112 106 235 176 381 217l59 17 135 4 135 4 65-14c36-8 95-23 132-33l67-18 48 20 48 19 22 34 23 34v105l-31 89c-289 820-938 1475-1754 1768l-130 47-55 5-55 4-39-23-39-23-18-35c-10-19-28-80-40-134-73-343-240-602-528-819l-74-56-101-51c-56-27-107-50-113-50h-13v191l-16 77c-9 42-24 98-34 125l-19 48 51 56c131 145 208 319 228 518l8 80-9 90-9 90-21 69c-43 143-107 249-170 282l-28 14h-86l-42-24c-64-37-129-94-189-166l-55-65-44-86-44-85-25-88-26-87-6-79-7-78-37 13c-20 7-72 19-114 26l-77 12-107-6-107-6-50-15c-27-9-55-16-62-16h-12l-5 48c-3 26-13 84-21 129l-15 81-29 71c-16 39-49 103-74 143l-45 73-69 67c-83 82-112 104-157 123l-35 15h-76l-34-21z"/></g><g fill="#937373" transform="matrix(.1 0 0 -.1 0 832)"><path d="M3330 6189c-19-12-40-29-48-38-26-33-90-169-111-235l-21-68-11-93-11-92 12-94 11-94 30-90 30-90 45-76 45-77 58-64 59-64-29-86-29-87-11-138c-6-76-12-139-13-140s-49 21-107 50l-105 52-83 60-83 60-99 103-99 102-55 86c-104 161-155 288-195 483-24 119-28 129-70 165l-31 25-36 7-37 7-43-12c-24-6-101-32-171-57l-127-45-150-74c-482-238-849-563-1150-1020-124-188-214-369-301-609l-44-120v-28c0-16 6-43 14-61l13-33 31-26 31-26 38-6 38-7 83 25c46 14 122 31 169 37l86 11 71-7c217-20 392-97 542-237 82-77 140-158 198-275l45-91 33-23 33-24h110l88 27 87 27 82 11c279 35 556-33 792-193 83-56 200-169 265-257l56-75 60-120 60-119 34-23 34-23h92l31 19 31 19 47 60c25 33 72 83 103 112l58 51 80 40 80 39 78 15c100 19 167 19 259 0l73-15 82-40 83-41 61-57c34-31 80-81 101-110l40-53 31-20 32-19h92l34 23 34 22 50 100c28 55 73 134 100 174l50 75 80 80 80 81 78 53c98 67 237 134 348 166l86 25 104 12 103 12 90-7c106-8 164-19 269-52 43-13 94-24 113-24h35l27 14c42 22 67 54 113 149l43 88 61 75 60 75 75 60 75 60 90 44 90 45 80 21 80 22h270l75-21c41-12 94-27 117-34l42-12 48 20 48 19 22 34 23 34v93l-29 85c-214 629-662 1184-1233 1530-188 114-378 202-592 275l-100 34h-67l-38-19-38-20-17-25-16-26-29-127c-48-212-89-310-197-475l-64-97-88-89c-129-132-268-230-419-295l-63-26v177l-16 82c-8 46-24 107-35 137l-21 53 50 54c95 104 169 241 207 381l17 60 5 121 6 120-18 85c-20 103-64 218-107 284l-33 49-34 23-34 23h-88l-42-21-42-22-91-91-91-91-41-71c-72-122-112-245-127-397l-7-68-15 5c-7 3-42 13-76 23l-62 17h-260l-60-17c-33-9-69-19-81-22l-21-7-6 91-7 90-30 93-30 93-47 85-48 84-80 81c-44 44-99 94-123 110l-43 28-52 4-52 4-35-22zm1577-482l6-86-12-63c-15-76-44-148-84-207l-30-44-10 24-9 24-1 95-1 95 18 60c19 64 46 122 79 172l22 32 8-8c4-4 10-46 14-94zm-1405 39c16-26 38-75 49-109l22-62 4-95 5-95-9-33c-4-18-12-34-17-35s-27 30-47 68l-38 70-16 67-15 67v74c0 41 3 89 6 106l7 32 11-4c6-2 23-25 38-51zm-1251-408c49-161 131-330 226-466l65-94 97-100 96-101 105-78 105-79 125-64c69-35 158-74 198-87l72-23v-320c0-177 3-339 7-360l6-39 38-38 37-37 39-6 38-7 39 13 39 13 31 38 31 39 2 571 2 572 12 74c18 119 61 201 155 293l48 48 65 34 66 34 53 11c29 6 88 11 130 11h78l57-15c32-8 80-26 107-40l49-25 66-62 66-61 39-81 39-81 10-59 11-60V2830h-7c-3 0-34 16-68 35s-102 48-151 64l-89 30-84 12-85 12-100-6-101-6-80-21-80-20-94-45-93-45-62-46c-33-26-66-51-72-55l-11-9-59 88-59 87-105 105-105 105-100 67c-162 108-336 181-535 224l-85 18h-380l-91-20-91-21-59 91-59 91-90 90-90 91-86 57c-47 31-124 75-171 97l-85 40-92 24c-50 14-134 30-186 37l-96 12-78-5-79-5 9 25c28 73 142 280 215 389 136 203 280 366 464 525l115 100 132 88c141 94 300 180 448 241 50 21 93 38 97 38 4 1 17-32 29-71zm3999 20c305-128 598-329 838-577 113-116 197-221 299-373l85-128 64-126c35-69 64-131 64-138v-11h-128l-127-1-68-12c-155-29-334-102-470-193l-62-42-100-101-100-101-52-79c-29-44-54-83-55-86l-3-7-90 20-90 20-190 1-190 1-104-23c-268-60-500-180-685-352l-81-75-3 629-2 630 7 6c5 4 44 19 88 35 44 15 127 52 185 82 382 200 667 535 797 941l36 112 21-6c12-3 64-24 116-46zm-4337-432c-174-100-479-367-563-494l-30-45v-78l15-28c8-16 28-40 45-54l31-26 34-7 33-6 34 7 33 8 110 115c111 115 270 255 285 250 5-2 43-50 86-107 190-255 454-482 737-632l92-49h98l34 21 34 21 19 39 20 38v27c0 15-9 46-20 69l-20 42-61 34c-370 209-559 378-754 675-115 176-110 169-148 188l-35 16h-67l-42-24zm1951 4l-41-20-21-39-22-39v-79l23-33c12-18 34-42 48-52l26-19 39-5 39-5 45 23 45 23 18 32 19 33v44l1 44-19 32c-10 18-31 42-45 53l-27 19-43 5-44 4-41-21zm480 0l-41-20-22-41-23-41 5-45 5-45 19-26c11-14 31-34 44-45l26-18 39-5 39-5 45 23 45 23 19 34 19 34v84l-19 33c-10 18-31 42-45 53l-27 19-43 5-44 4-41-21zm1951 6c-38-17-62-45-110-126-21-36-70-108-108-160l-69-95-127-125-127-125-94-66c-51-37-145-95-207-129l-114-63-21-30-22-30-3-51-4-51 20-33c12-18 35-41 53-52l33-20h91l89 47c300 155 603 422 785 691 19 28 40 52 46 52 26 0 180-140 329-300l50-53 32-14c43-17 78-17 120 3l34 17 25 36 24 36v102l-29 40c-90 124-320 333-493 448l-87 57-43 4-43 4-30-14z"/></g><g fill="#673333" transform="matrix(.1 0 0 -.1 0 832)"><path d="M3345 6196c-40-18-56-37-104-126l-40-75-27-90-28-90v-145l-1-145 19-68c39-148 97-258 195-375l62-73-25-77c-29-88-46-202-46-303v-69h-13c-7 0-63 25-123 55l-109 55-88 66-88 67-81 86-80 86-58 85c-112 167-188 360-215 553l-7 48-22 32-21 32-46 19-46 19-109-33c-314-95-630-263-912-483-110-86-328-295-409-392-234-280-401-571-523-909l-42-116v-34c0-48 11-77 40-109l26-27 37-10 36-10 84 24c119 34 191 46 285 46h82l74-14c142-28 264-81 380-168l68-50 54-61c64-74 110-146 159-247l36-76 39-22 40-22h25c14 0 61 11 104 24s103 30 133 38l55 13 180-1h180l100-27 100-27 111-55 112-54 80-61c150-112 269-264 357-455l44-95 33-20 33-20h42c23 0 54 5 68 12l25 11 60 77c70 91 130 144 221 194l66 36 78 20 78 20h174l75-19c97-25 181-68 255-130l59-49 53-71 53-72 29-14 28-15h86l33 20 32 20 50 102c27 57 68 132 91 168l43 65 100 101 101 101 75 48c147 94 293 152 454 180l89 15h204l84-15c46-8 120-26 164-40s92-25 108-25c61 0 114 49 152 140 10 25 39 77 63 115l44 70 87 85 86 85 65 38c87 50 197 92 300 113l85 17 115-6 115-6 90-26 90-27h37l37 1 31 16 31 16 19 32 20 32v81l-29 85c-293 862-991 1544-1859 1819l-103 33-38-12-39-11-30-35-30-34-12-58c-6-32-22-101-34-153l-24-95-39-92c-48-111-121-227-207-331l-64-77-78-66c-44-36-101-82-129-102-51-36-244-137-262-137h-10l-7 115-7 115-25 93c-13 50-27 102-31 115l-5 23 49 52c98 104 164 227 204 378l23 84v125l1 125-14 55c-29 120-86 256-132 314l-22 28-33 14c-19 8-47 14-64 14h-31l-37-19c-85-44-216-179-283-291-68-115-119-285-119-398 0-27-2-51-5-54s-34 3-68 14l-62 20-125 5-125 5-75-17c-41-9-87-19-101-22l-26-5-6 74c-4 40-16 109-27 153l-20 80-52 105-52 105-101 101-100 100-46 22-45 22h-30c-16-1-42-7-59-14zm162-443c14-24 36-76 49-115l25-72 5-70 6-71-11-59c-6-33-13-61-16-64-18-18-98 138-121 236l-16 67 5 90c3 50 9 98 12 108l7 18 15-12c8-7 26-32 40-56zm1398-86v-132l-28-77-29-78-30-41-30-42-11 18-10 18-4 86-5 86 15 72 16 73 26 52c15 29 36 67 48 85l22 32 10-10 10-10v-132zm-2629-377c50-147 112-273 190-390 192-287 497-523 817-631l67-23v-677l14-32c7-18 25-43 40-56l26-24 52-5 53-4 35 24 35 23 17 35 18 35v1133l15 76 14 76 36 68c73 137 188 228 340 268l50 14h160l50-14c28-7 77-26 110-41l60-28 66-66 66-66 31-61c17-33 38-88 46-121l16-61V2820l-87 45-88 46-80 24c-44 13-118 29-164 35l-85 11-85-6-86-7-93-24-93-24-82-41c-45-23-114-66-153-95-40-30-76-54-81-54s-16 13-26 29c-9 16-45 66-78 111l-62 81-90 84c-205 194-442 314-732 372l-90 18h-160l-160-1-110-23-110-23-10 17c-45 77-121 180-175 238l-65 71-78 58c-150 111-303 180-487 220l-95 21H863l-132 1 15 36c35 82 141 273 209 375 281 421 670 746 1135 949 69 30 129 54 134 52 6-1 29-58 52-126zm3932 94c308-127 574-301 813-532 143-138 255-271 368-438l82-122 69-138c39-76 70-142 70-147v-10l-67 7-68 7-100-11c-259-29-478-123-677-293-63-54-175-187-223-267l-37-62-22 6c-11 2-61 13-111 23l-90 17h-165l-165-1-105-22c-257-55-490-175-697-359l-83-73v1278l78 28c165 59 312 143 479 273l83 64 76 83c42 45 105 123 140 171l63 89 59 115 58 116 39 117c21 64 40 117 42 117s43-16 91-36zm-4350-501c-195-133-444-362-509-468l-19-30v-80l20-33 20-32 32-20 33-20h40l40 1 22 12c12 7 72 65 133 129 101 107 250 238 269 238 5 0 46-51 92-112 188-254 432-465 719-623 47-25 103-51 126-57l41-11 44 21 44 22 19 26 18 26 5 38 5 39-21 44-21 43-98 54c-331 181-568 406-766 728l-57 92-29 15-29 15h-90l-83-57zm2017 47c-11-4-33-21-48-38l-29-30-7-33-7-34 7-33 7-33 23-26c13-14 36-31 51-39l27-14h66l35 19 35 18 23 44 23 44-6 39-6 39-20 29c-11 15-33 35-49 43l-29 15-38-1c-21 0-47-4-58-9zm480 0c-11-4-33-21-48-38l-29-30-7-35-8-34 12-38c8-20 24-48 36-61l23-24 37-11 37-12 36 7 36 7 34 34 34 34 7 31 7 32-6 33c-8 40-38 80-76 100l-29 15-38-1c-21 0-47-4-58-9zm1927-9l-32-21-46-72c-224-352-455-573-776-740l-79-41-23-31c-13-17-26-43-30-58l-6-26 7-32 6-32 36-38 36-38 44-7 43-7 73 37c232 118 433 266 608 449 73 76 177 205 222 274 15 23 33 42 39 42 27 0 210-167 348-317l48-52 35-7 35-6 35 6 35 7 35 34 34 35 7 36 7 36-11 37-11 36-121 127-121 127-91 72c-50 40-128 97-172 127l-81 55-50 4-50 4-33-20z"/></g></g></svg>