<?xml version="1.0" encoding="iso-8859-1"?>
<!-- Generator: Adobe Illustrator 19.0.0, SVG Export Plug-In . SVG Version: 6.00 Build 0)  -->
<svg version="1.1" id="Layer_1" xmlns="http://www.w3.org/2000/svg" xmlns:xlink="http://www.w3.org/1999/xlink" x="0px" y="0px"
	 viewBox="0 0 512 512" style="enable-background:new 0 0 512 512;" xml:space="preserve">
<path style="fill:#E6E6E6;" d="M390.261,202.884v-68.63C390.261,60.108,330.153,0,255.994,0c-37.068,0-70.64,15.033-94.937,39.318
	c-24.285,24.297-39.318,57.87-39.318,94.937v68.63c-18.899,7.098-32.376,25.362-32.376,46.703c0,27.504,22.37,49.874,49.874,49.874
	v6.14c0,12.747,5.159,24.273,13.513,32.627c8.342,8.342,19.88,13.513,32.615,13.513l12.304,105.47
	c1.185,15.069,7.935,28.725,18.265,38.624c8.881,8.534,20.419,14.279,33.333,15.775c33.142,3.83,62.442-21.041,64.991-53.453
	l12.376-106.415c25.482,0,46.14-20.658,46.14-46.14v-6.14c27.493,0,49.862-22.37,49.862-49.874
	C422.637,228.247,409.16,209.982,390.261,202.884z"/>
<path style="fill:#CCCCCC;" d="M210.835,469.683c0.407,8.283,2.25,17.415,5.099,26.152c-10.329-9.898-17.08-23.555-18.265-38.624
	l-12.304-105.47c-12.735,0-24.273-5.171-32.615-13.513c-8.354-8.354-13.513-19.88-13.513-32.627v-6.14
	c-27.504,0-49.874-22.37-49.874-49.874c0-21.341,13.477-39.605,32.376-46.703v-68.63c0-37.068,15.033-70.64,39.318-94.937
	C185.354,15.033,218.926,0,255.994,0c-46.679,0-84.524,60.108-84.524,134.255v90.952c-11.897,7.098-20.383,3.04-20.383,24.381
	c0,6.703,0.838,13.094,2.358,18.935c4.069,15.739,13.082,27.457,23.95,30.281c1.532,0.395,2.801,1.305,3.698,2.513
	c0.886,1.209,1.4,2.717,1.4,4.285c0,12.747,3.244,24.273,8.498,32.627c2.086,3.313,4.49,6.124,7.131,8.312
	c8.32,6.888,13.338,16.962,13.275,27.763L210.835,469.683z"/>
<g>
	<path style="fill:#666666;" d="M295.982,345.147c0,1.364-0.072,2.753-0.215,4.141l-10.712,104.285
		c-1.532,14.889-14.075,26.212-29.048,26.212s-27.528-11.323-29.048-26.212l-10.712-104.285
		c-2.43-23.567,16.062-44.046,39.761-44.046C278.292,305.242,295.982,323.375,295.982,345.147z"/>
	<path style="fill:#666666;" d="M276.425,254.327c7.121,12.34-1.783,27.768-16.038,27.768h-8.773
		c-14.243,0-23.148-15.428-16.026-27.768l20.419-35.368L276.425,254.327z"/>
	<path style="fill:#666666;" d="M372.774,229.635c11.011,0,19.94,8.941,19.94,19.952c0,11.023-8.929,19.952-19.94,19.952
		c-54.997,0-99.749-44.752-99.749-99.749c0-11.011,8.929-19.94,19.952-19.94c11.011,0,19.952,8.929,19.952,19.94
		C312.93,202.789,339.776,229.635,372.774,229.635z"/>
	<path style="fill:#666666;" d="M219.022,149.85c11.023,0,19.952,8.929,19.952,19.94c0,54.997-44.74,99.749-99.737,99.749
		c-11.023,0-19.952-8.929-19.952-19.952c0-11.011,8.929-19.952,19.952-19.952c32.998,0,59.844-26.846,59.844-59.844
		C199.082,158.779,208.011,149.85,219.022,149.85z"/>
</g>
<path style="fill:#CCCCCC;" d="M305.537,114.342c-1.153,0.412-2.308,0.721-3.46,1.083l-3.32,1.1l-3.245,1.171l-3.162,1.25
	c-2.08,0.862-4.099,1.786-6.073,2.75l-2.912,1.509c-0.964,0.501-1.878,1.105-2.828,1.605c-0.937,0.533-1.834,1.137-2.746,1.695
	l-2.671,1.771c-0.879,0.602-1.707,1.279-2.582,1.873c-0.851,0.632-1.668,1.309-2.503,1.955l-2.42,2.038l-2.326,2.135l-2.254,2.202
	l-2.145,2.306c-2.508,2.697-6.725,2.85-9.422,0.342c-0.113-0.105-0.221-0.213-0.324-0.323l-0.017-0.019l-2.147-2.304l-2.26-2.196
	l-2.326-2.135l-2.425-2.034c-0.834-0.646-1.65-1.324-2.501-1.956l-2.584-1.87c-0.889-0.583-1.767-1.198-2.673-1.769
	c-0.912-0.558-1.809-1.163-2.746-1.696c-0.949-0.501-1.867-1.098-2.829-1.604l-2.913-1.509c-1.972-0.966-3.993-1.89-6.073-2.753
	l-3.162-1.252l-3.25-1.175l-3.341-1.105c-1.129-0.364-2.275-0.674-3.437-1.089c1.163-0.352,2.343-0.598,3.539-0.9
	c1.193-0.218,2.4-0.396,3.617-0.558c1.216-0.146,2.434-0.183,3.671-0.268c1.23-0.049,2.456,0.01,3.701,0.014
	c1.238,0.044,2.462,0.194,3.709,0.292c1.24,0.122,2.455,0.373,3.696,0.56c1.238,0.201,2.438,0.539,3.665,0.82
	c1.218,0.305,2.417,0.685,3.618,1.068c1.197,0.394,2.363,0.87,3.552,1.308c1.173,0.474,2.302,1.039,3.46,1.562
	c1.142,0.551,2.255,1.16,3.367,1.776c1.098,0.637,2.165,1.327,3.251,1.995c1.07,0.689,2.077,1.471,3.115,2.211
	c1.007,0.779,1.99,1.591,2.987,2.39c0.952,0.849,0.238,0.847,1.199,0.01c0.996-0.8,1.978-1.611,2.985-2.39
	c1.034-0.744,2.048-1.515,3.117-2.206c1.084-0.668,2.151-1.358,3.248-1.996c1.11-0.619,2.229-1.218,3.367-1.773
	c1.157-0.521,2.284-1.093,3.459-1.558c1.189-0.439,2.354-0.916,3.55-1.311c1.2-0.384,2.4-0.758,3.616-1.066
	c1.224-0.285,2.427-0.616,3.664-0.819c1.24-0.187,2.454-0.443,3.695-0.561c1.246-0.098,2.469-0.251,3.707-0.293
	c1.244-0.006,2.468-0.068,3.698-0.018c1.236,0.083,2.449,0.121,3.672,0.263c1.23,0.158,2.451,0.335,3.636,0.553
	C303.194,113.747,304.364,113.994,305.537,114.342z"/>
<g>
</g>
<g>
</g>
<g>
</g>
<g>
</g>
<g>
</g>
<g>
</g>
<g>
</g>
<g>
</g>
<g>
</g>
<g>
</g>
<g>
</g>
<g>
</g>
<g>
</g>
<g>
</g>
<g>
</g>
</svg>
