<?xml version="1.0" encoding="iso-8859-1"?>
<!-- Generator: Adobe Illustrator 19.0.0, SVG Export Plug-In . SVG Version: 6.00 Build 0)  -->
<svg version="1.1" id="Capa_1" xmlns="http://www.w3.org/2000/svg" xmlns:xlink="http://www.w3.org/1999/xlink" x="0px" y="0px"
	 viewBox="0 0 512 512" style="enable-background:new 0 0 512 512;" xml:space="preserve">
<path style="fill:#DDA33C;" d="M102.193,141.804H13.385c-3.98,0-7.207-3.227-7.207-7.207V48.013
	c0-26.514,21.493-48.007,48.007-48.007l0,0c26.514,0,48.007,21.493,48.007,48.007L102.193,141.804L102.193,141.804z"/>
<path style="fill:#BC802A;" d="M102.193,48.008v93.793H73.304V48.008c0-13.261-5.374-25.255-14.064-33.945
	c-5.395-5.385-12.056-9.493-19.5-11.84c4.561-1.442,9.41-2.214,14.445-2.214c13.261,0,25.255,5.375,33.945,14.054
	C96.819,22.753,102.193,34.748,102.193,48.008z"/>
<path style="fill:#FFCD43;" d="M159.565,0L54.183,0.004c13.257,0,25.254,5.613,33.952,14.685
	c8.686,9.084,14.061,21.614,14.061,35.459v113.994v21.127l16.466,30.036c0.856,1.562,0.611,3.497-0.607,4.796l-14.75,15.735
	c-0.716,0.764-1.114,1.771-1.114,2.818l0.078,215.776c0.012,31.796,24.695,57.566,55.14,57.566H417.87V137.99
	c0-1.193-0.518-2.328-1.419-3.11L401.2,121.641c-2.074-1.801-1.838-5.089,0.473-6.574l14.306-9.197
	c1.179-0.758,1.891-2.063,1.891-3.464V44.769c0-24.723-19.19-44.765-42.863-44.765H205.736L159.565,0z"/>
<path style="fill:#FFAF45;" d="M401.199,121.643l15.248,13.24c0.906,0.782,1.421,1.915,1.421,3.109V512h-38.341V137.992
	c0-1.194-0.515-2.327-1.421-3.109l-15.248-13.24c-2.08-1.802-1.843-5.086,0.474-6.579l14.301-9.194
	c1.184-0.762,1.894-2.059,1.894-3.459V44.765C379.527,20.046,360.336,0,336.666,0h38.341c23.67,0,42.861,20.046,42.861,44.765
	v57.645c0,1.4-0.71,2.697-1.884,3.459l-14.311,9.194C399.366,116.556,399.129,119.841,401.199,121.643z"/>
<path style="fill:#DDA33C;" d="M498.613,411.72c3.98,0,7.207,3.227,7.207,7.207v43.776c0,27.224-21.131,49.293-47.198,49.293
	H156.344c26.514,0,48.013-22.453,48.013-50.144v-42.925c0-3.98,3.227-7.207,7.207-7.207H498.613z"/>
<path style="fill:#BC802A;" d="M498.615,411.721c3.98,0,7.207,3.227,7.207,7.207v43.777c0,27.221-21.137,49.295-47.205,49.295
	h-32.421c26.058,0,47.195-22.074,47.195-49.295v-50.984H498.615z"/>
<g>
	<path style="fill:#DDA33C;" d="M130.342,384.988h-28.124c-4.142,0-7.5-3.357-7.5-7.5s3.358-7.5,7.5-7.5h28.124
		c4.142,0,7.5,3.357,7.5,7.5S134.484,384.988,130.342,384.988z"/>
	<path style="fill:#DDA33C;" d="M156.344,412.786h-54.117c-4.142,0-7.5-3.357-7.5-7.5s3.358-7.5,7.5-7.5h54.117
		c4.142,0,7.5,3.357,7.5,7.5S160.486,412.786,156.344,412.786z"/>
	<path style="fill:#DDA33C;" d="M417.87,53.47h-48.672c-4.142,0-7.5-3.357-7.5-7.5s3.358-7.5,7.5-7.5h48.672
		c4.142,0,7.5,3.357,7.5,7.5S422.012,53.47,417.87,53.47z"/>
	<path style="fill:#DDA33C;" d="M416.01,78.406h-32.293c-4.142,0-7.5-3.357-7.5-7.5s3.358-7.5,7.5-7.5h32.293
		c4.142,0,7.5,3.357,7.5,7.5S420.152,78.406,416.01,78.406z"/>
</g>
<g>
	<path style="fill:#AC7762;" d="M334.062,134.989H194.408c-4.142,0-7.5-3.357-7.5-7.5s3.358-7.5,7.5-7.5h139.653
		c4.142,0,7.5,3.357,7.5,7.5C341.561,131.632,338.204,134.989,334.062,134.989z"/>
	<path style="fill:#AC7762;" d="M259.665,181.136h-91.813c-4.142,0-7.5-3.357-7.5-7.5s3.358-7.5,7.5-7.5h91.813
		c4.142,0,7.5,3.357,7.5,7.5S263.807,181.136,259.665,181.136z"/>
	<path style="fill:#AC7762;" d="M360.619,181.136H291.82c-4.142,0-7.5-3.357-7.5-7.5s3.358-7.5,7.5-7.5h68.799
		c4.142,0,7.5,3.357,7.5,7.5S364.761,181.136,360.619,181.136z"/>
	<path style="fill:#AC7762;" d="M205.736,210.992h-37.885c-4.142,0-7.5-3.357-7.5-7.5s3.358-7.5,7.5-7.5h37.885
		c4.142,0,7.5,3.357,7.5,7.5S209.878,210.992,205.736,210.992z"/>
	<path style="fill:#AC7762;" d="M360.619,210.992h-45.935c-4.142,0-7.5-3.357-7.5-7.5s3.358-7.5,7.5-7.5h45.935
		c4.142,0,7.5,3.357,7.5,7.5S364.761,210.992,360.619,210.992z"/>
	<path style="fill:#AC7762;" d="M223.054,240.85h-55.203c-4.142,0-7.5-3.357-7.5-7.5s3.358-7.5,7.5-7.5h55.203
		c4.142,0,7.5,3.357,7.5,7.5S227.196,240.85,223.054,240.85z"/>
	<path style="fill:#AC7762;" d="M360.619,240.85H256c-4.142,0-7.5-3.357-7.5-7.5s3.358-7.5,7.5-7.5h104.619
		c4.142,0,7.5,3.357,7.5,7.5S364.761,240.85,360.619,240.85z"/>
	<path style="fill:#AC7762;" d="M186.793,270.707h-18.942c-4.142,0-7.5-3.357-7.5-7.5s3.358-7.5,7.5-7.5h18.942
		c4.142,0,7.5,3.357,7.5,7.5S190.936,270.707,186.793,270.707z"/>
	<path style="fill:#AC7762;" d="M360.619,270.707h-45.935c-4.142,0-7.5-3.357-7.5-7.5s3.358-7.5,7.5-7.5h45.935
		c4.142,0,7.5,3.357,7.5,7.5S364.761,270.707,360.619,270.707z"/>
	<path style="fill:#AC7762;" d="M259.665,300.564h-91.813c-4.142,0-7.5-3.357-7.5-7.5s3.358-7.5,7.5-7.5h91.813
		c4.142,0,7.5,3.357,7.5,7.5S263.807,300.564,259.665,300.564z"/>
	<path style="fill:#AC7762;" d="M360.619,300.564H291.82c-4.142,0-7.5-3.357-7.5-7.5s3.358-7.5,7.5-7.5h68.799
		c4.142,0,7.5,3.357,7.5,7.5S364.761,300.564,360.619,300.564z"/>
	<path style="fill:#AC7762;" d="M205.736,330.422h-37.885c-4.142,0-7.5-3.357-7.5-7.5s3.358-7.5,7.5-7.5h37.885
		c4.142,0,7.5,3.357,7.5,7.5S209.878,330.422,205.736,330.422z"/>
	<path style="fill:#AC7762;" d="M360.619,330.422H245.067c-4.142,0-7.5-3.357-7.5-7.5s3.358-7.5,7.5-7.5h115.552
		c4.142,0,7.5,3.357,7.5,7.5S364.761,330.422,360.619,330.422z"/>
	<path style="fill:#AC7762;" d="M287.232,210.992h-51.206c-4.142,0-7.5-3.357-7.5-7.5s3.358-7.5,7.5-7.5h51.206
		c4.142,0,7.5,3.357,7.5,7.5S291.374,210.992,287.232,210.992z"/>
	<path style="fill:#AC7762;" d="M276.376,270.707h-62.619c-4.142,0-7.5-3.357-7.5-7.5s3.358-7.5,7.5-7.5h62.619
		c4.142,0,7.5,3.357,7.5,7.5S280.519,270.707,276.376,270.707z"/>
</g>
<g>
</g>
<g>
</g>
<g>
</g>
<g>
</g>
<g>
</g>
<g>
</g>
<g>
</g>
<g>
</g>
<g>
</g>
<g>
</g>
<g>
</g>
<g>
</g>
<g>
</g>
<g>
</g>
<g>
</g>
</svg>
