<svg height="512" viewBox="0 0 58 58" width="512" xmlns="http://www.w3.org/2000/svg"><g id="004---Viking-Shield" fill="none"><circle id="Oval" cx="29" cy="29" fill="#bdc3c7" r="29"/><ellipse id="Oval" cx="29" cy="29" fill="#95a5a5" rx="22.988" ry="23.004"/><path id="Shape" d="m16 12.51v32.98c-5.0500294-3.9821649-7.99692729-10.0587921-7.99692729-16.49s2.94689789-12.5078351 7.99692729-16.49z" fill="#a56a43"/><path id="Shape" d="m25 8.39v41.22c-3.2867498-.6324645-6.3733986-2.0454637-9-4.12v-32.98c2.6270116-2.0738655 5.7134899-3.48678664 9-4.12z" fill="#cb8252"/><path id="Shape" d="m33 8.39v41.22c-2.6409616.5236295-5.3590384.5236295-8 0v-41.22c2.6412596-.52058472 5.3587404-.52058472 8 0z" fill="#cf976a"/><path id="Shape" d="m42 12.51v32.98c-2.6265808 2.0745699-5.7132382 3.487573-9 4.12v-41.22c3.2858768.63519055 6.3719057 2.047906 9 4.12z" fill="#cb8252"/><path id="Shape" d="m42 45.49v-32.98c5.0500294 3.9821649 7.9969273 10.0587921 7.9969273 16.49s-2.9468979 12.5078351-7.9969273 16.49z" fill="#a56a43"/><g fill="#3f5c6c"><circle id="Oval" cx="29" cy="4" r="1"/><circle id="Oval" cx="16.5" cy="7.349" r="1"/><circle id="Oval" cx="7.349" cy="16.5" r="1"/><circle id="Oval" cx="4" cy="29" r="1"/><circle id="Oval" cx="7.349" cy="41.5" r="1"/><circle id="Oval" cx="16.5" cy="50.651" r="1"/><circle id="Oval" cx="29" cy="54" r="1"/><circle id="Oval" cx="41.5" cy="50.651" r="1"/><circle id="Oval" cx="50.651" cy="41.5" r="1"/><circle id="Oval" cx="54" cy="29" r="1"/><circle id="Oval" cx="50.651" cy="16.5" r="1"/><circle id="Oval" cx="41.5" cy="7.349" r="1"/></g><circle id="Oval" cx="29" cy="29" fill="#95a5a5" r="7"/><circle id="Oval" cx="29" cy="29" fill="#bdc3c7" r="5"/><path id="Shape" d="m22 44v4.79c-.6839013-.229249-1.3520061-.5031719-2-.82v-3.97c0-.5522847.4477153-1 1-1s1 .4477153 1 1z" fill="#a56a43"/><path id="Shape" d="m21 40c-.5522847 0-1-.4477153-1-1v-1c0-.5522847.4477153-1 1-1s1 .4477153 1 1v1c0 .5522847-.4477153 1-1 1z" fill="#a56a43"/><path id="Shape" d="m21 9.59v10.41c0 .5522847-.4477153 1-1 1s-1-.4477153-1-1v-9.46c.644803-.3607821 1.3129527-.67815317 2-.95z" fill="#a56a43"/><path id="Shape" d="m13 34c0 8.721.05 8.162-.12 8.46-.69252-.8311965-1.3209897-1.7137284-1.88-2.64v-5.82c0-.5522847.4477153-1 1-1s1 .4477153 1 1z" fill="#805333"/><path id="Shape" d="m12 30c-.5522847 0-1-.4477153-1-1v-1c0-.5522847.4477153-1 1-1s1 .4477153 1 1v1c0 .5522847-.4477153 1-1 1z" fill="#805333"/><path id="Shape" d="m30 44v5.98c-.881.027-1.119.027-2 0v-5.98c0-.5522847.4477153-1 1-1s1 .4477153 1 1z" fill="#cb8252"/><path id="Shape" d="m29 15c-.5522847 0-1-.4477153-1-1v-1c0-.5522847.4477153-1 1-1s1 .4477153 1 1v1c0 .5522847-.4477153 1-1 1z" fill="#cb8252"/><path id="Shape" d="m39 10.54v5.46c0 .5522847-.4477153 1-1 1s-1-.4477153-1-1v-6.41c.6870473.27184683 1.355197.5892179 2 .95z" fill="#a56a43"/><path id="Shape" d="m38 22c-.5522847 0-1-.4477153-1-1v-1c0-.5522847.4477153-1 1-1s1 .4477153 1 1v1c0 .5522847-.4477153 1-1 1z" fill="#a56a43"/><path id="Shape" d="m38 39v8.97c-.6479939.3168281-1.3160987.590751-2 .82v-9.79c0-.5522847.4477153-1 1-1s1 .4477153 1 1z" fill="#a56a43"/><path id="Shape" d="m47 32v7.82c-.5590103.9262716-1.18748 1.8088035-1.88 2.64-.174-.3-.12.354-.12-10.46 0-.5522847.4477153-1 1-1s1 .4477153 1 1z" fill="#805333"/><path id="Shape" d="m46 28c-.5522847 0-1-.4477153-1-1v-1c0-.5522847.4477153-1 1-1s1 .4477153 1 1v1c0 .5522847-.4477153 1-1 1z" fill="#805333"/><path id="Shape" d="m26 30c-2.092 0-.814-5 3-5 .5522847 0 1 .4477153 1 1s-.4477153 1-1 1c-1.1045695 0-2 .8954305-2 2 0 .5522847-.4477153 1-1 1z" fill="#ecf0f1"/></g></svg>