<svg height="520pt" viewBox="-4 -4 520 520.55223" width="520pt" xmlns="http://www.w3.org/2000/svg"><path d="m516.601562 134.34375c-9.621093 8.917969-19.15625 17.921875-28.777343 26.925781-.1875.199219-.394531.375-.617188.53125-35.664062 33.277344-71.296875 66.441407-106.902343 99.484375l-24.363282 22.777344c-2.191406 2.066406-5.292968 2.867188-8.210937 2.117188-7.382813-1.867188-14.609375-4.285157-21.628907-7.238282h-.085937l-106.460937 93.128906c-9.269532 8.566407-18.628907 17.039063-27.898438 25.425782-2.875-1.34375-5.675781-2.847656-8.382812-4.503906-21.539063 21.628906-43.257813 43.34375-64.882813 64.882812-7.769531 7.859375-15.449219 15.539062-23.304687 23.304688 4.324218 11.035156 4.324218 20.65625-.972657 25.953124-10.328125 10.328126-36.632812.621094-58.878906-21.539062l-.265625-.261719c-22.335938-22.335937-32.132812-48.820312-21.804688-59.148437 5.296876-5.292969 14.917969-5.292969 25.863282-1.058594 7.859375-7.765625 15.539062-15.445312 23.308594-23.304688 21.625-21.539062 43.339843-43.253906 64.882812-64.882812-1.589844-2.734375-3.089844-5.472656-4.414062-8.296875 8.382812-9.269531 16.859374-18.625 25.421874-27.894531l93.75-107.257813c-2.796874-7.066406-5.097656-14.324219-6.886718-21.714843-.683594-2.90625.144531-5.960938 2.207031-8.121094 7.589844-8.03125 15.09375-15.976563 22.773437-24.011719 33.105469-35.042969 66.472657-70.179687 99.664063-105.222656.15625-.226563.332031-.433594.53125-.617188 8.121094-8.476562 16.066406-16.863281 24.097656-25.25-1.675781 14.921875 35.136719 30.722657 66.121094 61.792969.085937.089844-.089844 8.742188 0 8.828125 34.957031 34.871094 54.554687 63.292969 66.117187 55.171875zm0 0" fill="#e4c05c"/><path d="m517.660156 133.460938c-.332031.316406-.6875.613281-1.058594.882812-11.5625 8.121094-48.023437-12.535156-83.066406-47.578125-30.984375-31.074219-50.847656-63.292969-49.171875-78.214844.082031-2.203125.960938-4.304687 2.472657-5.914062 10.328124-10.328125 47.933593 10.59375 84.128906 46.699219 36.191406 36.105468 57.023437 73.796874 46.695312 84.125zm0 0" fill="#90bae1"/><path d="m501.277344 103.828125c-.207032.191406-.425782.371094-.652344.539063-7.0625 4.988281-29.503906-7.699219-51.035156-29.226563-19.03125-19.097656-31.238282-38.886719-30.207032-48.050781.046876-1.351563.589844-2.644532 1.519532-3.628906 6.347656-6.347657 29.449218 6.507812 51.683594 28.691406 22.238281 22.183594 35.039062 45.328125 28.691406 51.675781zm0 0" fill="#b0d3f0"/><path d="m178.503906 342.324219-26.746094 26.746093c-9.589843-9.558593-17.84375-20.367187-24.539062-32.132812-1.589844-2.734375-3.089844-5.472656-4.414062-8.296875 8.382812-9.269531 16.859374-18.625 25.421874-27.894531 1.617188 3.378906 3.445313 6.648437 5.472657 9.796875 5.054687 8.605469 11 16.65625 17.742187 24.011719.882813 1.148437 1.855469 2.207031 2.828125 3.355468.421875.542969.894531 1.046875 1.410157 1.5.882812.972656 1.855468 1.941406 2.824218 2.914063zm0 0" fill="#f3d55b"/><path d="m275.875 244.953125-97.371094 97.371094c-.96875-.972657-1.941406-1.941407-2.824218-2.914063-.527344-.53125-.96875-.972656-1.410157-1.5-.972656-1.148437-1.945312-2.207031-2.828125-3.355468-6.742187-7.355469-12.6875-15.40625-17.742187-24.011719-2.027344-3.148438-3.855469-6.417969-5.472657-9.796875l93.75-107.257813c6.738282 16.875 16.421876 32.417969 28.601563 45.90625 1.765625 1.851563 3.53125 3.796875 5.296875 5.558594zm0 0" fill="#b19046"/><path d="m326.015625 278.941406-106.460937 93.128906c-3.378907-1.613281-6.652344-3.441406-9.800782-5.472656-8.582031-5.089844-16.625-11.035156-24.011718-17.742187-1.144532-.882813-2.207032-1.855469-3.351563-2.824219-.53125-.441406-.972656-.882812-1.503906-1.414062-.792969-.792969-1.585938-1.5-2.382813-2.292969l97.371094-97.371094c3.511719 3.648437 7.226562 7.097656 11.121094 10.332031 1.941406 1.585938 3.972656 3.175782 6.003906 4.675782 3.972656 3.007812 8.097656 5.804687 12.359375 8.386718 2.203125 1.414063 4.410156 2.648438 6.707031 3.882813 4.503906 2.472656 9.179688 4.679687 13.949219 6.710937zm0 0" fill="#805333"/><path d="m151.757812 369.070312-66.648437 66.648438c-9.808594-9.640625-17.558594-21.171875-22.773437-33.898438 21.625-21.539062 43.339843-43.253906 64.882812-64.882812 6.695312 11.765625 14.949219 22.574219 24.539062 32.132812zm0 0" fill="#b19046"/><path d="m183.273438 392.992188c-21.539063 21.628906-43.257813 43.34375-64.882813 64.882812-12.457031-5.101562-23.769531-12.632812-33.28125-22.15625l66.648437-66.648438c9.394532 9.339844 19.992188 17.382813 31.515626 23.921876zm0 0" fill="#805333"/><path d="m516.601562 134.34375c-9.621093 8.917969-19.15625 17.921875-28.777343 26.925781-.1875.199219-.394531.375-.617188.53125-11.035156 9.089844-47.40625-11.035156-81.921875-45.640625-.085937-.089844-.265625-.265625-.265625-.351562-11.550781-11.390625-22.011719-23.832032-31.25-37.164063-2.292969-3.265625-4.324219-6.535156-6.175781-9.625-9.359375-15.886719-12.714844-28.777343-7.859375-34.601562.15625-.226563.332031-.433594.53125-.617188 8.121094-8.476562 16.066406-16.863281 24.097656-25.25-1.675781 14.921875 18.1875 47.140625 49.171875 78.214844l.265625.265625c34.957031 34.867188 71.238281 55.433594 82.800781 47.3125zm0 0" fill="#b19046"/><path d="m303.0625 217.765625-27.1875 27.1875c-14.648438-14.691406-26.167969-32.199219-33.863281-51.464844-2.820313-7.070312-5.128907-14.332031-6.914063-21.730469-.660156-2.914062.183594-5.96875 2.242188-8.132812 7.566406-8.003906 15.132812-15.957031 22.765625-23.984375.53125 2.296875 1.0625 4.589844 1.765625 6.796875.707031 2.828125 1.589844 5.652344 2.472656 8.476562 4.367188 12.929688 10.324219 25.265626 17.746094 36.722657 2.027344 3.175781 4.148437 6.179687 6.265625 9.09375.050781 0 .089843.039062.089843.085937 1.941407 2.5625 3.882813 5.03125 6 7.414063 2.703126 3.269531 5.617188 6.445312 8.617188 9.535156zm0 0" fill="#f3d55b"/><path d="m405.019531 115.808594-101.957031 101.957031c-3-3.089844-5.914062-6.265625-8.652344-9.535156-2.117187-2.382813-4.058594-4.851563-6-7.414063 0-.046875-.042968-.085937-.089844-.085937-2.117187-2.914063-4.238281-5.917969-6.269531-9.09375-7.417969-11.457031-13.375-23.792969-17.742187-36.722657-.882813-2.824218-1.765625-5.648437-2.472656-8.476562-.703126-2.207031-1.234376-4.5-1.765626-6.796875 33.105469-35.042969 66.472657-70.179687 99.664063-105.222656-4.855469 5.824219-1.5 18.714843 7.859375 34.601562 1.851562 3.179688 3.882812 6.359375 6.175781 9.625 9.238281 13.332031 19.699219 25.773438 31.25 37.164063zm0 0" fill="#f9eab0"/><path d="m487.207031 161.800781c-35.664062 33.277344-71.296875 66.441407-106.902343 99.484375-14.734376-3.570312-28.902344-9.152344-42.109376-16.59375-2.824218-1.679687-5.648437-3.355468-8.386718-5.210937-.765625-.417969-1.503906-.890625-2.207032-1.410157-2.734374-1.765624-5.296874-3.707031-7.855468-5.652343-3.089844-2.292969-6.089844-4.765625-8.914063-7.324219-2.648437-2.296875-5.210937-4.769531-7.679687-7.238281l-.089844-.089844 101.957031-101.957031c0 .085937.179688.261718.265625.351562 34.515625 34.605469 70.886719 54.730469 81.921875 45.640625zm0 0" fill="#f0c419"/><path d="m94.113281 507.132812c-10.328125 10.328126-36.632812.621094-58.878906-21.539062l-.265625-.261719c-22.335938-22.335937-32.132812-48.820312-21.804688-59.148437 5.296876-5.292969 14.917969-5.292969 25.863282-1.058594-.296875.375-.621094.730469-.96875 1.058594 10.605468 25.320312 30.738281 45.453125 56.054687 56.058594.347657-.332032.671875-.6875.972657-1.0625 4.324218 11.035156 4.324218 20.65625-.972657 25.953124zm0 0" fill="#af8066"/><path d="m376.570312 231.429688c-3.570312 0-6.789062-2.148438-8.15625-5.449219-1.363281-3.296875-.609374-7.09375 1.914063-9.617188l46.523437-46.523437c3.496094-3.117188 8.816407-2.957032 12.125.359375 3.304688 3.316406 3.445313 8.636719.320313 12.125l-46.519531 46.519531c-1.648438 1.648438-3.878906 2.578125-6.207032 2.585938zm0 0" fill="#b19046"/><path d="m85.109375 435.71875-24.277344 24.277344c-9.757812-9.648438-17.5-21.140625-22.773437-33.8125.347656-.328125.671875-.683594.96875-1.058594 7.859375-7.765625 15.539062-15.445312 23.308594-23.304688 5.214843 12.726563 12.964843 24.257813 22.773437 33.898438zm0 0" fill="#f3d55b"/><path d="m440.226562 29.90625c0 6.917969-5.609374 12.527344-12.527343 12.527344s-12.527344-5.609375-12.527344-12.527344 5.609375-12.527344 12.527344-12.527344 12.527343 5.609375 12.527343 12.527344zm0 0" fill="#fff"/></svg>