<svg xmlns="http://www.w3.org/2000/svg" viewBox="0 0 58 58" width="58" height="58"><path d="M32.835 18.169a4.988 4.988 0 0 1-3.536-1.462 1 1 0 0 1 1.414-1.414 3.005 3.005 0 0 0 4.243 0 .999.999 0 1 1 1.414 1.414 4.984 4.984 0 0 1-3.535 1.462" fill="#4c4031"/><path d="M39.034 39.689v-4.001c0-.847 2.617-2.337 6.232-2.885a18.972 18.972 0 0 0-5.656-7.08l-7.248-4.928A10.38 10.38 0 0 0 31.156 20a25.48 25.48 0 0 1-1.127-5.212l-.518-4.813a5.648 5.648 0 0 1 .005-1.28c.064-.539.135-1.312.165-1.4.063-.182.149-.388.233-.59.412-.814.91-1.666 1.422-2.298.181-.202.358-.407.57-.586 1.162-.984.863-2.833-.582-3.311a9.703 9.703 0 0 0-2.513-.499c-.083-.005-.167.002-.25 0-.199-.004-.399-.012-.599.001-1.17.07-2.347.44-3.418 1.296a1.965 1.965 0 0 1-1.216.435 1.98 1.98 0 0 1-1.235-.437C20.763.244 19.27-.071 17.828.011a9.696 9.696 0 0 0-2.512.499c-1.445.478-1.744 2.327-.582 3.311.122.103.252.236.383.373l.12.123c.171.187.345.397.521.621a9.17 9.17 0 0 1 1.221 2.357c.067.194.135 1.265.24 1.851.067.373.111.747.111 1.126v3.488a25.47 25.47 0 0 1-.737 6.038 7.66 7.66 0 0 0-1.357.83l-7.048 5.135c-6.933 5.45-9.267 15.065-5.278 22.93 1.663 3.281 3.968 6.097 6.675 6.28.25.018.501.027.756.027h19.694a6.57 6.57 0 0 1-.613-1.422c.104-.004.208-.003.311-.011 6.523-.44 10.737-4.497 9.302-10.265v-3.613z" fill="#c7b6a1"/><path d="M48.034 41.592c-4.971 0-9-.852-9-1.904v4.001c.003 1.051 4.031 1.903 9 1.903s8.997-.852 9-1.903v-4.001c0 1.052-4.028 1.904-9 1.904M39.034 39.687zM57.034 39.687z" fill="#d19d18"/><path d="M57.034 35.688c0 1.052-4.029 1.904-9 1.904s-9-.852-9-1.904c0-1.051 4.029-3.096 9-3.096 4.972 0 9 2.045 9 3.096" fill="#fcc62d"/><path d="M48.034 37.592c-4.971 0-9-.852-9-1.904v4.001c.003 1.051 4.031 1.903 9 1.903s8.997-.852 9-1.903v-4.001c0 1.052-4.028 1.904-9 1.904M39.034 35.687zM57.034 35.687z" fill="#e4af18"/><path d="M30.034 17h-13a1 1 0 0 1 0-2h13a1 1 0 0 1 0 2M30.034 14h-13a1 1 0 0 1 0-2h13a1 1 0 0 1 0 2M30.034 11h-13a1 1 0 0 1 0-2h13a1 1 0 0 1 0 2" fill="#6b5b46"/><path d="M48.034 53.592c-2.013 0-3.865-.141-5.364-.377a7.004 7.004 0 0 1-2.477 3.406c1.543.579 4.474.971 7.841.971 4.969 0 8.997-.852 9-1.903v-4.001c0 1.052-4.028 1.904-9 1.904M48.034 45.592c-4.971 0-9-.852-9-1.904v.994a7.006 7.006 0 0 1 3.767 4.553c1.475.224 3.279.357 5.233.357 4.969 0 8.997-.852 9-1.903v-4.001c0 1.052-4.028 1.904-9 1.904" fill="#e4af18"/><path d="M48.034 49.592c-1.954 0-3.758-.133-5.233-.357.147.565.233 1.154.233 1.764 0 .775-.131 1.519-.364 2.216 1.499.236 3.351.377 5.364.377 4.969 0 8.997-.852 9-1.903v-4.001c0 1.052-4.028 1.904-9 1.904" fill="#d19d18"/><path d="M43.034 51a7 7 0 1 1-14 0 7 7 0 0 1 14 0" fill="#fcc62d"/><path d="M8.034 41a1 1 0 0 1-1-1c0-6.869 7.589-15 14-15a1 1 0 0 1 0 2c-5.271 0-12 7.29-12 13 0 .551-.448 1-1 1" fill="#dbccba"/></svg>
