<svg height="512pt" viewBox="-71 0 512 512" width="512pt" xmlns="http://www.w3.org/2000/svg"><path d="M167.723 440.23v54.114c-.028 9.738-7.914 17.629-17.653 17.656h-35.312c-9.738-.027-17.625-7.918-17.656-17.656V412.69zm0 0M273.656 412.691v81.653c-.031 9.738-7.918 17.629-17.656 17.656h-35.309c-9.742-.027-17.629-7.918-17.656-17.656V440.23zm0 0" fill="#805333"/><path d="M141.242 485.516V512h-17.656v-26.484c0-4.875 3.953-8.825 8.828-8.825s8.828 3.95 8.828 8.825zm0 0M247.172 485.516V512h-17.656v-26.484c0-4.875 3.953-8.825 8.828-8.825s8.828 3.95 8.828 8.825zm0 0" fill="#804537"/><path d="M370.758 256v88.277c.015 16.098-10.887 30.16-26.48 34.16a34.505 34.505 0 0 1-17.657 0 34.23 34.23 0 0 1-13.242-6.707 6.145 6.145 0 0 1-.883-.707 157.119 157.119 0 0 1-16.773 21.98c-28.41 30.825-68.422 48.36-110.344 48.36s-81.934-17.535-110.344-48.36a157.119 157.119 0 0 1-16.773-21.98c-.274.262-.567.5-.883.707a34.23 34.23 0 0 1-13.242 6.708 34.49 34.49 0 0 1-17.653 0 35.981 35.981 0 0 1-16.156-9.18A35.513 35.513 0 0 1 0 344.278V256c0-29.254 23.715-52.965 52.965-52.965H64a151.122 151.122 0 0 1 42.371-39.285h158.016a151.122 151.122 0 0 1 42.37 39.285h11.036c29.254 0 52.965 23.711 52.965 52.965zm0 0M264.828 79.45c52.965 0 52.965-52.966 52.965-52.966-17.656 0-70.621 8.825-70.621 8.825H123.586s-52.965-8.825-70.621-8.825c0 0 0 52.965 52.965 52.965zm0 0" fill="#71c285"/><path d="M256.707 139.828a26.487 26.487 0 0 1 6.184 28.969 26.487 26.487 0 0 1-24.547 16.582h-105.93a26.483 26.483 0 1 1-18.715-45.195l.352-.356a114.049 114.049 0 0 1-8.121-42.726C105.93 43.434 141.508 0 185.379 0c43.875 0 79.45 43.434 79.45 97.102.058 14.632-2.7 29.14-8.122 42.726zm0 0" fill="#4c8056"/><path d="M218.484 194.207h-66.207a8.829 8.829 0 0 1 0-17.656h66.207c4.875 0 8.825 3.953 8.825 8.828s-3.95 8.828-8.825 8.828zm0 0" fill="#4fba6f"/><path d="M229.516 150.07c0 4.875-3.95 8.828-8.825 8.828h-70.62a8.829 8.829 0 0 1 0-17.656h70.62c4.875 0 8.825 3.953 8.825 8.828zm0 0" fill="#2c2f38"/><path d="M176.55 132.414v26.484h-17.652v-26.484c0-4.875 3.95-8.828 8.825-8.828s8.828 3.953 8.828 8.828zm0 0M211.863 132.414v26.484h-17.656v-26.484a8.829 8.829 0 0 1 17.656 0zm0 0" fill="#f9eab0"/><path d="M158.898 88.277a8.826 8.826 0 0 1-8.828-8.828v-8.828a8.826 8.826 0 0 1 8.828-8.828c4.875 0 8.825 3.953 8.825 8.828v8.828c0 4.875-3.95 8.828-8.825 8.828zm0 0M211.863 88.277a8.829 8.829 0 0 1-8.828-8.828v-8.828a8.829 8.829 0 0 1 17.656 0v8.828a8.829 8.829 0 0 1-8.828 8.828zm0 0" fill="#f3d55b"/><path d="M194.207 114.758c-2.34 0-4.586-.93-6.242-2.586-.988-.988-2.496-2.473-5.297.113a8.913 8.913 0 0 1-12.418-.308c-3.352-3.418-3.328-8.899.05-12.286a20.692 20.692 0 0 1 15.071-6.507 20.684 20.684 0 0 1 15.066 6.507 8.826 8.826 0 0 1 1.918 9.614 8.835 8.835 0 0 1-8.148 5.453zm0 0" fill="#2c2f38"/><path d="M185.379 388.414a8.829 8.829 0 0 1-8.828-8.828V361.93a8.829 8.829 0 0 1 17.656 0v17.656a8.829 8.829 0 0 1-8.828 8.828zm0 0" fill="#4c8056"/><path d="M194.207 379.586h-17.656a8.829 8.829 0 0 1 0-17.656h17.656a8.829 8.829 0 0 1 0 17.656zm0 0" fill="#4c8056"/><path d="M132.414 273.656a8.829 8.829 0 0 1-8.828-8.828V256a8.829 8.829 0 0 1 17.656 0v8.828a8.829 8.829 0 0 1-8.828 8.828zm0 0M238.344 273.656a8.829 8.829 0 0 1-8.828-8.828V256a8.829 8.829 0 0 1 17.656 0v8.828a8.829 8.829 0 0 1-8.828 8.828zm0 0" fill="#d75e72"/><path d="M44.137 361.93v16.507a34.49 34.49 0 0 1-17.653 0V361.93c0-4.875 3.95-8.828 8.825-8.828a8.826 8.826 0 0 1 8.828 8.828zm0 0M344.277 361.93v16.507a34.505 34.505 0 0 1-17.656 0V361.93a8.829 8.829 0 0 1 17.656 0zm0 0" fill="#4fba6f"/><g fill="#4c8056"><path d="M75.035 269.242v123.762a157.119 157.119 0 0 1-16.773-21.98c-.274.261-.567.5-.883.706V269.242a8.829 8.829 0 0 1 17.656 0zm0 0M313.379 269.242V371.73a6.145 6.145 0 0 1-.883-.707 157.119 157.119 0 0 1-16.773 21.98v-123.76a8.829 8.829 0 0 1 17.656 0zm0 0M139.855 277.574a163.613 163.613 0 0 1-36.062-4.183 8.834 8.834 0 0 1-6.195-10.637c1.156-4.637 5.793-7.516 10.46-6.488.337.078 33.227 8.086 56.876.183 4.632-1.539 9.636.965 11.175 5.598a8.835 8.835 0 0 1-5.597 11.176 98.415 98.415 0 0 1-30.657 4.351zm0 0M236.957 277.574a163.579 163.579 0 0 1-36.059-4.183 8.827 8.827 0 0 1-6.195-10.637c1.156-4.637 5.79-7.516 10.457-6.488.336.078 33.219 8.086 56.88.183 4.628-1.539 9.632.965 11.175 5.598 1.539 4.633-.965 9.637-5.598 11.176a98.456 98.456 0 0 1-30.66 4.351zm0 0"/></g></svg>
