<svg height="512" viewBox="0 0 64 64" width="512" xmlns="http://www.w3.org/2000/svg"><path d="m25.63 31.3.7-.71a1 1 0 0 0 0-1.41 1 1 0 0 0 -1.41 0l-2.83 2.82a1 1 0 0 0 .71 1.71 1 1 0 0 0 .71-.3l.7-.7 2.12 2.12a1 1 0 0 0 .71.29 1 1 0 0 0 .71-.29 1 1 0 0 0 0-1.42z" fill="#fcbc04"/><path d="m20 37 .71-.71a1 1 0 0 0 0-1.41 1 1 0 0 0 -1.42 0l-2.82 2.83a1 1 0 0 0 0 1.41 1 1 0 0 0 .7.29 1 1 0 0 0 .71-.29l.71-.71 2.12 2.12a1 1 0 0 0 1.41 0 1 1 0 0 0 0-1.41z" fill="#fcbc04"/><path d="m14.31 42.62.71-.71a1 1 0 0 0 0-1.42 1 1 0 0 0 -1.41 0l-2.83 2.83a1 1 0 0 0 1.41 1.42l.71-.74 2.1 2.15a1 1 0 0 0 .71.29 1 1 0 0 0 .71-1.7z" fill="#fcbc04"/><g fill="#57b7eb"><path d="m58.71 5.29a1 1 0 0 0 -1.42 0l-7 7a1 1 0 0 0 0 1.42 1 1 0 0 0 1.42 0l7-7a1 1 0 0 0 0-1.42z"/><path d="m61 15.73a1 1 0 0 0 -1.27-.73l-7 2a1 1 0 0 0 .27 2 .84.84 0 0 0 .27 0l7-2a1 1 0 0 0 .73-1.27z"/><path d="m47.14 3a1 1 0 0 0 -1.14.86l-1 7a1 1 0 0 0 .86 1.14h.14a1 1 0 0 0 1-.86l1-7a1 1 0 0 0 -.86-1.14z"/><path d="m14 19a3 3 0 0 0 3-3v-3h6v2.18a3 3 0 1 0 2 2.82v-10a1 1 0 0 0 -1-1h-8a1 1 0 0 0 -1 1v5.18a3 3 0 1 0 -1 5.82zm8 0a1 1 0 1 1 1-1 1 1 0 0 1 -1 1zm-5-10h6v2h-6zm-3 6a1 1 0 1 1 -1 1 1 1 0 0 1 1-1z"/></g><path d="m39.06 33.42a8 8 0 0 0 -11.31 0l-12.75 12.73a8 8 0 0 0 11.33 11.31l12.73-12.72a8 8 0 0 0 0-11.32zm-2.83 8.49-12.72 12.73a4 4 0 1 1 -5.66-5.64l12.73-12.75a4 4 0 1 1 5.65 5.66z" fill="#f9e109"/><path d="m18 47.69h4a0 0 0 0 1 0 0v2a2 2 0 0 1 -2 2 2 2 0 0 1 -2-2v-2a0 0 0 0 1 0 0z" fill="#e59730" transform="matrix(.707 -.707 .707 .707 -29.28 28.67)"/><path d="m23.63 42h4a0 0 0 0 1 0 0v2a2 2 0 0 1 -2 2 2 2 0 0 1 -2-2v-2a0 0 0 0 1 0 0z" fill="#e59730" transform="matrix(.707 -.707 .707 .707 -23.63 31.02)"/><path d="m29.28 36.37h4a0 0 0 0 1 0 0v2a2 2 0 0 1 -2 2 2 2 0 0 1 -2-2v-2a0 0 0 0 1 0 0z" fill="#e59730" transform="matrix(.707 -.707 .707 .707 -17.97 33.36)"/><path d="m15 46.15-4.6 4.62a18.84 18.84 0 0 1 -7.4 4.57l5.66 5.66a18.82 18.82 0 0 1 4.34-7.11 8 8 0 0 1 2-7.74z" fill="#f9e109"/><path d="m40.48 10.8-.43 2.57a29.42 29.42 0 0 1 -8.22 16l-4.08 4.08a8 8 0 0 1 7.76-2.05 29.18 29.18 0 0 1 15.12-7.4l2.57-.43z" fill="#f9e109"/><path d="m15 46.15-4.23 4.23a9.73 9.73 0 0 0 -.11 1.43v.19a4.06 4.06 0 0 1 -1.94 3.6 18.18 18.18 0 0 1 -3.72 1.74l3.66 3.66a18.79 18.79 0 0 1 3.17-5.79 15.74 15.74 0 0 1 1.17-1.32 8 8 0 0 1 2-7.74z" fill="#fcbc04"/><path d="m43.89 14.21a29.45 29.45 0 0 1 -4 10.12 41 41 0 0 1 -2.93 3.76 3.11 3.11 0 0 1 -2.67 1 7.87 7.87 0 0 0 -.84 0 11.34 11.34 0 0 0 -1.44.11l-.14.15-4.08 4.08a8 8 0 0 1 7.76-2.05c.52-.48 1.06-.93 1.61-1.37a27.49 27.49 0 0 1 2.54-1.85 29.42 29.42 0 0 1 11-4.2l2.57-.43z" fill="#fcbc04"/><path d="m34.31 47.14a36.88 36.88 0 0 1 -8.17 4.86l-2.63 2.64a4 4 0 0 1 -5.66 0c-.14-.15-.26-.31-.38-.46a15.11 15.11 0 0 1 -4.54-.4 7.85 7.85 0 0 0 2.07 3.68 8 8 0 0 0 11.31 0l12.75-12.72a8 8 0 0 0 2.3-4.83 36.89 36.89 0 0 1 -7.05 7.23z" fill="#fcbc04"/></svg>