<svg xmlns="http://www.w3.org/2000/svg" viewBox="0 0 512 512" width="512pt" height="512pt"><circle cx="255.995" cy="255.996" r="76.945" fill="#f4b2b0"/><g fill="#b3404a"><path d="M255.997 347.463c-50.433 0-91.463-41.031-91.463-91.463s41.031-91.463 91.463-91.463S347.46 205.567 347.46 256s-41.031 91.463-91.463 91.463zm0-153.89c-34.422 0-62.427 28.005-62.427 62.427s28.005 62.427 62.427 62.427 62.427-28.005 62.427-62.427-28.005-62.427-62.427-62.427z"/><path d="M255.997 512c-68.381 0-132.668-26.629-181.02-74.98-5.669-5.669-5.669-14.862 0-20.533 5.671-5.669 14.861-5.669 20.533 0 42.867 42.869 99.863 66.476 160.488 66.476s117.62-23.608 160.488-66.476c42.867-42.867 66.476-99.863 66.476-160.488s-23.609-117.62-66.476-160.488c-42.869-42.869-99.863-66.476-160.488-66.476S138.377 52.644 95.509 95.512c-57.256 57.256-79.73 141.45-58.65 219.728 2.085 7.742-2.503 15.708-10.244 17.793-7.75 2.088-15.708-2.501-17.795-10.244-11.5-42.711-11.756-87.936-.735-130.784C19.44 147.853 42.571 107.387 74.977 74.98 123.329 26.629 187.616 0 255.997 0s132.668 26.629 181.02 74.98c48.352 48.352 74.98 112.639 74.98 181.02s-26.629 132.667-74.98 181.02C388.665 485.371 324.377 512 255.997 512z"/><path d="M255.997 452.028C147.906 452.028 59.969 364.09 59.969 256S147.906 59.972 255.997 59.972c69.932 0 135.071 37.687 169.997 98.355 4.001 6.948 1.61 15.825-5.338 19.826-6.951 4-15.823 1.609-19.824-5.338-29.76-51.693-85.258-83.807-144.834-83.807-92.08 0-166.992 74.913-166.992 166.992s74.913 166.992 166.992 166.992S422.989 348.079 422.989 256c0-8.018 6.501-14.518 14.518-14.518s14.518 6.5 14.518 14.518c0 108.091-87.937 196.028-196.028 196.028z"/></g></svg>
