<?xml version="1.0" encoding="iso-8859-1"?>
<!-- Generator: Adobe Illustrator 19.0.0, SVG Export Plug-In . SVG Version: 6.00 Build 0)  -->
<svg version="1.1" id="Capa_1" xmlns="http://www.w3.org/2000/svg" xmlns:xlink="http://www.w3.org/1999/xlink" x="0px" y="0px"
	 viewBox="0 0 512.001 512.001" style="enable-background:new 0 0 512.001 512.001;" xml:space="preserve">
<path id="SVGCleanerId_0" style="fill:#E15F76;" d="M454.305,94.9H57.696C25.831,94.9,0,120.731,0,152.596v22.726
	c0,31.864,25.831,57.696,57.696,57.696h12.031v-44.396h372.547v44.396h12.031c31.864,0,57.696-25.831,57.696-57.696v-22.726
	C512,120.731,486.169,94.9,454.305,94.9z"/>
<g>
	<path id="SVGCleanerId_0_1_" style="fill:#E15F76;" d="M454.305,94.9H57.696C25.831,94.9,0,120.731,0,152.596v22.726
		c0,31.864,25.831,57.696,57.696,57.696h12.031v-44.396h372.547v44.396h12.031c31.864,0,57.696-25.831,57.696-57.696v-22.726
		C512,120.731,486.169,94.9,454.305,94.9z"/>
</g>
<path style="opacity:0.1;enable-background:new    ;" d="M56.646,94.926C25.268,95.488,0,121.083,0,152.596v22.726
	c0,31.864,25.831,57.696,57.696,57.696h12.031v-22.876C41.695,174.825,36.759,126.785,56.646,94.926z"/>
<path style="fill:#FFE78C;" d="M104.603,417.1L104.603,417.1c8.473,0,15.341-6.868,15.341-15.341V180.703
	c0-10.228-8.292-18.52-18.52-18.52H92.33c-43.419,0-77.689,36.892-74.494,80.194l7.457,101.05
	C28.358,384.964,62.952,417.1,104.603,417.1z"/>
<path style="opacity:0.08;enable-background:new    ;" d="M30.598,194.813c-9.173,13.433-14.061,29.969-12.762,47.564l7.457,101.051
	c3.065,41.537,37.66,73.673,79.31,73.673l0,0c8.472,0,15.341-6.868,15.341-15.341C25.596,345.834,26.696,245.707,30.598,194.813z"/>
<path style="fill:#FFE78C;" d="M407.397,417.1L407.397,417.1c-8.473,0-15.341-6.868-15.341-15.341V180.703
	c0-10.228,8.292-18.52,18.52-18.52h9.094c43.419,0,77.689,36.892,74.494,80.194l-7.457,101.05
	C483.642,384.964,449.048,417.1,407.397,417.1z"/>
<path style="opacity:0.08;enable-background:new    ;" d="M392.057,267.79v133.969c0,8.473,6.868,15.341,15.341,15.341l0,0
	c30.606,0,57.383-17.364,70.659-43.048C414.226,407.533,392.057,317.843,392.057,267.79z"/>
<path style="fill:#FFE78C;" d="M153.957,257.403L153.957,257.403c-18.785,0-34.014-15.229-34.014-34.014v-38.571
	c0-12.501,10.134-22.636,22.636-22.636h22.757c12.501,0,22.636,10.134,22.636,22.636v38.571
	C187.972,242.175,172.743,257.403,153.957,257.403z"/>
<path style="opacity:0.05;enable-background:new    ;" d="M153.957,257.403L153.957,257.403c-18.785,0-34.014-15.229-34.014-34.014
	v-38.571c0-12.501,10.134-22.636,22.636-22.636h22.757c12.501,0,22.636,10.134,22.636,22.636v38.571
	C187.972,242.175,172.743,257.403,153.957,257.403z"/>
<g>
	<path style="fill:#FFE78C;" d="M221.986,257.403L221.986,257.403c-18.786,0-34.014-15.229-34.014-34.014v-38.571
		c0-12.501,10.134-22.636,22.636-22.636h22.757c12.501,0,22.636,10.134,22.636,22.636v38.571
		C256,242.175,240.771,257.403,221.986,257.403z"/>
	<path style="fill:#FFE78C;" d="M358.043,257.403L358.043,257.403c18.785,0,34.014-15.229,34.014-34.014v-38.571
		c0-12.501-10.134-22.636-22.636-22.636h-22.757c-12.501,0-22.636,10.134-22.636,22.636v38.571
		C324.028,242.175,339.257,257.403,358.043,257.403z"/>
</g>
<path style="opacity:0.08;enable-background:new    ;" d="M358.043,257.403L358.043,257.403c18.785,0,34.014-15.229,34.014-34.014
	v-38.571c0-12.501-10.134-22.636-22.636-22.636h-22.757c-12.501,0-22.636,10.134-22.636,22.636v38.571
	C324.028,242.175,339.257,257.403,358.043,257.403z"/>
<path style="fill:#FFE78C;" d="M290.014,257.403L290.014,257.403c18.786,0,34.014-15.229,34.014-34.014v-38.571
	c0-12.501-10.134-22.636-22.636-22.636h-22.757c-12.501,0-22.636,10.134-22.636,22.636v38.571
	C256,242.175,271.229,257.403,290.014,257.403z"/>
<path style="opacity:0.05;enable-background:new    ;" d="M290.014,257.403L290.014,257.403c18.786,0,34.014-15.229,34.014-34.014
	v-38.571c0-12.501-10.134-22.636-22.636-22.636h-22.757c-12.501,0-22.636,10.134-22.636,22.636v38.571
	C256,242.175,271.229,257.403,290.014,257.403z"/>
<g>
</g>
<g>
</g>
<g>
</g>
<g>
</g>
<g>
</g>
<g>
</g>
<g>
</g>
<g>
</g>
<g>
</g>
<g>
</g>
<g>
</g>
<g>
</g>
<g>
</g>
<g>
</g>
<g>
</g>
</svg>
